<?xml version="1.0" encoding="UTF-8" standalone="no"?>
<!-- Created with Inkscape (http://www.inkscape.org/) -->

<svg
   width="228.60001mm"
   height="376.0271mm"
   viewBox="0 0 228.60001 376.0271"
   version="1.1"
   id="svg5"
   xml:space="preserve"
   xmlns:inkscape="http://www.inkscape.org/namespaces/inkscape"
   xmlns:sodipodi="http://sodipodi.sourceforge.net/DTD/sodipodi-0.dtd"
   xmlns="http://www.w3.org/2000/svg"
   xmlns:svg="http://www.w3.org/2000/svg"><sodipodi:namedview
     id="namedview7"
     pagecolor="#505050"
     bordercolor="#eeeeee"
     borderopacity="1"
     inkscape:showpageshadow="0"
     inkscape:pageopacity="0"
     inkscape:pagecheckerboard="0"
     inkscape:deskcolor="#505050"
     inkscape:document-units="mm"
     showgrid="false" /><defs
     id="defs2" /><g
     inkscape:label="Layer 1"
     inkscape:groupmode="layer"
     id="layer1"
     transform="translate(263.01569,38.255069)"><g
       transform="matrix(0.03527778,0,0,-0.03527778,-272.89348,338.04068)"
       fill="#000000"
       stroke="none"
       id="g756"
       style="fill:#f9f9f9"
       inkscape:export-filename="logo2.svg"
       inkscape:export-xdpi="96"
       inkscape:export-ydpi="96"><path
         d="m 3726,10639 c -121,-32 -203,-72 -376,-186 -338,-222 -502,-393 -669,-698 -87,-158 -201,-516 -201,-631 0,-27 16,-40 33,-26 7,6 68,31 137,57 69,26 143,56 165,65 22,10 60,27 86,38 43,18 46,22 79,108 18,49 39,96 47,104 11,12 42,15 158,15 79,0 147,-4 151,-8 5,-4 11,-56 15,-115 l 6,-107 77,-140 c 42,-77 104,-193 137,-258 33,-65 66,-120 74,-124 19,-7 62,11 100,42 l 30,24 -25,48 c -14,26 -48,86 -77,134 -28,47 -65,124 -82,172 -29,83 -30,95 -32,254 l -1,168 50,141 c 28,78 64,168 80,200 73,143 209,302 346,406 130,98 214,133 439,184 21,5 39,14 40,19 1,16 -92,73 -178,107 l -80,32 -210,2 c -203,2 -214,1 -319,-27 z m -476,-323 c 0,-2 -8,-10 -17,-17 -16,-13 -17,-12 -4,4 13,16 21,21 21,13 z m -140,-119 c 0,-2 -19,-19 -42,-37 l -43,-33 34,36 c 30,32 51,46 51,34 z m 340,-17 c 0,-11 -11,-49 -25,-86 -14,-36 -32,-102 -41,-147 -9,-45 -20,-90 -25,-99 -14,-25 -74,-41 -145,-36 -94,6 -97,13 -45,115 52,100 80,135 176,215 73,61 105,72 105,38 z m -542,-226 c -17,-30 -32,-53 -35,-50 -6,6 48,106 58,106 4,0 -6,-25 -23,-56 z"
         id="path132"
         style="fill:#f9f9f9" /><path
         d="m 3100,9403 c -40,-8 -47,-19 -65,-101 -22,-100 -26,-107 -91,-148 -30,-19 -54,-39 -54,-44 0,-5 13,-32 30,-60 16,-28 56,-101 89,-163 33,-61 104,-195 159,-297 l 99,-185 h 66 c 37,0 62,-2 57,-3 -6,-2 -2,-15 8,-30 10,-15 24,-42 31,-59 12,-28 18,-33 47,-33 19,0 34,-4 34,-9 0,-5 -18,-7 -40,-4 -26,4 -40,2 -40,-6 0,-6 16,-11 37,-11 24,0 45,-8 60,-22 l 23,-21 v 21 c 0,12 -5,22 -11,22 -6,0 -9,6 -6,14 3,8 -21,58 -54,111 -33,54 -58,99 -56,102 3,2 46,-64 96,-148 51,-83 90,-154 87,-156 -2,-3 -12,10 -21,27 -16,32 -17,32 -31,11 -13,-18 -12,-25 6,-61 14,-27 27,-40 41,-40 27,0 419,267 419,286 0,16 -176,330 -189,339 -4,2 -53,-32 -109,-75 -55,-44 -107,-80 -115,-80 -8,0 -75,127 -172,328 -141,292 -159,335 -168,402 -5,41 -11,81 -13,88 -3,12 -97,15 -154,5 z m 535,-937 17,-31 -20,24 c -11,14 -27,38 -37,55 l -17,31 20,-24 c 11,-14 27,-38 37,-55 z m -278,-52 c -3,-3 -12,-4 -19,-1 -8,3 -5,6 6,6 11,1 17,-2 13,-5 z"
         id="path134"
         style="fill:#f9f9f9" /><path
         d="m 2630,9062 c -78,-36 -106,-54 -108,-69 -3,-18 63,-143 460,-880 66,-123 124,-225 129,-228 11,-7 69,22 69,35 0,17 -32,90 -39,90 -4,0 -7,16 -6,35 0,26 11,46 40,77 l 40,42 -35,-26 c -19,-14 -45,-43 -57,-64 -13,-21 -23,-32 -23,-23 0,9 9,28 21,43 18,23 19,30 9,62 -7,19 -20,40 -31,47 -10,6 -19,15 -19,20 0,4 5,5 10,2 6,-3 10,3 10,15 0,12 5,31 11,43 10,21 9,21 -10,-2 -12,-13 -21,-19 -21,-14 0,15 31,53 43,53 7,0 17,8 24,18 9,16 -5,48 -89,203 -54,101 -140,260 -190,352 -50,93 -100,180 -112,193 l -21,24 z"
         id="path136"
         style="fill:#f9f9f9" /><path
         d="m 3340,8345 c 0,-25 29,-75 43,-75 30,0 35,22 15,56 -21,35 -58,47 -58,19 z"
         id="path138"
         style="fill:#f9f9f9" /><path
         d="m 3968,8243 -126,-85 37,-62 c 47,-76 63,-106 57,-106 -2,0 -25,36 -51,80 -26,44 -48,80 -50,80 -10,0 -151,-103 -158,-115 -5,-9 1,-28 16,-52 46,-74 157,-291 157,-307 0,-9 -7,-19 -15,-22 -8,-4 -12,-10 -9,-15 3,-5 -2,-9 -10,-9 -9,0 -16,-4 -16,-10 0,-5 4,-10 10,-10 8,0 90,-149 90,-165 0,-3 -21,-5 -47,-6 -27,0 -66,-6 -88,-14 -47,-15 -28,-19 31,-5 45,10 102,-1 115,-22 6,-9 10,-8 15,6 4,11 2,21 -7,27 -9,6 -10,9 -2,9 20,0 26,-21 13,-44 -10,-19 -7,-30 18,-73 l 30,-51 -29,-12 c -16,-7 -28,-15 -25,-17 8,-8 67,28 61,37 -4,6 -2,10 3,10 6,0 27,-29 47,-63 l 37,-64 57,13 c 31,7 74,15 96,19 22,3 43,9 47,13 7,7 -30,171 -42,185 -4,5 -42,-1 -85,-13 -84,-23 -95,-21 -98,25 -2,28 1,29 76,49 75,20 78,22 72,46 -7,27 -24,42 -39,33 -5,-3 -19,-7 -30,-9 -12,-2 -39,-8 -60,-13 -31,-7 -46,-6 -69,5 -28,15 -29,16 -11,37 11,12 20,23 20,25 2,3 106,29 144,37 9,1 14,11 12,26 -5,49 -7,49 -106,14 l -95,-33 -11,34 c -7,20 -10,37 -8,40 3,2 45,18 94,35 49,17 92,34 97,38 4,4 -2,29 -14,55 -22,51 -18,67 21,73 16,2 22,-7 35,-52 9,-30 21,-55 26,-55 5,0 35,10 67,23 45,18 64,21 89,14 31,-9 31,-10 16,-41 -12,-25 -24,-34 -61,-43 -97,-23 -104,-28 -96,-70 4,-21 8,-39 9,-41 1,-1 42,7 90,18 49,11 92,17 96,13 4,-4 10,-22 13,-39 7,-30 6,-31 -46,-42 -29,-6 -70,-14 -90,-18 -37,-6 -44,-16 -32,-48 8,-22 27,-20 114,8 67,22 76,23 102,10 l 28,-15 -21,-28 c -12,-16 -34,-32 -50,-35 -17,-3 -54,-13 -85,-22 l -55,-16 6,-36 c 4,-20 14,-63 23,-94 15,-50 20,-57 37,-51 11,4 36,9 55,12 30,5 40,15 75,76 35,58 47,71 78,80 48,13 51,17 107,129 l 48,97 -72,92 c -222,284 -281,354 -401,475 -73,72 -137,132 -141,132 -5,-1 -66,-39 -136,-87 z m -3,-293 c 9,-16 13,-30 11,-30 -3,0 -12,14 -21,30 -9,17 -13,30 -11,30 3,0 12,-13 21,-30 z m 40,-70 c 9,-16 13,-30 11,-30 -3,0 -12,14 -21,30 -9,17 -13,30 -11,30 3,0 12,-13 21,-30 z m -138,-177 c 64,-134 113,-247 113,-260 0,-19 -22,22 -65,122 -26,61 -65,145 -86,188 -22,42 -35,77 -31,77 5,0 36,-57 69,-127 z m 183,97 c 6,-11 8,-20 6,-20 -3,0 -10,9 -16,20 -6,11 -8,20 -6,20 3,0 10,-9 16,-20 z m -192,-201 c -3,-8 -7,-3 -11,10 -4,17 -3,21 5,13 5,-5 8,-16 6,-23 z"
         id="path140"
         style="fill:#f9f9f9" /><path
         d="m 3190,8273 c 1,-5 9,-24 20,-43 23,-41 27,-23 5,20 -15,29 -25,38 -25,23 z"
         id="path142"
         style="fill:#f9f9f9" /><path
         d="m 3390,8250 c 0,-5 5,-10 11,-10 5,0 7,5 4,10 -3,6 -8,10 -11,10 -2,0 -4,-4 -4,-10 z"
         id="path144"
         style="fill:#f9f9f9" /><path
         d="m 3127,8238 c -4,-14 23,-78 34,-78 3,0 12,6 18,14 10,11 9,21 -4,45 -16,32 -40,41 -48,19 z"
         id="path146"
         style="fill:#f9f9f9" /><path
         d="m 3470,8223 c 0,-4 7,-27 16,-50 12,-29 23,-43 35,-43 23,0 23,3 3,57 -12,29 -23,43 -35,43 -11,0 -19,-3 -19,-7 z"
         id="path148"
         style="fill:#f9f9f9" /><path
         d="m 3406,8211 c -4,-5 3,-30 14,-56 15,-35 24,-45 36,-41 9,3 17,6 19,6 2,0 -6,23 -18,50 -20,47 -38,62 -51,41 z"
         id="path150"
         style="fill:#f9f9f9" /><path
         d="m 3270,8137 c 0,-13 41,-89 46,-84 2,2 -7,24 -21,48 -13,24 -25,40 -25,36 z"
         id="path152"
         style="fill:#f9f9f9" /><path
         d="m 3210,8108 c 0,-20 32,-98 40,-98 23,0 26,28 9,68 -17,39 -49,59 -49,30 z"
         id="path154"
         style="fill:#f9f9f9" /><path
         d="m 3550,8100 c 20,-13 43,-13 35,0 -3,6 -16,10 -28,10 -18,0 -19,-2 -7,-10 z"
         id="path156"
         style="fill:#f9f9f9" /><path
         d="m 3488,8093 c 6,-2 18,-2 25,0 6,3 1,5 -13,5 -14,0 -19,-2 -12,-5 z"
         id="path158"
         style="fill:#f9f9f9" /><path
         d="m 3160,8055 c 0,-25 28,-85 40,-85 19,0 21,25 5,63 -15,37 -45,51 -45,22 z"
         id="path160"
         style="fill:#f9f9f9" /><path
         d="m 3480,8045 c 0,-9 6,-12 15,-9 8,4 15,10 15,15 0,5 -7,9 -15,9 -8,0 -15,-7 -15,-15 z"
         id="path162"
         style="fill:#f9f9f9" /><path
         d="m 3240,7971 c -25,-21 -43,-41 -40,-44 5,-5 90,69 90,79 0,7 -5,4 -50,-35 z"
         id="path164"
         style="fill:#f9f9f9" /><path
         d="m 3390,7900 c -8,-5 -12,-11 -10,-14 3,-2 14,2 24,10 22,15 10,19 -14,4 z"
         id="path166"
         style="fill:#f9f9f9" /><path
         d="m 3490,7860 c 0,-28 32,-90 46,-90 25,0 25,20 -1,65 -29,48 -45,57 -45,25 z"
         id="path168"
         style="fill:#f9f9f9" /><path
         d="m 3320,7855 c -7,-8 -8,-15 -2,-15 5,0 15,7 22,15 7,8 8,15 2,15 -5,0 -15,-7 -22,-15 z"
         id="path170"
         style="fill:#f9f9f9" /><path
         d="m 3353,7835 c -28,-19 -62,-48 -76,-66 l -24,-31 -11,31 c -13,38 -19,38 -61,3 l -34,-28 32,-55 c 41,-74 161,-446 206,-640 45,-197 86,-330 137,-444 23,-49 42,-92 44,-93 1,-2 12,-1 24,3 15,5 32,29 52,74 43,98 50,111 62,111 24,0 86,51 86,71 0,12 -27,77 -60,146 -33,68 -60,128 -60,134 0,12 -4,12 -45,-8 -40,-19 -41,-20 -18,-68 17,-36 20,-37 68,-20 11,3 7,-1 -10,-11 -16,-9 -31,-18 -33,-19 -1,-1 16,-41 38,-89 43,-94 47,-111 26,-119 -10,-4 -37,45 -94,169 -63,136 -77,176 -66,181 18,7 18,19 -3,70 -10,24 -28,47 -42,53 -20,9 -23,16 -18,47 7,41 -27,133 -48,133 -21,0 -40,31 -37,61 2,15 -9,52 -24,83 l -27,55 27,41 c 14,22 44,52 66,66 43,29 54,42 18,23 -12,-7 -45,-34 -73,-60 l -50,-48 -19,45 c -10,24 -21,44 -26,44 -4,0 -4,18 0,41 9,46 36,80 99,120 25,16 41,29 35,29 -5,0 -32,-16 -61,-35 z m -36,-277 c -3,-8 -6,-5 -6,6 -1,11 2,17 5,13 3,-3 4,-12 1,-19 z m 353,-548 c 0,-24 -13,-37 -31,-33 -20,6 -23,12 -13,36 5,15 44,12 44,-3 z m 60,-140 c -8,-5 -19,-10 -25,-10 -5,0 -3,5 5,10 8,5 20,10 25,10 6,0 3,-5 -5,-10 z"
         id="path172"
         style="fill:#f9f9f9" /><path
         d="m 3266,7827 c -11,-8 -15,-17 -10,-20 14,-8 37,8 33,22 -3,8 -10,8 -23,-2 z"
         id="path174"
         style="fill:#f9f9f9" /><path
         d="m 3420,7828 c 0,-18 34,-98 41,-98 4,0 12,6 18,14 10,11 8,23 -9,55 -19,39 -50,56 -50,29 z"
         id="path176"
         style="fill:#f9f9f9" /><path
         d="m 3350,7780 c 0,-11 20,-51 39,-79 8,-12 12,-12 25,-2 14,12 13,17 -4,52 -14,25 -27,39 -40,39 -11,0 -20,-5 -20,-10 z"
         id="path178"
         style="fill:#f9f9f9" /><path
         d="m 3303,7734 c -7,-19 22,-84 37,-84 19,0 21,25 5,63 -16,39 -32,47 -42,21 z"
         id="path180"
         style="fill:#f9f9f9" /><path
         d="m 3494,7724 c -18,-14 -18,-14 6,-3 31,14 36,19 24,19 -6,0 -19,-7 -30,-16 z"
         id="path182"
         style="fill:#f9f9f9" /><path
         d="m 1550,7720 c -18,-11 -17,-12 52,-44 111,-52 283,-241 352,-386 28,-59 31,-74 31,-165 0,-55 -4,-124 -9,-154 -8,-49 -7,-53 10,-47 11,3 33,8 49,11 26,5 25,3 -13,-17 -48,-25 -48,-26 -9,-146 19,-59 24,-65 66,-85 26,-12 74,-51 110,-89 63,-65 81,-75 81,-40 0,9 5,24 10,32 7,12 13,11 35,-10 23,-22 26,-31 21,-66 -3,-25 -1,-46 7,-54 9,-10 9,-13 -1,-17 -6,-3 -10,-8 -8,-12 2,-3 -2,-33 -9,-65 -13,-57 -13,-58 5,-41 11,10 38,76 60,148 23,71 52,154 66,185 21,47 24,70 24,163 0,98 -3,119 -35,209 -19,55 -69,176 -112,268 l -79,167 -65,5 c -98,8 -121,28 -148,136 -16,61 -47,84 -128,95 -221,30 -336,36 -363,19 z"
         id="path184"
         style="fill:#f9f9f9" /><path
         d="m 3562,7717 c -7,-9 -5,-25 10,-58 15,-37 24,-46 39,-42 24,7 24,4 -6,63 -28,55 -28,55 -43,37 z"
         id="path186"
         style="fill:#f9f9f9" /><path
         d="m 3492,7687 c -7,-9 -5,-26 10,-60 22,-49 25,-52 46,-38 11,7 9,19 -12,60 -15,28 -28,51 -30,51 -2,0 -8,-6 -14,-13 z"
         id="path188"
         style="fill:#f9f9f9" /><path
         d="m 3425,7640 c -3,-5 3,-31 15,-57 19,-43 22,-46 37,-30 15,15 15,19 -2,57 -17,39 -37,51 -50,30 z"
         id="path190"
         style="fill:#f9f9f9" /><path
         d="m 3655,7610 c -3,-5 -1,-10 4,-10 6,0 11,5 11,10 0,6 -2,10 -4,10 -3,0 -8,-4 -11,-10 z"
         id="path192"
         style="fill:#f9f9f9" /><path
         d="m 3558,7569 c -93,-49 -161,-117 -156,-156 2,-15 9,-29 17,-31 10,-3 12,0 8,12 -17,45 46,117 147,166 36,18 66,37 66,41 0,12 6,14 -82,-32 z"
         id="path194"
         style="fill:#f9f9f9" /><path
         d="m 3375,7581 c -6,-20 19,-81 33,-81 22,0 29,23 16,50 -22,43 -41,55 -49,31 z"
         id="path196"
         style="fill:#f9f9f9" /><path
         d="m 3784,7585 c -4,-8 3,-37 14,-63 16,-35 26,-46 39,-44 27,6 27,6 -1,60 -29,57 -43,70 -52,47 z"
         id="path198"
         style="fill:#f9f9f9" /><path
         d="m 3711,7570 c -11,-6 -8,-19 12,-64 27,-58 35,-64 54,-45 9,9 6,24 -12,60 -28,54 -35,61 -54,49 z"
         id="path200"
         style="fill:#f9f9f9" /><path
         d="m 3630,7553 c 0,-25 47,-123 59,-123 23,0 22,26 -5,81 -27,57 -54,78 -54,42 z"
         id="path202"
         style="fill:#f9f9f9" /><path
         d="m 3573,7533 c -19,-7 -16,-28 12,-83 23,-46 42,-60 58,-44 6,6 -38,113 -51,125 -4,4 -13,4 -19,2 z"
         id="path204"
         style="fill:#f9f9f9" /><path
         d="m 3500,7472 c 0,-17 43,-112 50,-112 4,0 13,6 19,13 14,18 -26,101 -51,105 -10,2 -18,-1 -18,-6 z"
         id="path206"
         style="fill:#f9f9f9" /><path
         d="m 3450,7415 c 0,-23 39,-95 51,-95 20,0 20,29 -1,69 -20,40 -50,56 -50,26 z"
         id="path208"
         style="fill:#f9f9f9" /><path
         d="m 3640,7377 c -83,-41 -160,-113 -160,-150 0,-36 16,-34 23,3 9,44 63,96 147,140 90,47 82,52 -10,7 z"
         id="path210"
         style="fill:#f9f9f9" /><path
         d="m 3855,7391 c -5,-10 45,-121 55,-121 3,0 11,4 18,9 11,6 7,20 -14,64 -27,54 -45,69 -59,48 z"
         id="path212"
         style="fill:#f9f9f9" /><path
         d="m 3780,7381 c 0,-5 13,-39 30,-75 27,-61 50,-81 65,-57 10,17 -58,141 -77,141 -10,0 -18,-4 -18,-9 z"
         id="path214"
         style="fill:#f9f9f9" /><path
         d="m 3710,7355 c 0,-18 34,-88 62,-128 15,-21 23,-25 33,-17 11,9 8,24 -18,78 -17,37 -35,70 -41,74 -18,13 -36,9 -36,-7 z"
         id="path216"
         style="fill:#f9f9f9" /><path
         d="m 3640,7325 c 0,-9 16,-47 35,-85 25,-50 39,-68 50,-64 21,8 19,16 -20,94 -33,65 -65,92 -65,55 z"
         id="path218"
         style="fill:#f9f9f9" /><path
         d="m 3580,7278 c 0,-16 53,-137 60,-138 3,0 12,5 20,10 13,8 10,19 -18,75 -18,37 -38,65 -47,65 -8,0 -15,-6 -15,-12 z"
         id="path220"
         style="fill:#f9f9f9" /><path
         d="m 4749,7204 c -83,-137 -153,-235 -219,-308 -50,-54 -69,-83 -65,-95 4,-9 23,-82 43,-163 20,-81 40,-148 43,-148 3,0 94,87 202,193 l 198,192 -12,69 c -6,38 -20,94 -30,125 -24,69 -96,191 -112,191 -7,0 -29,-25 -48,-56 z"
         id="path222"
         style="fill:#f9f9f9" /><path
         d="m 3530,7220 c 0,-21 40,-110 49,-110 4,0 12,4 19,9 11,6 7,20 -14,64 -28,57 -54,75 -54,37 z"
         id="path224"
         style="fill:#f9f9f9" /><path
         d="m 3978,7216 c -16,-5 -28,-14 -28,-19 0,-4 -4,-5 -10,-2 -13,8 -13,-8 2,-40 16,-36 39,-33 32,5 -6,26 -4,30 15,30 14,0 21,-6 21,-20 0,-11 7,-20 15,-20 19,0 18,7 -3,46 -15,27 -20,29 -44,20 z"
         id="path226"
         style="fill:#f9f9f9" /><path
         d="m 3805,7189 c -11,-16 -1,-19 13,-3 7,8 8,14 3,14 -5,0 -13,-5 -16,-11 z"
         id="path228"
         style="fill:#f9f9f9" /><path
         d="m 3705,7140 c -84,-47 -79,-52 8,-9 69,35 72,37 66,43 -2,3 -36,-13 -74,-34 z"
         id="path230"
         style="fill:#f9f9f9" /><path
         d="m 3890,7172 c 0,-7 -4,-11 -8,-8 -5,3 -20,-3 -34,-12 l -25,-17 18,-42 c 10,-24 23,-43 28,-43 6,0 8,-6 5,-14 -3,-8 -1,-17 4,-20 12,-7 25,22 16,35 -3,5 -1,9 4,9 5,0 14,11 20,25 10,22 9,32 -8,63 -10,20 -19,31 -20,24 z m 14,-67 c -9,-22 -44,-19 -44,3 0,26 10,33 31,21 10,-5 16,-16 13,-24 z"
         id="path232"
         style="fill:#f9f9f9" /><path
         d="m 3734,7092 -31,-17 18,-44 c 12,-26 24,-41 32,-38 37,15 49,16 24,2 -16,-9 -27,-19 -25,-23 2,-4 10,-19 17,-34 8,-16 18,-28 23,-28 5,0 7,-4 3,-9 -3,-5 0,-21 7,-36 l 12,-26 17,33 c 24,44 23,51 -3,43 -22,-6 -22,-5 -3,6 11,7 21,13 22,14 7,4 -20,75 -28,75 -6,0 -7,5 -3,11 8,14 -25,89 -40,89 -6,-1 -25,-9 -42,-18 z m 44,-20 c 15,-10 5,-42 -13,-42 -18,0 -28,17 -21,35 6,17 15,18 34,7 z"
         id="path234"
         style="fill:#f9f9f9" /><path
         d="m 3256,6968 c -20,-32 -196,-443 -196,-459 0,-7 18,-39 40,-71 67,-94 84,-153 84,-293 1,-83 -5,-145 -18,-200 -29,-128 -76,-266 -92,-272 -19,-7 -68,38 -100,94 -40,67 -94,211 -114,301 -20,93 -21,95 -41,87 -25,-10 -178,-248 -220,-344 -38,-87 -40,-96 -27,-118 8,-13 126,-163 263,-334 138,-171 292,-370 344,-443 114,-160 179,-241 296,-370 108,-119 423,-416 441,-416 18,0 34,33 34,69 0,28 3,31 29,31 17,0 33,4 36,10 4,6 -10,10 -34,10 -23,0 -41,5 -41,10 0,11 12,13 48,10 12,-1 22,3 22,9 0,15 -29,41 -46,41 -8,0 -12,5 -9,11 6,9 -83,113 -103,121 -4,2 -10,-10 -14,-27 -5,-25 -6,-23 -6,15 1,41 -9,60 -120,226 -67,100 -138,212 -158,250 -21,38 -45,80 -54,94 -9,14 -33,64 -54,113 -43,102 -41,110 33,151 39,21 55,25 69,17 36,-19 100,-136 152,-276 71,-192 149,-354 159,-335 18,32 73,599 87,898 l 7,143 -52,-36 c -112,-75 -390,-136 -408,-89 -3,9 -1,53 6,97 7,45 15,172 18,282 8,293 -16,441 -124,750 -55,159 -94,248 -112,260 -6,3 -17,-5 -25,-17 z m 571,-2615 c -3,-10 -5,-4 -5,12 0,17 2,24 5,18 2,-7 2,-21 0,-30 z"
         id="path236"
         style="fill:#f9f9f9" /><path
         d="m 4440,6803 c 0,-6 -46,-53 -102,-104 -57,-52 -102,-100 -101,-109 1,-8 5,-34 9,-57 9,-61 -11,-54 -22,7 l -9,49 -90,-60 c -49,-33 -111,-72 -138,-87 -28,-16 -45,-32 -42,-40 2,-7 10,-125 17,-262 l 12,-248 27,13 c 21,12 29,12 37,2 6,-7 23,-80 37,-162 27,-153 123,-473 148,-493 10,-9 21,-6 45,11 l 32,22 v 298 c 0,191 4,297 10,297 11,0 17,-221 12,-445 l -2,-130 73,79 c 49,53 78,78 88,74 9,-3 30,-41 48,-84 38,-92 108,-214 122,-214 6,0 7,41 4,108 -2,59 -7,181 -10,272 -3,91 -10,210 -15,265 -14,140 -40,357 -46,377 -4,13 -18,1 -55,-49 -70,-92 -171,-203 -185,-203 -13,0 -24,110 -24,244 v 91 l 105,98 c 73,68 105,105 105,121 0,33 -69,309 -80,320 -7,7 -10,6 -10,-1 z"
         id="path244"
         style="fill:#f9f9f9" /><path
         d="m 4879,6553 c -69,-71 -161,-172 -204,-226 l -79,-99 18,-146 c 29,-240 45,-462 52,-717 7,-233 8,-241 30,-268 31,-37 30,-61 -1,-85 -24,-19 -25,-23 -25,-157 0,-88 -4,-134 -10,-130 -6,4 -10,59 -10,132 0,115 -1,125 -17,118 -73,-28 -228,-55 -315,-55 -54,0 -98,-4 -98,-9 0,-33 193,-197 288,-245 116,-58 126,-59 254,-19 125,39 171,67 261,162 42,44 71,89 107,163 56,118 68,165 77,292 7,104 7,104 -75,131 -102,33 -205,131 -266,252 -58,116 -72,278 -36,417 24,94 60,159 135,246 30,35 58,76 61,90 3,14 10,41 15,60 19,74 3,207 -26,217 -6,2 -67,-54 -136,-124 z"
         id="path250"
         style="fill:#f9f9f9" /><path
         d="m 5277,6569 c -114,-13 -120,-23 -59,-86 34,-35 46,-41 97,-46 124,-13 265,-116 332,-242 87,-165 95,-350 23,-531 -17,-41 -30,-85 -30,-97 0,-28 110,-439 121,-452 5,-5 9,1 9,16 0,13 7,103 15,199 31,359 35,454 19,466 -8,6 -14,21 -14,33 0,17 6,21 33,21 22,0 28,3 18,9 -8,5 -15,23 -16,40 -2,17 -10,42 -19,56 -25,37 -21,55 13,55 16,0 32,-6 34,-12 3,-7 6,2 6,20 2,53 21,36 21,-18 0,-57 36,-150 58,-150 10,0 13,-9 9,-32 -3,-23 9,-71 39,-156 23,-68 40,-130 37,-138 -8,-22 -28,-17 -62,19 l -32,32 5,-50 c 3,-27 13,-135 21,-240 20,-247 18,-239 63,-259 77,-34 648,-248 675,-253 16,-3 27,-1 27,6 0,21 -192,556 -204,567 -11,12 -67,30 -158,54 -55,14 -55,15 -116,219 -30,101 -37,133 -27,141 17,14 116,-38 189,-99 33,-28 61,-49 64,-47 9,9 -165,457 -202,520 -66,113 -321,356 -421,402 -82,38 -379,55 -568,33 z"
         id="path252"
         style="fill:#f9f9f9" /><path
         d="m 1606,6465 c -43,-36 -116,-93 -162,-127 -46,-33 -84,-66 -84,-71 0,-6 18,-7 46,-3 34,4 45,3 42,-7 -5,-16 -187,-137 -393,-259 C 814,5854 746,5807 656,5721 487,5559 378,5369 315,5132 l -35,-133 v -237 c 0,-236 6,-303 43,-462 9,-36 21,-78 28,-95 7,-16 14,-39 16,-50 7,-42 106,-229 170,-323 73,-108 89,-139 112,-226 23,-84 41,-85 41,-3 0,79 20,107 39,55 45,-123 139,-257 226,-319 26,-19 115,-70 198,-115 l 152,-81 3,141 3,142 85,21 c 66,16 87,18 90,8 3,-7 4,-103 2,-214 -2,-147 0,-202 9,-205 6,-3 202,-8 435,-11 365,-5 643,-20 766,-40 l 32,-6 v -69 c 0,-39 -2,-70 -5,-70 -13,0 -92,44 -111,62 -20,18 -28,18 -176,7 -172,-14 -362,-3 -501,27 -81,18 -82,18 -217,-23 -12,-4 -12,-6 4,-15 13,-8 35,-6 82,7 58,16 68,16 133,1 129,-30 318,-40 483,-27 l 149,11 42,-29 c 45,-30 123,-67 166,-78 42,-10 254,-16 250,-6 -9,21 -191,316 -261,423 l -78,119 -32,-10 c -18,-5 -36,-9 -40,-9 -4,0 -8,30 -10,68 -3,66 -4,67 -38,84 -19,9 -51,19 -70,22 -19,3 -51,10 -70,16 -19,5 -66,11 -105,12 -38,0 -54,3 -35,5 59,5 159,34 171,49 6,8 19,14 27,14 11,0 13,3 6,10 -6,6 -24,3 -50,-10 -133,-66 -502,-38 -558,42 -13,18 -15,18 -51,-6 -45,-31 -84,-42 -194,-57 -120,-16 -247,-8 -298,18 l -41,22 -41,-39 c -43,-41 -117,-70 -177,-70 -30,0 -94,40 -94,59 0,4 37,7 83,7 94,1 149,19 187,63 l 25,29 75,-10 c 116,-15 361,-4 445,20 66,19 74,20 130,5 104,-26 526,-30 500,-5 -4,4 -104,7 -223,8 -166,0 -231,4 -277,16 -56,16 -64,15 -130,-2 -80,-21 -407,-39 -390,-21 6,5 89,75 185,155 l 175,145 180,1 h 180 l 110,-103 c 113,-105 111,-98 -10,42 l -70,80 -227,1 h -228 v 50 50 h 176 c 114,0 173,3 169,10 -4,6 -58,10 -131,10 -105,0 -124,2 -124,15 0,9 7,60 16,115 l 17,98 -52,69 c -53,70 -71,114 -71,171 0,40 22,62 114,116 36,21 70,43 75,50 5,6 16,54 25,106 23,131 23,129 34,185 6,27 8,53 6,57 -3,5 0,8 5,8 6,0 12,-6 12,-12 3,-31 41,-252 44,-256 2,-2 277,123 410,187 33,16 78,35 100,41 76,23 160,60 189,83 39,31 28,49 -71,122 -110,81 -240,212 -254,254 -7,19 -25,55 -41,80 -34,54 -55,120 -68,216 -12,81 -28,135 -40,135 -22,0 -62,-76 -140,-266 -37,-92 -98,-191 -141,-231 -36,-33 -73,-43 -159,-43 -80,0 -110,12 -110,45 0,22 90,192 143,271 27,40 49,80 49,90 1,11 -20,72 -46,137 -25,64 -49,139 -53,165 -3,26 -13,55 -22,66 -20,23 -28,161 -12,207 9,27 7,40 -20,95 -16,35 -35,64 -42,64 -7,0 -47,-30 -91,-65 z m 644,-840 c 1,6 5,1 10,-10 7,-18 8,-18 15,8 4,15 12,27 17,27 6,0 7,-7 4,-16 -3,-9 4,-24 19,-38 l 25,-23 -25,-23 c -27,-26 -26,-41 2,-19 15,12 15,11 -1,-13 -10,-16 -23,-28 -30,-28 -6,0 -4,-5 4,-10 10,-6 21,-4 34,8 11,9 16,11 12,5 -4,-7 -3,-13 1,-13 5,0 14,12 20,28 l 12,27 -6,-29 c -4,-18 -2,-27 4,-23 15,9 9,-32 -7,-46 -11,-9 -10,-7 0,7 13,17 13,19 0,14 -8,-2 -16,-14 -16,-26 -1,-25 6,-28 24,-10 6,6 14,9 18,6 3,-4 -13,-19 -35,-34 -23,-14 -41,-33 -41,-40 0,-19 15,-18 31,2 12,14 15,12 25,-17 11,-31 13,-32 13,-9 1,19 3,22 10,10 6,-8 8,-17 5,-21 -2,-4 1,-9 8,-11 7,-3 -2,-13 -20,-23 -37,-22 -43,-40 -9,-29 22,7 22,6 3,-15 -11,-11 -16,-24 -13,-27 8,-8 -20,-36 -52,-51 -25,-11 -25,-12 11,-9 21,2 43,8 50,14 9,7 16,6 25,-3 9,-10 6,-18 -13,-36 -15,-14 -24,-18 -24,-9 0,7 -2,11 -5,8 -3,-3 -3,-12 1,-21 5,-14 11,-13 42,10 l 37,27 -30,-33 -30,-33 25,6 c 21,5 22,5 5,-4 -11,-5 -36,-16 -55,-25 -34,-15 -34,-15 -5,-10 l 30,6 -25,-21 c -14,-11 -37,-20 -52,-20 -16,0 -28,-5 -28,-11 0,-5 3,-8 8,-5 4,2 16,-2 26,-10 18,-13 18,-14 -6,-23 -14,-5 -35,-7 -47,-4 -16,4 -21,1 -21,-16 0,-23 -16,-29 -23,-8 -3,9 -13,7 -38,-7 -23,-14 -30,-15 -22,-5 18,22 5,59 -21,60 -11,1 -24,1 -28,0 -5,0 -8,4 -8,10 0,7 10,9 25,5 14,-4 25,-2 25,4 0,5 -9,10 -20,10 -10,0 -24,9 -30,19 -5,11 -19,22 -30,26 -15,5 -19,14 -18,40 1,31 3,33 15,17 12,-16 13,-15 8,3 -3,11 1,7 8,-9 13,-27 14,-27 20,-7 4,18 10,21 31,15 38,-9 32,3 -14,26 -44,23 -51,31 -18,22 14,-3 19,-2 14,6 -4,7 -14,12 -22,12 -9,0 -12,5 -8,12 5,7 2,9 -9,5 -11,-4 -15,-1 -12,14 2,11 -4,23 -16,29 -10,6 -19,18 -19,27 0,13 3,13 15,3 11,-9 15,-9 15,-1 0,7 4,10 9,7 5,-4 12,0 14,6 3,7 6,-7 8,-32 l 2,-45 6,35 7,35 17,-35 c 16,-34 16,-35 11,-5 l -5,30 14,-30 c 8,-16 20,-41 26,-55 l 11,-25 -5,28 c -3,15 -1,36 5,47 8,14 8,20 0,20 -11,0 -23,8 -72,53 -34,29 -33,32 6,17 33,-12 34,3 1,18 -22,10 -30,23 -22,37 1,2 -7,11 -18,20 -11,9 -15,14 -8,10 8,-3 15,4 19,19 7,27 30,41 40,24 4,-7 3,-8 -4,-4 -17,10 -14,-3 8,-49 16,-32 19,-35 20,-17 0,16 4,21 13,16 6,-4 2,4 -11,18 -12,13 -20,27 -16,30 3,4 -3,19 -13,34 -10,16 -12,25 -5,21 8,-6 12,1 13,25 2,33 2,33 10,-7 7,-38 8,-37 5,12 -2,29 0,50 5,48 4,-3 10,1 13,7 5,11 7,11 12,0 3,-6 10,-10 15,-6 5,3 5,12 0,23 -11,20 2,47 18,37 6,-4 14,0 18,10 5,14 8,13 19,-7 7,-13 14,-19 14,-14 z M 1192,5305 c 11,-7 -23,-10 -105,-10 -141,0 -188,-11 -301,-69 -128,-66 -244,-210 -292,-361 -8,-27 -17,-96 -19,-153 -4,-98 -3,-103 16,-97 22,7 26,-10 4,-19 -20,-7 -19,-24 6,-85 16,-37 27,-51 42,-51 16,0 17,-3 7,-15 -20,-24 -2,-54 85,-139 101,-101 211,-162 305,-171 56,-5 61,-4 70,17 7,19 9,20 9,4 1,-11 6,-16 15,-13 8,3 17,1 20,-6 5,-9 7,-9 12,1 3,6 11,9 16,6 25,-15 81,-4 116,24 21,16 52,29 71,30 19,2 49,10 68,19 41,19 169,146 179,176 4,12 17,33 30,46 14,14 38,67 58,130 31,97 34,114 29,196 -4,90 -26,190 -44,200 -12,8 -12,35 1,35 6,0 10,-7 10,-15 0,-8 4,-15 8,-15 10,0 29,-57 39,-121 10,-57 9,-193 -1,-244 -9,-46 -77,-191 -117,-251 -36,-53 -135,-151 -161,-160 -11,-3 -35,-16 -54,-29 -18,-12 -60,-31 -94,-41 -33,-10 -60,-21 -60,-26 0,-4 -6,-5 -14,-2 -8,3 -36,1 -64,-4 -111,-20 -314,52 -430,154 -61,54 -71,51 -132,-31 -31,-43 -48,-56 -76,-61 -19,-3 -45,-2 -57,4 -19,9 -16,11 22,11 45,1 57,10 131,98 14,16 31,32 39,34 10,4 3,20 -25,62 -22,31 -42,57 -45,57 -3,0 -19,-20 -34,-44 -15,-24 -39,-49 -52,-55 -30,-14 -80,-14 -88,-1 -4,6 8,10 30,10 49,0 69,12 106,66 31,45 31,47 16,82 -9,21 -19,47 -22,60 -8,27 -22,29 -30,2 -11,-35 -63,-70 -103,-69 l -37,1 49,16 c 40,14 55,26 77,62 26,42 27,50 21,125 l -7,79 -25,-33 c -49,-64 -79,-91 -102,-91 -20,0 -19,2 10,17 18,9 44,35 58,60 15,24 34,49 43,56 20,14 37,56 47,110 3,20 10,40 15,43 5,3 9,15 9,27 0,12 18,47 40,77 22,30 52,73 67,95 47,70 221,170 333,192 72,14 236,12 262,-2 z m 58,-25 c 0,-5 -7,-7 -15,-4 -8,4 -15,8 -15,10 0,2 7,4 15,4 8,0 15,-4 15,-10 z m 58,-16 c 20,-9 32,-18 25,-21 -11,-4 -73,23 -73,32 0,8 9,6 48,-11 z m 94,-50 c 21,-15 38,-31 38,-36 0,-13 -83,36 -88,51 -6,18 9,13 50,-15 z m -343,-27 c -1,-18 -3,-24 -6,-14 -7,26 -43,22 -44,-5 -1,-16 -4,-12 -9,12 -5,19 -7,37 -4,39 2,2 4,-1 4,-7 0,-7 9,-12 20,-12 11,0 20,7 20,16 0,8 5,12 10,9 6,-3 9,-21 9,-38 z m 54,36 c -24,-5 -32,-22 -10,-24 10,0 10,-2 0,-6 -7,-2 -13,-11 -13,-19 0,-8 -4,-14 -10,-14 -11,0 -14,53 -3,63 3,4 18,6 32,6 24,-2 24,-2 4,-6 z m -151,-12 c -8,-5 -11,-19 -8,-37 l 6,-29 -12,28 c -7,15 -19,27 -27,27 -14,0 -14,1 -1,10 8,5 24,10 35,10 14,0 16,-3 7,-9 z m 248,-16 c 0,-18 5,-18 30,-5 15,8 19,5 24,-16 7,-25 8,-26 26,-9 24,22 27,9 3,-17 -20,-22 -43,-24 -43,-3 0,18 -5,18 -30,5 -15,-8 -18,-5 -22,25 -2,19 0,35 4,35 4,0 8,-7 8,-15 z m -350,-34 c 14,-27 13,-37 -6,-55 -22,-22 -27,-20 -48,15 -17,29 -17,31 1,44 25,20 41,18 53,-4 z m 478,-9 c -19,-4 -33,-36 -22,-53 4,-8 3,-9 -4,-5 -16,10 -15,27 4,54 9,13 20,19 27,15 8,-5 7,-9 -5,-11 z m 163,-19 c 39,-42 76,-97 61,-92 -12,5 -112,114 -112,123 0,15 18,3 51,-31 z m -121,-5 c 0,-14 -30,-48 -42,-48 -4,0 1,9 13,21 11,11 18,27 15,35 -3,9 -1,12 4,9 6,-3 10,-11 10,-17 z m -570,-40 c 0,-5 -19,-6 -42,-4 -49,4 -65,26 -19,26 24,0 29,3 25,18 -4,11 1,8 15,-8 11,-14 21,-28 21,-32 z m 625,12 c 14,-16 15,-22 5,-35 -7,-8 -16,-13 -20,-10 -5,3 -11,-3 -13,-12 -3,-13 -5,-12 -6,6 -1,16 -5,21 -16,17 -19,-7 -19,4 1,32 19,27 26,27 49,2 z m -698,-74 c -10,-26 -36,-30 -57,-11 -11,10 -18,20 -15,23 3,3 14,-3 25,-13 31,-28 47,-6 24,31 l -17,29 23,-22 c 14,-13 20,-28 17,-37 z m 29,27 c -7,-7 -26,7 -26,19 0,6 6,6 15,-2 9,-7 13,-15 11,-17 z m 698,-7 c -3,-8 -12,-17 -20,-20 -13,-5 -12,-10 2,-33 l 16,-28 -20,25 -21,25 21,22 c 25,27 29,28 22,9 z m -796,-42 c 25,-18 27,-31 7,-58 -12,-16 -19,-18 -40,-8 -27,12 -31,32 -15,63 13,23 19,24 48,3 z m 877,-35 c 13,-24 14,-34 4,-45 -16,-19 -44,-18 -60,4 -13,15 -12,16 3,3 23,-17 48,-7 48,18 0,29 -16,34 -47,15 l -28,-16 28,26 c 15,14 30,26 32,26 3,0 12,-14 20,-31 z m 598,-24 c 0,-6 -7,-11 -16,-13 -12,-3 -15,1 -11,13 7,17 25,17 27,0 z M 622,4892 c -15,-11 -15,-14 -2,-22 22,-14 -4,-12 -35,2 -19,9 -24,16 -19,32 13,43 26,49 50,24 20,-21 21,-24 6,-36 z m 789,11 c 9,-21 20,-57 24,-80 3,-23 13,-44 22,-47 13,-5 13,-9 2,-23 -8,-9 -14,-30 -14,-46 0,-41 -24,-47 -31,-8 -4,17 -12,31 -18,32 -43,3 -102,11 -105,15 -6,6 90,194 99,194 3,0 13,-17 21,-37 z m -283,-30 c -8,-10 -18,-26 -21,-35 -10,-28 -27,-21 -27,11 0,19 8,35 22,45 29,20 48,4 26,-21 z m 94,20 c 9,-10 18,-35 22,-55 5,-30 3,-41 -14,-58 -22,-22 -45,-26 -55,-9 -4,6 2,13 13,16 25,6 32,21 25,57 -4,17 -15,31 -29,36 -13,5 -24,14 -24,20 0,17 46,11 62,-7 z m -210,-26 c 20,-16 28,-33 30,-61 4,-54 -17,-57 -28,-4 -9,41 -11,43 -50,46 -48,4 -66,-13 -68,-61 -1,-45 -19,-45 -29,0 -13,61 18,90 108,102 6,0 22,-9 37,-22 z m -205,-39 c 18,-22 23,-78 10,-98 -12,-21 -67,-29 -67,-10 0,6 6,10 14,10 39,0 40,73 0,94 -10,6 -21,12 -24,14 -2,2 2,7 10,12 15,9 40,0 57,-22 z m -82,13 c 3,-6 -1,-13 -8,-18 -8,-4 -19,-18 -26,-30 -15,-29 -31,-29 -31,-1 0,38 48,75 65,49 z m -118,-12 c -14,-8 -17,-18 -12,-36 6,-26 -2,-25 -37,5 -31,26 -22,42 25,42 34,-1 39,-2 24,-11 z m 553,-59 c 0,-5 -9,-14 -21,-20 -16,-9 -19,-17 -14,-40 4,-17 2,-31 -6,-35 -25,-16 -39,48 -19,86 11,19 60,27 60,9 z m -106,-42 c 10,-39 7,-73 -10,-96 -12,-18 -25,-22 -68,-22 -63,0 -82,16 -92,79 -6,35 -4,43 7,39 8,-2 16,-18 17,-34 5,-44 28,-64 66,-57 48,9 59,22 53,64 -3,21 -2,40 1,43 11,11 20,6 26,-16 z m -314,-11 c 0,-7 -9,-18 -20,-25 -15,-9 -18,-19 -14,-41 4,-17 1,-32 -6,-36 -16,-10 -21,-2 -27,43 -4,33 -2,42 18,56 28,19 49,21 49,3 z m 524,-56 c 8,-13 -15,-19 -90,-27 -55,-6 -66,-5 -62,7 7,21 141,39 152,20 z m -424,-55 c 0,-17 -16,-23 -91,-31 -36,-5 -59,-3 -63,4 -8,13 18,20 147,40 4,0 7,-5 7,-13 z m 615,-25 c 6,-27 9,-29 43,-25 l 37,5 -28,-24 c -28,-24 -28,-25 -13,-60 16,-40 13,-43 -24,-22 -34,19 -37,19 -67,-12 l -26,-28 7,46 c 6,44 5,47 -19,53 -38,10 -30,26 14,26 38,0 39,1 46,40 8,45 20,45 30,1 z M 790,4469 c 20,-15 36,-20 54,-15 27,7 47,-10 23,-20 -25,-9 -28,-46 -6,-67 25,-24 15,-39 -24,-35 -26,2 -32,-1 -37,-22 -8,-36 -42,-38 -57,-3 -7,15 -13,33 -13,41 0,7 -8,12 -17,10 -10,-2 -26,5 -36,15 -10,10 -23,15 -29,11 -7,-5 -8,-3 -4,5 5,7 14,10 22,7 8,-3 14,0 14,6 0,7 4,7 13,0 18,-15 57,4 57,27 0,11 -4,22 -10,26 -11,7 -2,35 11,35 6,0 23,-10 39,-21 z m 479,-1 c -4,-35 3,-50 31,-59 17,-6 30,-15 30,-19 0,-5 -13,-11 -30,-15 -27,-6 -30,-10 -30,-46 0,-46 -20,-53 -39,-13 -11,24 -15,26 -51,20 -45,-7 -49,-2 -19,30 l 21,23 -21,30 c -25,35 -16,45 29,28 30,-11 34,-10 47,11 17,24 35,30 32,10 z m -283,-49 c 8,-14 36,-10 56,8 24,21 32,12 17,-20 -11,-23 -9,-29 12,-46 13,-11 27,-20 32,-21 4,0 7,-7 7,-15 0,-10 -10,-15 -30,-15 -24,0 -30,-4 -30,-21 0,-27 -18,-59 -33,-59 -7,0 -19,15 -27,33 -8,17 -21,31 -28,30 -6,-2 -12,2 -12,7 0,6 -9,10 -20,10 -26,0 -25,6 5,42 27,32 30,43 15,53 -5,3 -10,12 -10,20 0,14 36,10 46,-6 z m 908,-838 c 26,-29 97,-59 152,-66 26,-3 50,-8 53,-10 2,-3 -137,-5 -310,-6 -173,0 -321,-2 -329,-4 -16,-3 -60,-12 -100,-20 -92,-18 -90,-16 -90,-76 0,-57 1,-57 -95,-29 -46,13 -80,30 -100,50 l -30,30 h 45 c 57,0 124,31 171,76 34,33 39,35 60,23 58,-33 95,-38 209,-34 63,2 127,6 142,9 52,8 134,36 163,55 38,25 38,25 59,2 z m 464,-318 -3,-208 h -50 -50 l -5,100 c -6,115 -20,148 -75,171 -44,18 -86,18 -130,0 -55,-23 -69,-56 -75,-170 l -5,-101 -109,-3 -109,-3 27,35 c 39,52 37,119 -6,163 -27,28 -39,33 -79,33 -44,0 -50,-3 -83,-44 -46,-55 -50,-110 -11,-146 14,-13 25,-27 25,-32 0,-5 -24,-8 -52,-6 l -53,3 -3,208 -2,207 h 425 425 z m 82,198 c 19,-5 61,-15 93,-21 l 57,-11 v -200 -199 l -62,6 c -35,4 -79,9 -98,13 l -35,7 -3,207 c -1,114 1,207 5,207 5,0 24,-4 43,-9 z"
         id="path254"
         style="fill:#f9f9f9" /><path
         d="m 2280,5579 c 0,-5 5,-7 10,-4 6,3 10,8 10,11 0,2 -4,4 -10,4 -5,0 -10,-5 -10,-11 z"
         id="path256"
         style="fill:#f9f9f9" /><path
         d="m 2257,5563 c -4,-3 -7,-11 -7,-17 0,-6 5,-5 12,2 6,6 9,14 7,17 -3,3 -9,2 -12,-2 z"
         id="path258"
         style="fill:#f9f9f9" /><path
         d="m 2150,5500 c 0,-8 8,-24 16,-35 16,-19 16,-19 9,5 -9,31 -25,50 -25,30 z"
         id="path260"
         style="fill:#f9f9f9" /><path
         d="m 2196,5447 c 3,-10 9,-15 12,-12 3,3 0,11 -7,18 -10,9 -11,8 -5,-6 z"
         id="path262"
         style="fill:#f9f9f9" /><path
         d="m 2231,5434 c 0,-11 3,-14 6,-6 3,7 2,16 -1,19 -3,4 -6,-2 -5,-13 z"
         id="path264"
         style="fill:#f9f9f9" /><path
         d="m 2256,5435 c 4,-8 8,-15 10,-15 2,0 4,7 4,15 0,8 -4,15 -10,15 -5,0 -7,-7 -4,-15 z"
         id="path266"
         style="fill:#f9f9f9" /><path
         d="m 2285,5440 c 3,-5 8,-10 11,-10 2,0 4,5 4,10 0,6 -5,10 -11,10 -5,0 -7,-4 -4,-10 z"
         id="path268"
         style="fill:#f9f9f9" /><path
         d="m 2150,5351 c 0,-5 5,-13 10,-16 6,-3 10,-2 10,4 0,5 -4,13 -10,16 -5,3 -10,2 -10,-4 z"
         id="path270"
         style="fill:#f9f9f9" /><path
         d="m 2280,5350 c -8,-5 -12,-11 -9,-14 2,-3 11,-1 19,4 8,5 12,11 9,14 -2,3 -11,1 -19,-4 z"
         id="path272"
         style="fill:#f9f9f9" /><path
         d="m 2303,5318 c -13,-6 -23,-15 -23,-20 0,-14 16,-9 41,12 26,21 17,25 -18,8 z"
         id="path274"
         style="fill:#f9f9f9" /><path
         d="m 2180,5209 c 0,-11 5,-17 10,-14 6,3 10,-2 10,-11 0,-10 3,-15 6,-11 9,9 -5,57 -16,57 -6,0 -10,-9 -10,-21 z"
         id="path276"
         style="fill:#f9f9f9" /><path
         d="m 2300,5190 c -8,-5 -10,-10 -5,-10 6,0 17,5 25,10 8,5 11,10 5,10 -5,0 -17,-5 -25,-10 z"
         id="path278"
         style="fill:#f9f9f9" /><path
         d="m 2106,5095 c 4,-8 8,-15 10,-15 2,0 4,7 4,15 0,8 -4,15 -10,15 -5,0 -7,-7 -4,-15 z"
         id="path280"
         style="fill:#f9f9f9" /><path
         d="m 2150,5073 c 0,-5 10,-21 21,-38 20,-28 21,-29 15,-5 -3,14 -6,31 -6,38 0,6 -7,12 -15,12 -8,0 -15,-3 -15,-7 z"
         id="path282"
         style="fill:#f9f9f9" /><path
         d="m 2191,5068 c 1,-7 5,-24 9,-38 7,-22 8,-21 9,13 1,20 -3,37 -9,37 -5,0 -10,-6 -9,-12 z"
         id="path284"
         style="fill:#f9f9f9" /><path
         d="m 2232,5060 c 0,-14 2,-19 5,-12 2,6 2,18 0,25 -3,6 -5,1 -5,-13 z"
         id="path286"
         style="fill:#f9f9f9" /><path
         d="m 2270,5049 c 0,-5 5,-7 10,-4 6,3 10,8 10,11 0,2 -4,4 -10,4 -5,0 -10,-5 -10,-11 z"
         id="path288"
         style="fill:#f9f9f9" /><path
         d="m 2160,4971 c 0,-6 5,-13 10,-16 6,-3 10,1 10,9 0,9 -4,16 -10,16 -5,0 -10,-4 -10,-9 z"
         id="path290"
         style="fill:#f9f9f9" /><path
         d="m 810,5151 c 0,-20 13,-41 25,-41 18,0 26,15 19,34 -6,17 -44,23 -44,7 z"
         id="path292"
         style="fill:#f9f9f9" /><path
         d="m 1400,5091 c 0,-14 18,-23 31,-15 8,4 7,9 -2,15 -18,11 -29,11 -29,0 z"
         id="path294"
         style="fill:#f9f9f9" /><path
         d="m 623,4984 c -4,-11 1,-22 12,-31 16,-11 21,-11 34,1 12,12 12,18 1,30 -16,21 -39,20 -47,0 z"
         id="path296"
         style="fill:#f9f9f9" /><path
         d="m 586,4923 c -9,-9 -7,-33 3,-33 12,0 22,28 12,34 -5,3 -11,3 -15,-1 z"
         id="path298"
         style="fill:#f9f9f9" /><path
         d="m 2446,3228 c -25,-35 -20,-108 9,-140 52,-60 115,-19 115,74 0,34 -6,50 -23,66 -31,29 -81,29 -101,0 z"
         id="path300"
         style="fill:#f9f9f9" /><path
         d="m 3830,6349 c -52,-33 -99,-59 -105,-59 -5,0 -22,-10 -36,-23 l -26,-22 8,-100 c 5,-55 12,-165 16,-245 7,-127 10,-145 26,-148 9,-2 67,25 128,60 l 111,63 -7,220 c -3,121 -9,241 -13,266 l -7,46 z"
         id="path302"
         style="fill:#f9f9f9" /><path
         d="m 5185,6221 c -22,-10 -52,-32 -67,-48 -27,-28 -60,-114 -53,-136 2,-7 9,-31 15,-54 7,-28 33,-70 76,-120 36,-43 74,-95 85,-115 11,-21 21,-38 24,-38 3,0 13,17 24,38 11,21 49,73 84,115 74,87 91,127 85,203 -11,128 -155,210 -273,155 z m 141,-115 c 37,-37 42,-62 19,-105 -17,-33 -33,-41 -83,-41 -125,1 -118,175 7,179 14,1 37,-13 57,-33 z"
         id="path308"
         style="fill:#f9f9f9" /><path
         d="m 5832,5789 c 2,-6 8,-10 13,-10 5,0 11,4 13,10 2,6 -4,11 -13,11 -9,0 -15,-5 -13,-11 z"
         id="path328"
         style="fill:#f9f9f9" /><path
         d="m 5129,5700 c -25,-25 -28,-33 -19,-50 28,-52 123,-79 215,-60 93,19 129,66 85,110 -24,24 -42,26 -34,5 23,-58 -144,-87 -197,-34 -15,15 -17,24 -9,39 16,31 -6,25 -41,-10 z"
         id="path332"
         style="fill:#f9f9f9" /><path
         d="m 3967,5641 c -4,-18 -7,-64 -7,-101 0,-98 -26,-420 -56,-683 l -26,-228 27,-39 c 15,-21 51,-65 81,-98 63,-70 157,-120 323,-174 l 103,-33 50,54 c 75,82 83,97 68,126 -11,20 -11,27 0,40 7,8 11,16 9,18 -2,1 -35,18 -74,37 -98,49 -260,209 -303,300 -53,110 -120,375 -148,584 -9,61 -21,138 -28,171 -11,58 -12,59 -19,26 z"
         id="path336"
         style="fill:#f9f9f9" /><path
         d="m 5470,5429 c -25,-15 -74,-36 -110,-45 -36,-9 -68,-21 -72,-28 -11,-16 -10,-126 2,-231 12,-105 98,-370 210,-650 39,-99 73,-181 75,-183 2,-3 66,192 91,279 3,11 -3,18 -17,22 -31,8 -20,41 16,47 24,4 31,12 38,42 7,29 3,51 -18,110 -50,138 -114,421 -130,573 -11,108 -14,110 -85,64 z"
         id="path340"
         style="fill:#f9f9f9" /><path
         d="m 5895,5410 c 4,-6 11,-8 16,-5 14,9 11,15 -7,15 -8,0 -12,-5 -9,-10 z"
         id="path342"
         style="fill:#f9f9f9" /><path
         d="m 5800,5334 c 0,-8 5,-12 10,-9 6,4 8,11 5,16 -9,14 -15,11 -15,-7 z"
         id="path346"
         style="fill:#f9f9f9" /><path
         d="m 5920,5330 c 0,-5 5,-10 10,-10 6,0 10,5 10,10 0,6 -4,10 -10,10 -5,0 -10,-4 -10,-10 z"
         id="path348"
         style="fill:#f9f9f9" /><path
         d="m 5820,5290 c 0,-5 5,-10 11,-10 5,0 7,5 4,10 -3,6 -8,10 -11,10 -2,0 -4,-4 -4,-10 z"
         id="path354"
         style="fill:#f9f9f9" /><path
         d="m 5900,5290 c 0,-5 5,-10 11,-10 5,0 7,5 4,10 -3,6 -8,10 -11,10 -2,0 -4,-4 -4,-10 z"
         id="path356"
         style="fill:#f9f9f9" /><path
         d="m 5845,5271 c -3,-5 -1,-12 5,-16 5,-3 10,1 10,9 0,18 -6,21 -15,7 z"
         id="path358"
         style="fill:#f9f9f9" /><path
         d="m 5872,5271 c 2,-7 7,-12 11,-12 12,1 9,15 -3,20 -7,2 -11,-2 -8,-8 z"
         id="path360"
         style="fill:#f9f9f9" /><path
         d="m 5925,5270 c -3,-5 -1,-10 4,-10 6,0 11,5 11,10 0,6 -2,10 -4,10 -3,0 -8,-4 -11,-10 z"
         id="path362"
         style="fill:#f9f9f9" /><path
         d="m 5818,5243 c 7,-3 16,-2 19,1 4,3 -2,6 -13,5 -11,0 -14,-3 -6,-6 z"
         id="path364"
         style="fill:#f9f9f9" /><path
         d="m 5818,5213 c 7,-3 16,-2 19,1 4,3 -2,6 -13,5 -11,0 -14,-3 -6,-6 z"
         id="path366"
         style="fill:#f9f9f9" /><path
         d="m 5908,5213 c 7,-3 16,-2 19,1 4,3 -2,6 -13,5 -11,0 -14,-3 -6,-6 z"
         id="path368"
         style="fill:#f9f9f9" /><path
         d="m 5790,5194 c 0,-8 5,-12 10,-9 6,4 8,11 5,16 -9,14 -15,11 -15,-7 z"
         id="path370"
         style="fill:#f9f9f9" /><path
         d="m 5844,5199 c -3,-6 -1,-16 5,-22 8,-8 11,-5 11,11 0,24 -5,28 -16,11 z"
         id="path372"
         style="fill:#f9f9f9" /><path
         d="m 5874,5193 c 2,-10 7,-17 12,-15 13,3 11,25 -3,29 -6,2 -10,-4 -9,-14 z"
         id="path374"
         style="fill:#f9f9f9" /><path
         d="m 5936,5201 c -4,-7 -5,-15 -2,-18 9,-9 19,4 14,18 -4,11 -6,11 -12,0 z"
         id="path376"
         style="fill:#f9f9f9" /><path
         d="m 5805,5170 c -3,-5 3,-10 15,-10 12,0 18,5 15,10 -3,6 -10,10 -15,10 -5,0 -12,-4 -15,-10 z"
         id="path378"
         style="fill:#f9f9f9" /><path
         d="m 5900,5170 c 0,-5 9,-10 21,-10 11,0 17,5 14,10 -3,6 -13,10 -21,10 -8,0 -14,-4 -14,-10 z"
         id="path380"
         style="fill:#f9f9f9" /><path
         d="m 5805,5140 c 3,-5 13,-10 21,-10 8,0 14,5 14,10 0,6 -9,10 -21,10 -11,0 -17,-4 -14,-10 z"
         id="path384"
         style="fill:#f9f9f9" /><path
         d="m 5895,5140 c 3,-5 12,-10 20,-10 8,0 17,5 20,10 4,6 -5,10 -20,10 -15,0 -24,-4 -20,-10 z"
         id="path386"
         style="fill:#f9f9f9" /><path
         d="m 5780,5115 c 0,-8 5,-15 10,-15 6,0 10,7 10,15 0,8 -4,15 -10,15 -5,0 -10,-7 -10,-15 z"
         id="path390"
         style="fill:#f9f9f9" /><path
         d="m 5837,5124 c -8,-8 1,-24 14,-24 5,0 9,7 9,15 0,15 -12,20 -23,9 z"
         id="path392"
         style="fill:#f9f9f9" /><path
         d="m 5876,5116 c 3,-9 11,-16 16,-16 13,0 5,23 -10,28 -7,2 -10,-2 -6,-12 z"
         id="path394"
         style="fill:#f9f9f9" /><path
         d="m 5936,5122 c -3,-6 -1,-14 5,-17 14,-9 20,-2 10,14 -6,8 -11,9 -15,3 z"
         id="path396"
         style="fill:#f9f9f9" /><path
         d="m 5805,5090 c -3,-5 3,-10 15,-10 12,0 18,5 15,10 -3,6 -10,10 -15,10 -5,0 -12,-4 -15,-10 z"
         id="path398"
         style="fill:#f9f9f9" /><path
         d="m 5905,5090 c -3,-5 3,-10 15,-10 12,0 18,5 15,10 -3,6 -10,10 -15,10 -5,0 -12,-4 -15,-10 z"
         id="path400"
         style="fill:#f9f9f9" /><path
         d="m 5795,5060 c 3,-5 13,-10 21,-10 8,0 14,5 14,10 0,6 -9,10 -21,10 -11,0 -17,-4 -14,-10 z"
         id="path404"
         style="fill:#f9f9f9" /><path
         d="m 5910,5060 c 0,-5 7,-10 15,-10 8,0 15,5 15,10 0,6 -7,10 -15,10 -8,0 -15,-4 -15,-10 z"
         id="path406"
         style="fill:#f9f9f9" /><path
         d="m 5781,5034 c 0,-11 3,-14 6,-6 3,7 2,16 -1,19 -3,4 -6,-2 -5,-13 z"
         id="path408"
         style="fill:#f9f9f9" /><path
         d="m 5836,5041 c -4,-7 -5,-15 -2,-18 9,-9 19,4 14,18 -4,11 -6,11 -12,0 z"
         id="path410"
         style="fill:#f9f9f9" /><path
         d="m 5882,5036 c 1,-10 8,-17 13,-17 15,1 12,24 -3,29 -9,3 -13,-2 -10,-12 z"
         id="path412"
         style="fill:#f9f9f9" /><path
         d="m 5795,5010 c -3,-5 3,-10 15,-10 12,0 18,5 15,10 -3,6 -10,10 -15,10 -5,0 -12,-4 -15,-10 z"
         id="path416"
         style="fill:#f9f9f9" /><path
         d="m 5795,4980 c -3,-5 1,-10 9,-10 9,0 16,5 16,10 0,6 -4,10 -9,10 -6,0 -13,-4 -16,-10 z"
         id="path420"
         style="fill:#f9f9f9" /><path
         d="m 5824,4959 c -3,-6 -2,-15 4,-21 6,-6 11,-2 15,11 5,22 -7,29 -19,10 z"
         id="path422"
         style="fill:#f9f9f9" /><path
         d="m 5216,4922 c -22,-43 -39,-158 -33,-221 5,-41 21,-84 61,-161 30,-58 75,-160 99,-227 73,-197 96,-243 123,-243 12,0 25,6 27,13 3,6 6,-5 6,-25 1,-28 -3,-38 -14,-38 -26,0 -16,-19 18,-34 28,-13 29,-14 9,-15 l -24,-1 23,-37 c 37,-63 42,-63 37,0 l -5,57 46,2 c 39,1 41,2 11,5 -53,6 -80,23 -80,52 0,23 1,24 13,6 13,-17 14,-16 20,15 4,17 4,37 0,44 -4,6 -8,13 -9,16 0,3 -22,50 -49,105 -40,84 -197,533 -234,673 -14,49 -25,53 -45,14 z"
         id="path424"
         style="fill:#f9f9f9" /><path
         d="m 2585,4841 c -115,-54 -281,-132 -368,-174 l -158,-76 6,-33 c 3,-18 16,-97 29,-174 l 22,-142 84,-93 c 46,-52 166,-177 265,-279 99,-102 211,-218 248,-257 66,-72 67,-73 117,-73 38,0 50,-4 50,-15 0,-9 -12,-18 -30,-21 -44,-9 -38,-31 8,-25 7,1 12,-9 12,-25 0,-17 34,-75 98,-167 l 97,-141 3,47 3,48 47,-3 47,-3 3,-102 c 2,-82 6,-103 17,-103 12,0 12,-5 4,-23 -9,-21 -1,-38 78,-150 l 88,-126 3,115 3,114 h 82 c 58,0 78,3 67,10 -8,6 -35,9 -60,8 l -45,-2 -3,138 -3,138 118,-2 c 149,-4 150,-4 156,18 4,17 17,19 156,20 h 151 v -100 c 0,-80 5,-114 23,-162 l 22,-61 3,223 2,222 h 166 c 108,0 163,3 159,10 -4,6 -75,10 -181,10 h -175 l 3,58 3,57 143,3 c 89,2 141,6 137,12 -3,6 -35,10 -71,10 h -64 v 50 c 0,49 1,50 30,50 17,0 30,5 30,10 0,6 -15,10 -34,10 -30,0 -36,4 -50,40 -9,22 -16,48 -16,58 0,10 -18,36 -40,57 l -40,39 v -27 c 0,-18 5,-27 16,-27 9,0 14,-7 12,-17 -6,-32 -148,-30 -148,1 0,8 7,16 15,20 23,8 21,114 -2,133 -10,7 -117,80 -238,160 -343,229 -429,299 -600,482 -85,90 -164,185 -182,218 -35,63 -78,113 -96,113 -7,0 -106,-45 -222,-99 z m 287,-219 c 75,-37 143,-105 180,-180 31,-63 33,-72 33,-177 0,-101 -2,-115 -29,-170 -38,-76 -110,-149 -184,-183 -49,-23 -70,-27 -147,-27 -74,1 -99,5 -138,24 -152,75 -244,248 -218,411 24,145 119,266 249,315 59,23 196,15 254,-13 z m 672,-469 c 4,-13 12,-23 19,-23 8,0 8,-3 -1,-12 -18,-18 -16,-78 3,-78 18,0 19,-12 3,-28 -18,-18 -133,-16 -149,4 -9,11 -9,18 -2,22 6,4 13,18 16,32 4,25 4,25 6,-2 2,-44 21,-33 21,12 0,30 -3,38 -14,34 -8,-3 -17,-1 -21,5 -3,6 -1,11 4,11 6,0 11,7 11,15 0,8 12,27 26,43 l 27,28 22,-20 c 12,-12 25,-31 29,-43 z m 16,-293 c 0,-123 1,-130 20,-130 11,0 20,-6 20,-13 0,-28 -25,-37 -105,-37 -80,0 -105,9 -105,37 0,7 9,13 20,13 19,0 20,7 20,130 v 130 h 65 65 z m 276,-96 c -5,-14 36,-61 93,-104 39,-30 63,-94 52,-136 l -7,-29 -138,-3 c -93,-2 -143,1 -152,9 -8,7 -14,30 -14,58 0,44 3,48 77,117 51,48 74,77 70,87 -7,18 2,29 15,21 5,-3 7,-12 4,-20 z m 204,-69 c 0,-82 -1,-85 -22,-85 -15,0 -31,12 -46,35 -12,19 -27,35 -32,35 -6,0 -10,23 -10,50 v 50 h 55 55 z m -468,-197 c 3,-160 3,-163 26,-166 28,-4 30,-37 3,-52 -28,-14 -204,-13 -219,2 -20,20 -14,45 13,52 l 25,6 v 160 160 h 75 75 z m -412,3 c 4,-22 5,-43 2,-46 -10,-10 0,-170 11,-177 9,-5 9,-10 1,-18 -15,-15 -116,-9 -122,8 -2,6 4,12 13,12 15,0 16,12 14,98 -2,69 1,96 9,95 7,-2 12,8 12,23 0,14 -4,23 -10,19 -16,-10 -12,18 6,44 16,23 17,23 36,3 11,-11 24,-38 28,-61 z m 810,-35 c 0,-8 -8,-17 -17,-20 -33,-9 -262,-5 -268,4 -15,24 13,30 146,30 114,0 139,-3 139,-14 z m -270,-102 c 0,-41 -4,-63 -10,-59 -18,11 -12,125 7,125 2,0 3,-30 3,-66 z m 90,6 c 0,-33 -4,-60 -10,-60 -6,0 -10,27 -10,60 0,33 4,60 10,60 6,0 10,-27 10,-60 z m 90,-6 c 0,-41 -4,-63 -10,-59 -5,3 -10,33 -10,66 0,33 4,59 10,59 6,0 10,-29 10,-66 z m 90,0 c 0,-41 -4,-63 -10,-59 -5,3 -10,33 -10,66 0,33 4,59 10,59 6,0 10,-29 10,-66 z"
         id="path426"
         style="fill:#f9f9f9" /><path
         d="m 2640,4469 c -49,-20 -93,-63 -116,-113 -42,-90 -27,-184 42,-252 50,-51 98,-68 175,-62 79,6 134,43 172,118 54,105 24,222 -74,287 -33,22 -55,28 -108,30 -36,2 -77,-2 -91,-8 z m 21,-125 c 81,-15 84,-17 162,-87 43,-39 74,-73 68,-75 -8,-3 -91,12 -131,23 -3,1 -21,5 -40,9 -23,5 -61,31 -110,77 -85,78 -84,79 51,53 z"
         id="path428"
         style="fill:#f9f9f9" /><path
         d="m 2594,4332 c 3,-5 28,-29 56,-52 l 49,-41 16,31 c 20,39 15,46 -37,54 -24,4 -54,10 -67,13 -16,4 -22,2 -17,-5 z"
         id="path430"
         style="fill:#f9f9f9" /><path
         d="m 3470,4080 c 0,-22 5,-40 10,-40 6,0 10,18 10,40 0,22 -4,40 -10,40 -5,0 -10,-18 -10,-40 z"
         id="path432"
         style="fill:#f9f9f9" /><path
         d="m 3503,4080 c 0,-25 2,-35 4,-22 2,12 2,32 0,45 -2,12 -4,2 -4,-23 z"
         id="path434"
         style="fill:#f9f9f9" /><path
         d="m 3533,4080 c 0,-25 2,-35 4,-22 2,12 2,32 0,45 -2,12 -4,2 -4,-23 z"
         id="path436"
         style="fill:#f9f9f9" /><path
         d="m 3142,3495 c 0,-16 2,-22 5,-12 2,9 2,23 0,30 -3,6 -5,-1 -5,-18 z"
         id="path438"
         style="fill:#f9f9f9" /><path
         d="m 3110,3495 c 0,-8 5,-15 10,-15 6,0 10,7 10,15 0,8 -4,15 -10,15 -5,0 -10,-7 -10,-15 z"
         id="path440"
         style="fill:#f9f9f9" /><path
         d="m 6000,4883 c 0,-10 7,-54 14,-98 28,-150 25,-145 57,-145 24,0 29,-4 29,-25 0,-16 -6,-25 -15,-25 -24,0 -18,-29 45,-222 89,-269 130,-338 162,-271 25,53 96,65 168,28 50,-26 151,-127 182,-182 16,-29 34,-55 38,-58 14,-8 25,21 54,135 25,101 26,118 26,372 0,265 0,267 -22,283 -23,15 -108,43 -383,125 -77,23 -183,55 -235,71 -112,34 -120,35 -120,12 z"
         id="path442"
         style="fill:#f9f9f9" /><path
         d="m 5970,4861 c 0,-5 5,-13 10,-16 6,-3 10,-2 10,4 0,5 -4,13 -10,16 -5,3 -10,2 -10,-4 z"
         id="path444"
         style="fill:#f9f9f9" /><path
         d="m 5945,4819 c -10,-30 11,-48 32,-27 13,14 14,20 3,32 -17,22 -27,20 -35,-5 z"
         id="path448"
         style="fill:#f9f9f9" /><path
         d="m 5984,4779 c -3,-6 -1,-16 5,-22 8,-8 11,-5 11,11 0,24 -5,28 -16,11 z"
         id="path452"
         style="fill:#f9f9f9" /><path
         d="m 5920,4759 c 0,-18 2,-19 15,-9 15,12 12,30 -6,30 -5,0 -9,-10 -9,-21 z"
         id="path454"
         style="fill:#f9f9f9" /><path
         d="m 5946,4741 c -16,-18 -16,-20 5,-35 21,-14 24,-14 41,1 10,9 17,17 16,17 -2,1 -12,9 -24,19 -20,16 -22,16 -38,-2 z"
         id="path456"
         style="fill:#f9f9f9" /><path
         d="m 5105,4737 c -51,-30 -88,-65 -106,-98 -27,-54 -90,-98 -177,-126 -65,-21 -89,-24 -152,-19 -74,6 -75,6 -87,-21 -7,-15 -13,-32 -13,-37 0,-19 141,-166 159,-166 26,0 180,95 224,138 24,24 65,90 113,184 41,81 74,149 74,152 0,9 -13,6 -35,-7 z"
         id="path458"
         style="fill:#f9f9f9" /><path
         d="m 5716,4684 c -8,-20 0,-32 14,-18 5,5 5,15 1,22 -6,11 -10,10 -15,-4 z"
         id="path460"
         style="fill:#f9f9f9" /><path
         d="m 5900,4686 c 0,-9 5,-16 10,-16 6,0 10,4 10,9 0,6 -4,13 -10,16 -5,3 -10,-1 -10,-9 z"
         id="path462"
         style="fill:#f9f9f9" /><path
         d="m 5930,4679 c 0,-12 5,-19 12,-17 18,6 20,25 3,31 -10,5 -15,0 -15,-14 z"
         id="path464"
         style="fill:#f9f9f9" /><path
         d="m 5997,4693 c -11,-10 -8,-20 8,-27 10,-4 15,1 15,14 0,20 -11,26 -23,13 z"
         id="path466"
         style="fill:#f9f9f9" /><path
         d="m 5960,4655 c -11,-13 -9,-15 15,-15 16,0 25,5 23,12 -7,19 -24,20 -38,3 z"
         id="path470"
         style="fill:#f9f9f9" /><path
         d="m 5890,4650 c 0,-5 5,-10 11,-10 5,0 7,5 4,10 -3,6 -8,10 -11,10 -2,0 -4,-4 -4,-10 z"
         id="path472"
         style="fill:#f9f9f9" /><path
         d="m 5116,4568 c -9,-12 -16,-26 -16,-31 0,-5 -19,-40 -41,-79 -45,-77 -133,-170 -204,-214 -25,-16 -44,-31 -42,-34 1,-3 26,-27 54,-54 l 53,-48 76,43 c 43,24 79,51 81,60 3,9 17,20 31,26 l 27,11 -34,1 c -26,1 -32,4 -27,17 3,9 6,26 6,39 0,12 9,33 20,46 l 20,24 20,-24 c 16,-18 18,-26 8,-32 -6,-4 -16,-5 -20,-3 -4,3 -8,-6 -8,-20 0,-38 46,-28 87,20 51,59 51,75 5,152 -23,37 -46,79 -51,95 -13,33 -25,34 -45,5 z"
         id="path474"
         style="fill:#f9f9f9" /><path
         d="m 5755,4580 c 3,-5 10,-10 16,-10 5,0 9,5 9,10 0,6 -7,10 -16,10 -8,0 -12,-4 -9,-10 z"
         id="path476"
         style="fill:#f9f9f9" /><path
         d="m 5895,4580 c 3,-5 10,-10 16,-10 5,0 9,5 9,10 0,6 -7,10 -16,10 -8,0 -12,-4 -9,-10 z"
         id="path478"
         style="fill:#f9f9f9" /><path
         d="m 5950,4580 c 0,-5 7,-10 15,-10 8,0 15,5 15,10 0,6 -7,10 -15,10 -8,0 -15,-4 -15,-10 z"
         id="path480"
         style="fill:#f9f9f9" /><path
         d="m 6016,4574 c -9,-24 -7,-27 9,-10 17,17 19,26 6,26 -5,0 -12,-7 -15,-16 z"
         id="path482"
         style="fill:#f9f9f9" /><path
         d="m 5875,4560 c 3,-5 8,-10 11,-10 2,0 4,5 4,10 0,6 -5,10 -11,10 -5,0 -7,-4 -4,-10 z"
         id="path484"
         style="fill:#f9f9f9" /><path
         d="m 5690,4540 c 0,-5 5,-10 10,-10 6,0 10,5 10,10 0,6 -4,10 -10,10 -5,0 -10,-4 -10,-10 z"
         id="path486"
         style="fill:#f9f9f9" /><path
         d="m 5815,4540 c -3,-5 1,-10 10,-10 9,0 13,5 10,10 -3,6 -8,10 -10,10 -2,0 -7,-4 -10,-10 z"
         id="path488"
         style="fill:#f9f9f9" /><path
         d="m 5900,4540 c 0,-5 5,-10 10,-10 6,0 10,5 10,10 0,6 -4,10 -10,10 -5,0 -10,-4 -10,-10 z"
         id="path490"
         style="fill:#f9f9f9" /><path
         d="m 6025,4540 c -3,-5 1,-10 10,-10 9,0 13,5 10,10 -3,6 -8,10 -10,10 -2,0 -7,-4 -10,-10 z"
         id="path492"
         style="fill:#f9f9f9" /><path
         d="m 5660,4510 c 0,-5 25,-10 55,-10 30,0 55,5 55,10 0,6 -25,10 -55,10 -30,0 -55,-4 -55,-10 z"
         id="path494"
         style="fill:#f9f9f9" /><path
         d="m 5790,4510 c 0,-6 34,-10 81,-10 51,0 78,4 74,10 -3,6 -40,10 -81,10 -43,0 -74,-4 -74,-10 z"
         id="path496"
         style="fill:#f9f9f9" /><path
         d="m 5960,4510 c 0,-5 25,-10 55,-10 30,0 55,5 55,10 0,6 -25,10 -55,10 -30,0 -55,-4 -55,-10 z"
         id="path498"
         style="fill:#f9f9f9" /><path
         d="m 5680,4481 c 0,-5 5,-13 10,-16 6,-3 10,-2 10,4 0,5 -4,13 -10,16 -5,3 -10,2 -10,-4 z"
         id="path500"
         style="fill:#f9f9f9" /><path
         d="m 5646,4454 c -9,-33 -6,-35 22,-20 22,12 22,12 4,30 -19,16 -20,16 -26,-10 z"
         id="path502"
         style="fill:#f9f9f9" /><path
         d="m 5765,4408 c -10,-40 -33,-130 -51,-199 -19,-70 -34,-130 -34,-133 0,-3 83,-6 185,-6 129,0 185,3 185,11 0,6 -12,55 -26,108 -15,53 -37,139 -49,191 l -22,95 -85,3 -86,3 z"
         id="path504"
         style="fill:#f9f9f9" /><path
         d="m 6030,4469 c 0,-5 5,-7 10,-4 6,3 10,8 10,11 0,2 -4,4 -10,4 -5,0 -10,-5 -10,-11 z"
         id="path506"
         style="fill:#f9f9f9" /><path
         d="m 6059,4464 c -11,-14 -10,-18 6,-30 29,-21 35,-17 24,16 -13,35 -13,35 -30,14 z"
         id="path508"
         style="fill:#f9f9f9" /><path
         d="m 5737,4456 c -15,-12 -15,-15 -2,-26 12,-10 16,-9 21,4 10,25 1,36 -19,22 z"
         id="path510"
         style="fill:#f9f9f9" /><path
         d="m 5970,4458 c 0,-7 4,-19 9,-26 6,-10 10,-10 20,2 10,12 8,17 -8,26 -16,8 -21,8 -21,-2 z"
         id="path512"
         style="fill:#f9f9f9" /><path
         d="m 5670,4420 c -8,-5 -11,-12 -7,-16 4,-4 13,-2 19,4 15,15 7,24 -12,12 z"
         id="path514"
         style="fill:#f9f9f9" /><path
         d="m 5706,4422 c -3,-6 -1,-14 5,-17 15,-10 25,3 12,16 -7,7 -13,7 -17,1 z"
         id="path516"
         style="fill:#f9f9f9" /><path
         d="m 6007,4423 c -12,-11 -8,-23 8,-23 8,0 15,7 15,15 0,16 -12,20 -23,8 z"
         id="path518"
         style="fill:#f9f9f9" /><path
         d="m 6040,4420 c 0,-12 28,-25 36,-17 3,3 -4,10 -15,17 -15,7 -21,7 -21,0 z"
         id="path520"
         style="fill:#f9f9f9" /><path
         d="m 5655,4380 c 3,-5 10,-10 16,-10 5,0 9,5 9,10 0,6 -7,10 -16,10 -8,0 -12,-4 -9,-10 z"
         id="path544"
         style="fill:#f9f9f9" /><path
         d="m 5695,4380 c -8,-13 5,-13 25,0 13,8 13,10 -2,10 -9,0 -20,-4 -23,-10 z"
         id="path546"
         style="fill:#f9f9f9" /><path
         d="m 6010,4380 c 19,-13 30,-13 30,0 0,6 -10,10 -22,10 -19,0 -20,-2 -8,-10 z"
         id="path548"
         style="fill:#f9f9f9" /><path
         d="m 6050,4380 c 0,-5 7,-10 15,-10 8,0 15,5 15,10 0,6 -7,10 -15,10 -8,0 -15,-4 -15,-10 z"
         id="path550"
         style="fill:#f9f9f9" /><path
         d="m 5611,4349 c -14,-41 -14,-41 7,-30 45,26 46,29 33,45 -19,23 -28,20 -40,-15 z"
         id="path552"
         style="fill:#f9f9f9" /><path
         d="m 6086,4364 c -11,-7 -18,-15 -15,-17 2,-2 17,-11 33,-21 l 29,-18 -7,28 c -10,40 -18,45 -40,28 z"
         id="path554"
         style="fill:#f9f9f9" /><path
         d="m 5714,4355 c -16,-13 -17,-16 -4,-24 11,-8 17,-5 23,11 10,27 5,31 -19,13 z"
         id="path556"
         style="fill:#f9f9f9" /><path
         d="m 5998,4345 c 5,-28 12,-31 30,-13 9,9 7,14 -6,24 -25,19 -30,17 -24,-11 z"
         id="path558"
         style="fill:#f9f9f9" /><path
         d="m 5634,4315 c -19,-14 -18,-14 4,-15 13,0 22,6 22,15 0,19 -1,19 -26,0 z"
         id="path560"
         style="fill:#f9f9f9" /><path
         d="m 5676,4315 c -4,-11 2,-15 21,-15 21,0 24,2 13,15 -7,8 -16,15 -20,15 -4,0 -10,-7 -14,-15 z"
         id="path562"
         style="fill:#f9f9f9" /><path
         d="m 6030,4315 c -10,-13 -9,-15 9,-15 11,0 21,4 21,9 0,18 -18,21 -30,6 z"
         id="path564"
         style="fill:#f9f9f9" /><path
         d="m 6070,4315 c 0,-8 9,-15 20,-15 11,0 20,2 20,5 0,2 -9,9 -20,15 -16,9 -20,8 -20,-5 z"
         id="path566"
         style="fill:#f9f9f9" /><path
         d="m 5090,4295 c 0,-14 5,-25 10,-25 6,0 10,11 10,25 0,14 -4,25 -10,25 -5,0 -10,-11 -10,-25 z"
         id="path568"
         style="fill:#f9f9f9" /><path
         d="m 5610,4282 c 0,-10 22,-32 32,-32 4,0 8,9 8,20 0,13 -7,20 -20,20 -11,0 -20,-4 -20,-8 z"
         id="path570"
         style="fill:#f9f9f9" /><path
         d="m 5663,4275 c -9,-24 0,-25 27,-5 l 25,20 h -23 c -12,0 -25,-7 -29,-15 z"
         id="path572"
         style="fill:#f9f9f9" /><path
         d="m 6025,4271 c -7,-22 3,-71 15,-71 4,0 14,7 21,16 11,14 9,19 -11,36 l -25,19 24,-6 c 17,-5 22,-4 19,6 -7,22 -36,22 -43,0 z"
         id="path574"
         style="fill:#f9f9f9" /><path
         d="m 6080,4278 c 1,-18 19,-39 58,-66 35,-25 38,-21 21,27 -11,32 -23,39 -34,21 -3,-5 -11,-10 -17,-10 -7,0 -7,5 1,14 9,11 8,15 -5,20 -22,8 -24,8 -24,-6 z"
         id="path576"
         style="fill:#f9f9f9" /><path
         d="m 5590,4259 c 0,-23 15,-38 28,-30 9,6 7,12 -8,26 -15,14 -20,15 -20,4 z"
         id="path578"
         style="fill:#f9f9f9" /><path
         d="m 5674,4245 c -19,-15 -19,-15 0,-30 22,-17 36,-6 36,28 0,21 -10,22 -36,2 z"
         id="path580"
         style="fill:#f9f9f9" /><path
         d="m 5640,4205 c 0,-16 27,-32 37,-21 7,7 -16,36 -28,36 -5,0 -9,-7 -9,-15 z"
         id="path582"
         style="fill:#f9f9f9" /><path
         d="m 6068,4209 c -24,-13 -23,-29 2,-29 13,0 20,7 20,20 0,23 1,23 -22,9 z"
         id="path584"
         style="fill:#f9f9f9" /><path
         d="m 6104,4205 c 3,-9 6,-19 6,-21 0,-2 9,-4 20,-4 28,0 25,15 -6,29 -23,10 -26,10 -20,-4 z"
         id="path586"
         style="fill:#f9f9f9" /><path
         d="m 6080,4160 c 19,-13 30,-13 30,0 0,6 -10,10 -22,10 -19,0 -20,-2 -8,-10 z"
         id="path588"
         style="fill:#f9f9f9" /><path
         d="m 6120,4161 c 0,-19 22,-23 38,-7 15,15 14,16 -11,16 -15,0 -27,-4 -27,-9 z"
         id="path590"
         style="fill:#f9f9f9" /><path
         d="m 5670,4149 c 0,-5 5,-7 10,-4 6,3 10,8 10,11 0,2 -4,4 -10,4 -5,0 -10,-5 -10,-11 z"
         id="path592"
         style="fill:#f9f9f9" /><path
         d="m 6045,4150 c 3,-5 11,-10 16,-10 6,0 7,5 4,10 -3,6 -11,10 -16,10 -6,0 -7,-4 -4,-10 z"
         id="path594"
         style="fill:#f9f9f9" /><path
         d="m 6061,4100 c 6,-16 15,-30 20,-30 5,0 9,14 9,30 0,23 -5,30 -19,30 -18,0 -19,-3 -10,-30 z"
         id="path596"
         style="fill:#f9f9f9" /><path
         d="m 6100,4100 c 0,-23 4,-30 20,-30 16,0 20,7 20,30 0,23 -4,30 -20,30 -16,0 -20,-7 -20,-30 z"
         id="path598"
         style="fill:#f9f9f9" /><path
         d="m 6150,4100 c 0,-20 5,-30 15,-30 10,0 15,10 15,30 0,20 -5,30 -15,30 -10,0 -15,-10 -15,-30 z"
         id="path600"
         style="fill:#f9f9f9" /><path
         d="m 5650,4110 c 0,-5 5,-10 11,-10 5,0 7,5 4,10 -3,6 -8,10 -11,10 -2,0 -4,-4 -4,-10 z"
         id="path602"
         style="fill:#f9f9f9" /><path
         d="m 6200,4098 c 0,-18 5,-28 15,-28 19,0 19,11 0,36 -14,18 -14,18 -15,-8 z"
         id="path604"
         style="fill:#f9f9f9" /><path
         d="m 5246,4077 -79,-32 2,-105 c 2,-81 6,-107 17,-113 12,-7 13,-12 3,-23 -14,-18 -120,-19 -137,-2 -16,16 -15,28 3,28 12,0 15,16 15,85 v 85 l -39,-19 -39,-20 10,-43 c 11,-49 5,-112 -18,-180 l -16,-48 h -309 c -204,0 -308,-3 -304,-10 4,-6 117,-10 306,-10 h 299 v -33 c 0,-28 7,-38 41,-60 22,-15 54,-27 70,-27 29,0 29,0 29,-60 0,-33 -4,-60 -10,-60 -6,0 -10,-128 -10,-363 0,-340 1,-365 18,-380 10,-10 22,-17 25,-17 4,0 7,56 7,125 v 125 h 150 150 v -97 l 1,-98 24,28 c 23,25 25,37 25,118 v 89 h 80 c 47,0 80,4 80,10 0,6 -27,10 -60,10 h -60 v 135 135 h 95 94 l 3,-105 3,-106 42,31 c 24,17 73,48 110,68 56,31 69,43 73,67 5,30 6,30 70,31 69,0 125,20 125,43 0,8 -24,25 -52,38 l -53,23 v -30 c 0,-17 5,-30 10,-30 6,0 10,-7 10,-15 0,-12 -13,-15 -60,-15 -47,0 -60,3 -60,15 0,8 5,15 10,15 6,0 10,20 10,44 v 43 l -57,22 c -32,12 -91,44 -131,72 l -73,49 3,-87 c 3,-83 4,-88 26,-91 26,-4 29,-29 5,-48 -24,-18 -193,-19 -217,-1 -23,17 -17,52 9,52 19,0 20,8 23,163 2,157 2,164 -20,192 -24,30 -58,40 -58,18 -1,-7 -11,-26 -24,-41 -22,-27 -22,-31 -9,-69 8,-23 11,-53 8,-68 -7,-34 -35,-40 -188,-40 -104,0 -108,1 -118,24 -25,53 12,124 94,182 18,13 36,40 48,75 10,29 19,45 19,34 0,-13 19,9 51,59 l 51,79 -12,66 c -14,75 -25,101 -43,101 -7,-1 -47,-15 -91,-33 z m -66,-341 c 0,-32 -5,-49 -18,-58 -10,-7 -27,-25 -36,-40 -12,-18 -27,-28 -42,-28 -23,0 -24,2 -24,85 v 85 h 60 60 z m 240,-280 c 0,-12 -25,-15 -140,-15 -115,0 -140,3 -140,15 0,11 25,14 140,14 115,0 140,-3 140,-14 z m -273,-118 c -2,-18 -4,-4 -4,32 0,36 2,50 4,33 2,-18 2,-48 0,-65 z m 103,26 c 0,-30 -4,-54 -10,-54 -6,0 -10,27 -10,61 0,37 4,58 10,54 6,-3 10,-31 10,-61 z m 77,-26 c -2,-18 -4,-4 -4,32 0,36 2,50 4,33 2,-18 2,-48 0,-65 z m 91,30 -1,-63 -6,55 c -4,30 -5,58 -3,63 9,19 12,2 10,-55 z m -19,-84 31,-6 v -169 -169 h -150 -150 v 175 175 h 119 c 65,0 133,-3 150,-6 z"
         id="path606"
         style="fill:#f9f9f9" /><path
         d="m 5260,3208 c -51,-19 -60,-36 -60,-115 v -73 h 80 80 v 73 c 0,58 -4,77 -17,89 -33,28 -57,36 -83,26 z m 49,-23 c 35,-17 41,-32 41,-96 v -49 h -65 -65 v 65 c 0,60 2,65 28,79 34,19 28,19 61,1 z"
         id="path608"
         style="fill:#f9f9f9" /><path
         d="m 4086,4081 c -4,-5 6,-24 21,-41 l 28,-32 18,36 17,36 h -24 c -14,0 -31,3 -39,6 -8,3 -18,1 -21,-5 z"
         id="path610"
         style="fill:#f9f9f9" /><path
         d="m 5700,4011 c 0,-18 17,-20 36,-6 18,14 18,14 -8,15 -16,0 -28,-4 -28,-9 z"
         id="path612"
         style="fill:#f9f9f9" /><path
         d="m 5746,3997 -29,-24 35,-21 c 43,-27 43,-27 80,0 l 31,21 -29,24 c -36,29 -52,29 -88,0 z"
         id="path614"
         style="fill:#f9f9f9" /><path
         d="m 5844,4005 c 25,-19 46,-19 70,0 18,14 15,15 -35,15 -50,-1 -52,-2 -35,-15 z"
         id="path616"
         style="fill:#f9f9f9" /><path
         d="m 5925,3996 c -30,-24 -30,-25 -10,-40 11,-8 16,-16 11,-16 -5,0 -18,7 -28,17 -16,14 -20,15 -35,1 -10,-9 -25,-18 -33,-21 -8,-3 20,-5 62,-5 65,2 82,6 105,25 l 28,23 -25,20 c -32,25 -39,25 -75,-4 z"
         id="path618"
         style="fill:#f9f9f9" /><path
         d="m 6014,4005 c 25,-19 31,-19 46,0 11,13 7,15 -26,15 -36,-1 -38,-2 -20,-15 z"
         id="path620"
         style="fill:#f9f9f9" /><path
         d="m 6112,4008 c 3,-9 32,-14 86,-16 68,-2 82,0 82,13 0,12 -15,15 -86,15 -64,0 -85,-3 -82,-12 z"
         id="path622"
         style="fill:#f9f9f9" /><path
         d="m 6069,3994 c -14,-17 -12,-20 45,-50 l 28,-16 -23,41 c -25,45 -31,48 -50,25 z"
         id="path624"
         style="fill:#f9f9f9" /><path
         d="m 6168,3972 c -50,-6 -28,-36 36,-47 36,-7 37,-6 28,12 -16,29 -34,39 -64,35 z"
         id="path626"
         style="fill:#f9f9f9" /><path
         d="m 6010,3950 -25,-20 h 58 c 31,0 57,2 57,5 0,4 -55,35 -62,35 -2,0 -14,-9 -28,-20 z"
         id="path628"
         style="fill:#f9f9f9" /><path
         d="m 6230,3963 c 0,-5 8,-17 16,-28 15,-20 15,-20 30,-1 21,29 18,36 -16,36 -16,0 -30,-3 -30,-7 z"
         id="path630"
         style="fill:#f9f9f9" /><path
         d="m 6286,3925 c -8,-22 -3,-28 19,-23 14,3 14,5 2,22 -13,18 -14,18 -21,1 z"
         id="path632"
         style="fill:#f9f9f9" /><path
         d="m 5381,3908 c -7,-11 -10,-22 -8,-24 8,-9 37,8 37,21 0,23 -15,25 -29,3 z"
         id="path634"
         style="fill:#f9f9f9" /><path
         d="m 5772,3900 c 0,-14 2,-19 5,-12 2,6 2,18 0,25 -3,6 -5,1 -5,-13 z"
         id="path636"
         style="fill:#f9f9f9" /><path
         d="m 5799,3910 c 0,-8 -2,-23 -4,-34 -6,-31 92,-152 206,-256 87,-77 130,-108 213,-150 69,-34 111,-50 124,-46 17,6 166,161 185,193 6,9 -1,9 -25,2 -18,-5 -35,-9 -37,-9 -3,0 0,-5 7,-12 19,-19 14,-33 -6,-15 -20,19 -62,23 -62,7 0,-5 11,-10 24,-10 14,0 28,-5 31,-10 4,-7 -8,-8 -34,-4 -41,7 -51,-2 -29,-24 6,-6 9,-14 6,-17 -3,-3 -25,30 -50,72 -25,43 -67,99 -94,124 -59,55 -181,117 -249,126 -16,3 -36,8 -45,13 -8,4 -47,7 -86,6 -65,-1 -70,0 -60,16 8,13 7,21 -2,30 -9,9 -12,9 -13,-2 z"
         id="path638"
         style="fill:#f9f9f9" /><path
         d="m 5855,3910 c -4,-6 -3,-16 3,-22 13,-13 23,4 13,21 -7,10 -10,10 -16,1 z"
         id="path640"
         style="fill:#f9f9f9" /><path
         d="m 5892,3900 c 0,-14 2,-19 5,-12 2,6 2,18 0,25 -3,6 -5,1 -5,-13 z"
         id="path642"
         style="fill:#f9f9f9" /><path
         d="m 5919,3918 c -6,-21 -5,-38 2,-38 5,0 9,9 9,20 0,16 -7,28 -11,18 z"
         id="path644"
         style="fill:#f9f9f9" /><path
         d="m 5945,3907 c -8,-19 -2,-31 13,-26 5,2 6,13 2,24 -7,19 -8,19 -15,2 z"
         id="path646"
         style="fill:#f9f9f9" /><path
         d="m 5980,3890 c 0,-18 4,-29 10,-25 6,3 10,15 10,25 0,10 -4,22 -10,25 -6,4 -10,-7 -10,-25 z"
         id="path648"
         style="fill:#f9f9f9" /><path
         d="m 6010,3891 c 0,-17 5,-31 10,-31 6,0 10,11 10,24 0,14 -4,28 -10,31 -6,4 -10,-7 -10,-24 z"
         id="path650"
         style="fill:#f9f9f9" /><path
         d="m 6040,3891 c 0,-17 5,-33 11,-36 15,-10 17,-4 12,33 -6,40 -23,42 -23,3 z"
         id="path652"
         style="fill:#f9f9f9" /><path
         d="m 6106,3883 c 7,-41 19,-61 30,-50 10,10 -15,87 -27,87 -6,0 -7,-15 -3,-37 z"
         id="path654"
         style="fill:#f9f9f9" /><path
         d="m 6145,3883 c 4,-21 12,-41 18,-45 14,-9 37,-10 37,-3 0,8 -52,85 -57,85 -3,0 -2,-17 2,-37 z"
         id="path656"
         style="fill:#f9f9f9" /><path
         d="m 6175,3911 c -2,-4 7,-20 19,-36 l 23,-29 12,22 c 7,12 10,26 7,31 -7,11 -55,20 -61,12 z"
         id="path658"
         style="fill:#f9f9f9" /><path
         d="m 5682,3890 c 0,-14 2,-19 5,-12 2,6 2,18 0,25 -3,6 -5,1 -5,-13 z"
         id="path660"
         style="fill:#f9f9f9" /><path
         d="m 5831,3894 c 0,-11 3,-14 6,-6 3,7 2,16 -1,19 -3,4 -6,-2 -5,-13 z"
         id="path662"
         style="fill:#f9f9f9" /><path
         d="m 6077,3878 c 7,-39 23,-61 23,-32 0,30 -11,64 -21,64 -5,0 -6,-15 -2,-32 z"
         id="path664"
         style="fill:#f9f9f9" /><path
         d="m 6280,3881 c 0,-15 15,-21 39,-14 17,4 19,8 9,14 -18,12 -48,11 -48,0 z"
         id="path666"
         style="fill:#f9f9f9" /><path
         d="m 5400,3869 c 0,-5 5,-7 10,-4 6,3 10,8 10,11 0,2 -4,4 -10,4 -5,0 -10,-5 -10,-11 z"
         id="path668"
         style="fill:#f9f9f9" /><path
         d="m 6240,3865 c -7,-9 -10,-18 -7,-21 10,-11 37,5 37,21 0,19 -14,19 -30,0 z"
         id="path670"
         style="fill:#f9f9f9" /><path
         d="m 5326,3825 c -15,-25 -27,-48 -24,-50 3,-4 89,15 97,21 3,3 -38,74 -42,74 -1,0 -15,-20 -31,-45 z"
         id="path672"
         style="fill:#f9f9f9" /><path
         d="m 5380,3854 c 0,-5 7,-18 16,-29 13,-17 16,-18 24,-5 12,19 12,30 1,30 -5,0 -16,3 -25,6 -9,3 -16,2 -16,-2 z"
         id="path674"
         style="fill:#f9f9f9" /><path
         d="m 6328,3852 c -19,-4 -24,-27 -9,-36 10,-7 35,19 29,32 -1,4 -11,6 -20,4 z"
         id="path676"
         style="fill:#f9f9f9" /><path
         d="m 5687,3833 c -4,-3 -7,-28 -7,-55 0,-41 3,-48 20,-48 22,0 26,-20 8,-38 -8,-8 -8,-15 3,-28 19,-24 186,-147 228,-168 39,-21 81,-30 81,-18 0,14 -36,39 -54,36 -12,-2 -15,3 -11,17 4,13 -11,39 -57,92 -35,41 -85,106 -113,145 -47,67 -77,87 -98,65 z"
         id="path678"
         style="fill:#f9f9f9" /><path
         d="m 6255,3831 c -18,-8 -16,-10 15,-18 41,-12 47,-9 30,12 -14,17 -16,17 -45,6 z"
         id="path680"
         style="fill:#f9f9f9" /><path
         d="m 6350,3819 c -7,-11 -10,-22 -8,-23 6,-5 92,-25 95,-22 2,1 -15,17 -37,34 -39,32 -39,32 -50,11 z"
         id="path682"
         style="fill:#f9f9f9" /><path
         d="m 6150,3811 c 0,-5 13,-14 29,-21 16,-6 39,-21 51,-32 31,-29 33,-18 4,25 -19,29 -31,37 -54,37 -17,0 -30,-4 -30,-9 z"
         id="path684"
         style="fill:#f9f9f9" /><path
         d="m 6256,3772 c 22,-38 25,-39 42,-11 16,25 15,27 -28,35 l -33,7 z"
         id="path686"
         style="fill:#f9f9f9" /><path
         d="m 5430,3782 c 0,-15 28,-47 35,-40 11,11 -5,48 -21,48 -8,0 -14,-4 -14,-8 z"
         id="path688"
         style="fill:#f9f9f9" /><path
         d="m 5355,3773 c -45,-10 -50,-15 -21,-24 29,-8 56,3 56,22 0,9 -2,10 -35,2 z"
         id="path690"
         style="fill:#f9f9f9" /><path
         d="m 5400,3761 c -14,-26 -14,-26 23,-35 32,-7 34,0 8,33 l -19,24 z"
         id="path692"
         style="fill:#f9f9f9" /><path
         d="m 6306,3755 c -21,-32 -19,-35 17,-28 30,6 33,11 14,37 -12,17 -14,16 -31,-9 z"
         id="path694"
         style="fill:#f9f9f9" /><path
         d="m 6350,3773 c 1,-23 19,-34 44,-27 15,3 24,10 19,14 -12,11 -63,21 -63,13 z"
         id="path696"
         style="fill:#f9f9f9" /><path
         d="m 6408,3738 c -31,-11 -35,-20 -14,-37 12,-10 18,-7 32,14 20,31 17,35 -18,23 z"
         id="path698"
         style="fill:#f9f9f9" /><path
         d="m 5318,3718 c 17,-18 24,-20 34,-10 10,10 10,15 -2,22 -8,5 -24,10 -35,10 -19,0 -19,-1 3,-22 z"
         id="path700"
         style="fill:#f9f9f9" /><path
         d="m 6436,3709 c -10,-17 -16,-32 -14,-33 7,-6 93,-25 96,-21 2,2 -6,18 -18,35 -12,17 -20,33 -18,36 3,2 18,-15 33,-38 17,-26 30,-37 33,-30 6,18 -52,77 -76,79 -11,1 -26,-11 -36,-28 z"
         id="path702"
         style="fill:#f9f9f9" /><path
         d="m 5367,3713 c -4,-3 -7,-12 -7,-19 0,-9 10,-9 41,-2 28,8 37,13 27,19 -16,10 -52,12 -61,2 z"
         id="path704"
         style="fill:#f9f9f9" /><path
         d="m 6312,3711 c -9,-6 -1,-11 28,-19 35,-9 41,-8 36,5 -3,8 -6,17 -6,19 0,7 -45,4 -58,-5 z"
         id="path706"
         style="fill:#f9f9f9" /><path
         d="m 5383,3668 c 2,-7 10,-13 17,-13 7,0 15,6 18,13 2,7 -5,12 -18,12 -13,0 -20,-5 -17,-12 z"
         id="path708"
         style="fill:#f9f9f9" /><path
         d="m 6320,3674 c 0,-5 8,-22 19,-37 l 18,-28 17,26 c 10,15 16,29 14,31 -10,9 -68,16 -68,8 z"
         id="path710"
         style="fill:#f9f9f9" /><path
         d="m 6386,3635 c -21,-32 -19,-35 17,-28 30,6 33,11 14,37 -12,17 -14,16 -31,-9 z"
         id="path712"
         style="fill:#f9f9f9" /><path
         d="m 6430,3651 c 0,-19 27,-30 56,-22 l 29,8 -30,8 c -16,3 -36,8 -42,11 -7,2 -13,0 -13,-5 z"
         id="path714"
         style="fill:#f9f9f9" /><path
         d="m 4410,3560 c 0,-6 51,-10 134,-10 79,0 137,4 141,10 4,6 -43,10 -134,10 -87,0 -141,-4 -141,-10 z"
         id="path716"
         style="fill:#f9f9f9" /><path
         d="m 6037,3463 c -12,-12 -8,-20 18,-31 14,-6 25,-8 25,-3 0,13 -36,42 -43,34 z"
         id="path718"
         style="fill:#f9f9f9" /><path
         d="m 4480,3420 c 0,-5 9,-10 20,-10 11,0 20,5 20,10 0,6 -9,10 -20,10 -11,0 -20,-4 -20,-10 z"
         id="path720"
         style="fill:#f9f9f9" /><path
         d="m 4675,3420 c -4,-6 45,-10 140,-10 95,0 144,4 140,10 -4,6 -62,10 -140,10 -78,0 -136,-4 -140,-10 z"
         id="path722"
         style="fill:#f9f9f9" /><path
         d="m 1365,3261 c -8,-16 -17,-53 -21,-83 l -6,-54 50,-27 c 27,-15 52,-27 56,-27 3,0 6,42 6,93 0,78 -3,97 -18,110 -27,25 -50,21 -67,-12 z"
         id="path724"
         style="fill:#f9f9f9" /><path
         d="m 4369,3211 c -54,-34 -84,-67 -98,-104 -6,-16 -11,-106 -11,-211 v -182 l 98,4 c 74,3 108,0 142,-13 66,-24 90,-29 90,-16 0,28 -161,551 -170,551 -3,0 -26,-13 -51,-29 z"
         id="path726"
         style="fill:#f9f9f9" /><path
         d="m 4636,3082 c -6,-10 83,-98 162,-160 l 42,-34 v 85 84 l -77,12 c -43,7 -88,15 -99,18 -12,2 -25,0 -28,-5 z"
         id="path728"
         style="fill:#f9f9f9" /><path
         d="m 1835,2860 c -21,-23 -12,-39 13,-24 13,9 20,6 35,-12 18,-24 102,-68 150,-78 22,-5 27,-3 27,14 0,11 -6,20 -13,20 -41,0 -124,35 -155,66 -19,19 -35,34 -36,34 -2,0 -11,-9 -21,-20 z"
         id="path730"
         style="fill:#f9f9f9" /><path
         d="m 5239,2827 c -33,-22 -34,-25 -37,-100 l -3,-77 h 81 81 l -3,77 c -3,75 -4,78 -37,100 -19,13 -37,23 -41,23 -4,0 -22,-10 -41,-23 z m 70,-12 c 35,-17 41,-32 41,-95 v -48 l -65,-4 -65,-3 v 67 c 0,63 2,68 28,82 34,19 28,19 61,1 z"
         id="path732"
         style="fill:#f9f9f9" /><path
         d="m 2534,2814 c -58,-34 -128,-44 -286,-45 -76,0 -138,-3 -138,-8 0,-27 33,-32 172,-28 150,5 225,21 270,56 l 25,20 59,-40 c 105,-70 258,-102 360,-76 l 30,8 v -66 c 0,-50 -3,-66 -15,-70 -9,-2 -76,-20 -148,-39 l -133,-34 v 83 c 0,71 -3,84 -17,89 -10,3 -67,17 -126,31 -94,22 -132,25 -279,25 -131,0 -169,-3 -166,-12 3,-10 44,-14 146,-16 l 142,-3 v -244 c 0,-235 -1,-244 -20,-247 -12,-2 -17,-7 -12,-15 5,-7 92,-21 230,-36 123,-14 225,-27 228,-30 3,-2 4,-41 2,-86 l -3,-82 -50,26 c -27,15 -62,38 -77,52 l -27,26 -127,-11 c -69,-6 -129,-14 -132,-17 -3,-3 0,-11 6,-17 9,-9 39,-9 124,-1 112,11 113,11 133,-11 60,-69 169,-107 318,-112 59,-1 107,-5 107,-8 0,-3 0,-12 0,-20 0,-18 -73,-36 -142,-36 -97,0 -227,47 -316,113 l -34,25 -34,-23 c -19,-13 -57,-29 -84,-36 -31,-8 -50,-18 -50,-27 0,-20 62,-7 121,25 l 46,25 54,-34 c 139,-88 270,-114 410,-82 l 26,6 -1,-71 v -72 l -51,-14 c -102,-29 -269,-75 -272,-75 -2,0 -3,42 -3,94 v 93 l -137,33 c -76,17 -148,34 -160,37 -20,5 -23,1 -23,-28 1,-32 13,-127 30,-229 5,-33 8,-8 9,87 l 1,133 33,-7 c 17,-4 75,-16 127,-27 l 95,-21 v -250 -250 l -35,2 c -86,3 -107,6 -141,14 -44,11 -69,3 -69,-21 0,-21 6,-22 243,-46 l 167,-17 v -89 c 0,-88 0,-89 -22,-82 -29,9 -96,50 -125,76 -20,19 -27,19 -152,7 -97,-9 -131,-16 -131,-26 0,-16 13,-16 137,-2 l 96,10 36,-34 c 43,-40 71,-58 131,-81 76,-30 117,-36 238,-36 75,0 92,-3 92,-15 0,-10 25,3 73,38 221,163 435,298 570,360 82,38 159,88 193,124 24,26 41,131 29,183 -5,23 -50,66 -203,193 -210,175 -448,411 -574,567 -85,107 -238,315 -265,360 -19,32 -33,39 -33,16 0,-20 -92,-40 -159,-33 -88,8 -173,42 -276,111 -17,11 -25,10 -61,-10 z m 73,-154 c 51,-11 95,-20 98,-20 3,0 5,-104 5,-231 v -232 l -47,6 c -27,4 -81,9 -120,13 l -73,7 v 243 244 l 23,-5 c 12,-3 64,-14 114,-25 z"
         id="path734"
         style="fill:#f9f9f9" /><path
         d="m 2531,2411 c -15,-20 -21,-45 -21,-79 0,-44 5,-56 34,-86 44,-47 76,-48 110,-3 20,26 26,46 26,83 0,43 -4,54 -33,82 -44,43 -87,44 -116,3 z"
         id="path736"
         style="fill:#f9f9f9" /><path
         d="m 3458,2776 c -29,-19 -33,-28 -36,-70 -2,-32 0,-46 7,-41 6,3 11,22 11,40 0,47 36,72 81,56 18,-6 34,-9 37,-7 8,9 -8,24 -38,34 -24,9 -35,7 -62,-12 z"
         id="path738"
         style="fill:#f9f9f9" /><path
         d="m 1974,2705 c 27,-20 106,-20 106,0 0,12 -13,15 -62,15 -58,-1 -61,-2 -44,-15 z"
         id="path740"
         style="fill:#f9f9f9" /><path
         d="m 2266,2475 c 24,-39 24,-40 24,-28 0,6 -9,21 -21,34 l -20,24 z"
         id="path742"
         style="fill:#f9f9f9" /><path
         d="m 2581,1491 c -15,-20 -21,-45 -21,-81 0,-43 5,-58 32,-91 26,-33 37,-39 69,-39 55,0 79,37 79,121 0,55 -4,67 -27,91 -21,22 -36,28 -69,28 -36,0 -46,-5 -63,-29 z"
         id="path744"
         style="fill:#f9f9f9" /><path
         d="m 2650,974 c -25,-13 -72,-30 -105,-36 -59,-12 -75,-22 -75,-44 0,-24 147,15 195,51 l 31,23 39,-30 c 93,-71 228,-118 338,-118 57,0 74,4 105,26 20,15 28,23 17,20 -67,-23 -206,-16 -280,15 -16,7 -32,13 -35,14 -15,3 -101,52 -137,76 -23,16 -43,29 -45,28 -2,0 -23,-12 -48,-25 z"
         id="path746"
         style="fill:#f9f9f9" /><path
         d="m 2456,854 c -9,-24 -9,-24 29,-24 h 35 V 580 330 l 25,16 25,16 v 233 233 l 83,-18 c 45,-10 108,-23 140,-30 l 57,-11 v -85 c 0,-49 4,-84 10,-84 6,0 10,39 10,98 v 97 l -167,38 c -184,41 -237,46 -247,21 z"
         id="path748"
         style="fill:#f9f9f9" /><path
         d="m 2305,494 c -39,-82 -125,-274 -125,-280 0,-2 45,-4 99,-4 84,0 102,3 122,20 24,19 24,19 3,20 -21,0 -22,5 -26,133 -3,93 -9,140 -19,161 l -16,28 z"
         id="path750"
         style="fill:#f9f9f9" /><path
         d="m 2641,496 c -12,-18 -21,-46 -21,-61 v -27 l 62,50 c 34,27 64,54 66,61 2,7 -12,11 -41,11 -41,0 -48,-4 -66,-34 z"
         id="path752"
         style="fill:#f9f9f9" /><path
         d="m 2106,44 c -15,-40 -7,-46 34,-23 21,12 37,26 34,31 -9,15 -62,9 -68,-8 z"
         id="path754"
         style="fill:#f9f9f9" /></g></g></svg>
