    <svg width="697" height="157" viewBox="0 0 925 157" fill="none" xmlns="http://www.w3.org/2000/svg" xmlns:xlink="http://www.w3.org/1999/xlink">
              <g clip-path="url(#clip0_4_41)">
                <mask id="mask0_4_41" style="mask-type: alpha" maskUnits="userSpaceOnUse" x="0" y="0" width="925" height="157">
                  <mask id="path-1-inside-1_4_41" fill="white">
                    <path fill-rule="evenodd" clip-rule="evenodd" d="M204.407 4.36494C208.678 2.43682 212.816 1.28088 217.832 0.616085C224.954 -0.328559 235.823 1.30717 242.556 4.33642C245.069 5.46725 247.376 7.46159 247.942 8.99336C248.717 11.0894 248.218 13.0369 246.568 14.3563C245.432 15.2655 242.827 16.4112 241.003 16.8041C238.429 17.3592 234.425 17.1102 223.887 15.7407C212.689 14.2843 207.741 14.635 201.861 17.3033C195.947 19.9864 191.561 24.7165 188.039 32.2063C187.595 33.1532 187.231 33.9653 187.231 34.0133C187.231 34.0613 228.221 34.0761 278.319 34.0476L369.407 33.995L370.262 31.7905C373.737 22.8112 380.709 14.4408 389.812 8.32289C397.489 3.16218 406.623 0.295105 415.378 0.295105C419.533 0.295105 426 1.32545 430.796 2.75097C437.412 4.71679 440.824 7.45701 440.817 10.7935C440.812 12.9718 439.456 14.571 436.539 15.8412C432.798 17.4689 430.197 17.4826 417.992 15.9337C410.075 14.9297 406.365 14.6886 403.355 14.9833C397.202 15.5876 392.703 17.462 388.531 21.1629C386.389 23.0614 384.912 24.785 383.311 27.2523C382.2 28.9668 380.323 32.6072 380.062 33.5575L379.913 34.099H435.728H491.543V32.3148V30.5306H503.531H515.519V32.3148V34.099H588.581H661.643L662.155 32.6826C664.593 25.9204 669.147 19.3239 675.167 13.8342C680.031 9.3989 683.987 6.73168 689.191 4.38321C696.686 0.999853 704.728 -0.306835 712.413 0.609252C721.093 1.64413 728.37 4.04966 731.226 6.82876C733.471 9.01504 733.744 11.9027 731.891 13.8742C730.891 14.9377 728.01 16.3335 725.858 16.7972C723.249 17.3604 719.29 17.1159 708.71 15.7407C697.53 14.2866 692.618 14.6327 686.694 17.2918C680.827 19.9247 676.383 24.7176 672.863 32.2063C672.419 33.1532 672.055 33.9653 672.055 34.0133C672.055 34.0601 715.057 34.099 767.613 34.099H863.172V32.3148V30.5306H875.16H887.148V32.3148V34.099H905.821H924.495V40.8177V47.5364L867.725 47.589L810.954 47.6427L810.896 95.9851L810.838 144.329L827.38 144.382L843.921 144.436L845.305 146.959C846.066 148.347 847.493 150.973 848.478 152.794L850.268 156.104L829.343 156.035C808.99 155.967 808.374 155.953 806.804 155.531C800.82 153.923 797.178 151.242 794.441 146.43L793.664 145.067L793.549 96.3541L793.434 47.6427H734.531H675.628L675.568 61.2389L675.509 74.8363L676.838 73.6267C679.704 71.0143 684.831 69.5408 693.956 68.7047C697.704 68.3609 711.299 68.3666 715.397 68.7138C727.013 69.6973 734.576 71.7328 739.374 75.1653C741.729 76.8512 743.646 79.5881 744.213 82.0748C744.374 82.783 744.436 87.4674 744.393 95.8412L744.329 108.533L743.697 110.084C741.355 115.843 734.868 124.04 730.148 127.204L728.717 128.164H716.61H704.503L707.356 125.48C711.718 121.377 716.092 115.948 718.392 111.784C718.946 110.781 719.334 110.099 719.606 109.382C720.259 107.652 720.238 105.712 720.238 98.5552V89.5999L718.175 88.1973C711.721 83.8076 708.602 82.7864 700.482 82.406C687.795 81.8109 678.66 84.2142 676.194 88.7958L675.628 89.8455L675.566 117.088L675.504 144.331H666.863H658.222V96.0331C658.222 57.5871 658.164 47.7135 657.934 47.6335C657.776 47.5787 651.006 47.5581 642.891 47.5878L628.137 47.6427L629.867 48.3623C635.278 50.6137 648.071 56.8584 648.244 57.3313C648.281 57.4306 644.289 61.1715 639.376 65.6446L630.443 73.7774L628.599 72.8122C625.441 71.1571 616.302 66.9433 612.921 65.5806C600.875 60.7283 592.158 58.8756 588.139 60.3114C586.466 60.9088 584.034 62.5971 582.705 64.0831C581.666 65.2459 575.689 73.8494 575.689 74.1829C575.689 74.2755 579.658 74.4068 584.507 74.4765C596.801 74.6524 602.962 75.1013 609.589 76.3052C619.633 78.1294 627.766 81.6361 634.313 86.967C638.937 90.7319 640.805 94.0479 640.783 98.4535C640.77 100.787 640.148 102.975 638.749 105.593C635.457 111.756 627.782 119.366 616.833 127.322L613.94 129.423H583.519C566.787 129.423 553.096 129.354 553.096 129.267C553.096 129.181 557.116 125.45 562.029 120.974L570.961 112.837H596.943C612.57 112.837 622.975 112.759 623.055 112.643C623.252 112.352 622.193 109.851 621.308 108.517C620.879 107.873 620.036 106.813 619.433 106.161C615.31 101.714 605.379 96.0423 598.557 94.2421C592.285 92.5858 580.921 91.6411 561.857 91.19C556.341 91.0597 551.801 90.9295 551.765 90.901C551.73 90.8724 552.158 89.6788 552.717 88.2475C556.891 77.5606 561.795 69.1719 566.882 64.0192C574.309 56.4951 585.013 50.7416 596.518 48.087C597.26 47.9168 597.925 47.7226 597.997 47.6575C598.07 47.5913 549.819 47.5376 490.775 47.5376H383.42V61.2264V74.914L383.961 74.2458C386.884 70.6385 395.002 68.7458 409.01 68.4043C420.831 68.1164 432.321 69.2804 439.301 71.4735C442.554 72.4958 443.335 72.8385 445.817 74.3326C448.866 76.167 450.693 78.303 451.72 81.2364C452.23 82.6904 452.236 82.8458 452.236 95.3044V107.902L451.578 109.688C449.436 115.498 442.329 124.481 437.439 127.558L436.476 128.164H424.368H412.26L414.501 126.117C419.662 121.405 425.383 113.997 427.227 109.642L427.914 108.021V98.7928V89.5645L425.712 88.0636C419.42 83.7744 416.314 82.7761 408.088 82.4003C395.719 81.8349 386.626 84.1685 384.036 88.5753L383.535 89.4252L383.475 116.878L383.414 144.331H374.655H365.9V96.0331C365.9 57.5871 365.84 47.7135 365.611 47.6335C365.452 47.5787 358.739 47.5581 350.692 47.5878L336.062 47.6427L342.394 50.5177C348.766 53.4133 355.775 56.9338 355.913 57.3096C355.953 57.4215 351.966 61.1624 347.053 65.624L338.119 73.7375L335.468 72.3873C328.832 69.0097 319.744 65.0598 314.028 63.07C306.895 60.5878 300.459 59.3759 297.429 59.9459C294.149 60.5638 290.602 63.3018 288.117 67.1352C287.381 68.2718 286.011 70.2947 285.072 71.6323C284.134 72.9687 283.367 74.1407 283.367 74.2378C283.367 74.3337 285.986 74.4125 289.187 74.4137C313.493 74.4148 326.487 76.9084 337.427 83.6728C340.345 85.4764 343.662 88.1104 345.141 89.7976C349.969 95.3066 349.647 101.778 344.171 109.267C340.357 114.485 333.212 121.038 323.993 127.776L321.751 129.415L291.416 129.419C274.732 129.422 261.016 129.364 260.936 129.292C260.857 129.22 264.802 125.488 269.701 120.998L278.611 112.837H304.734C326.074 112.837 330.857 112.787 330.857 112.563C330.857 111.83 329.774 109.517 328.795 108.159C326.673 105.215 323.997 102.969 318.955 99.9019C315.928 98.0606 310.104 95.3203 307.657 94.5859C303.047 93.2026 295.312 92.2671 283.25 91.6343C279.186 91.4207 264.703 91.0061 261.184 91.0026L259.406 91.0003L260.229 88.8483C264.033 78.8902 268.671 70.5563 273.225 65.4892C275.164 63.3327 279.686 59.4182 282.338 57.602C288.171 53.6052 294.755 50.6274 302.04 48.6901C303.625 48.2675 305.129 47.8426 305.382 47.7443C305.637 47.645 280.225 47.5821 248.439 47.6038L191.035 47.6427L190.977 66.0524C190.921 83.4512 190.94 84.4689 191.322 84.5763C191.874 84.7305 204.639 86.8848 209.478 87.6387C220.317 89.3281 228.681 89.5588 232.301 88.2692L232.994 88.0225L231.265 86.5364C225.275 81.3883 218.764 77.9284 210.568 75.5388C208.701 74.9939 207.09 74.4845 206.988 74.4068C206.815 74.2743 224.344 58.4393 224.846 58.2748C225.383 58.0989 235.494 62.6736 240.158 65.2037C247.735 69.3135 252.093 73.1058 252.942 76.3292C253.481 78.3784 252.828 80.8925 251.057 83.5757C250.087 85.0458 246.863 88.1904 245.006 89.4789C243.91 90.2385 238.217 94.37 234.2 97.3204C233.763 97.6403 233.897 97.7294 237.153 99.2737C242.427 101.775 245.489 103.711 248.447 106.416C251.176 108.912 252.181 110.318 252.813 112.531C253.72 115.703 252.701 119.682 250.041 123.37C248.683 125.249 244.495 129.082 241.942 130.78C233.572 136.348 225.958 139.173 211.669 142.015C209.323 142.482 207.223 142.901 207.004 142.947C206.69 143.013 206.652 142.957 206.826 142.684C206.948 142.493 211.018 138.728 215.87 134.317L224.694 126.297L228.613 125.851C230.768 125.605 232.616 125.33 232.718 125.239C232.95 125.034 231.279 120.304 230.103 117.833C227.718 112.822 224.249 109.039 220.417 107.267C218.76 106.502 214.917 105.346 212.44 104.867C210.022 104.401 191.442 102.489 191.114 102.674C191.007 102.734 190.92 112.131 190.92 123.557V144.331H182.16H173.4L173.342 95.9863L173.284 47.6427L100.491 47.589L27.6985 47.5364V52.8913V58.2451L49.5421 58.2565L71.3856 58.2679L65.1651 63.8204L58.9448 69.3741H43.3369H27.7289L27.656 89.8981C27.616 101.186 27.6622 110.845 27.7588 111.362C28.0402 112.867 29.18 114.835 30.3925 115.909C31.7701 117.131 34.5593 118.373 37.0353 118.869C38.4407 119.15 39.9224 119.237 43.2599 119.233C48.4793 119.229 50.0587 118.927 54.0952 117.16C57.885 115.502 61.2776 113.038 64.889 109.32L65.7561 108.428H68.8206C70.5061 108.428 71.9423 108.479 72.0122 108.543C72.3268 108.83 69.6158 114.35 67.7879 117.145C61.3101 127.049 52.5075 133.316 42.2683 135.315C37.3163 136.282 29.8787 136.057 25.1233 134.794C18.7978 133.118 13.0076 129.486 10.8668 125.854L10.0622 124.49L10.0021 86.0133L9.94212 47.5376H5.21838H0.494873V40.8188V34.099H5.22092H9.94696V23.4966V12.893H18.8227H27.6985V23.4966V34.099H68.5038H109.309V32.3148V30.5306H121.297H133.285V32.3148V34.099H155.052H176.82L177.45 32.3719C181.684 20.7986 192.191 9.87975 204.407 4.36494ZM761.78 10.1882C763.111 8.95569 764.203 8.31713 765.811 7.83396C767.602 7.29367 770.728 7.39539 772.628 8.05447C775.256 8.96599 777.45 11.0483 778.352 13.4881C778.761 14.5904 778.83 15.1855 778.758 16.956C778.658 19.4073 778.111 20.7175 776.485 22.4C770.668 28.4197 759.599 25.1197 759.032 17.197C758.827 14.3494 759.704 12.1129 761.78 10.1882ZM81.8749 113.591C81.426 111.973 81.414 111.232 81.414 85.2971V58.6654H121.643H161.873V97.2987V135.933H153.228H144.583L144.525 104.28L144.467 72.6283L123.679 72.5746L102.891 72.521L102.7 73.9396C102.595 74.7198 102.509 80.2712 102.509 86.276C102.508 95.5088 102.572 97.6643 102.922 100.239C103.745 106.294 104.947 109.76 106.712 111.173C108.555 112.645 113.035 114.148 117.947 114.939C122.159 115.617 130.785 116.406 133.996 116.406H134.668V122.286V128.164L119.28 128.162C102.928 128.161 101.675 128.1 97.7823 127.108C95.6613 126.567 92.3181 125.148 90.4618 124C85.8387 121.141 83.023 117.727 81.8749 113.591ZM463.669 112.029C463.497 111.021 463.418 102.313 463.418 84.6083V58.6654H503.761H544.105V97.2987V135.933H535.346H526.585V104.226V72.521L505.779 72.5746L484.973 72.6283L484.791 74.7278C484.486 78.2631 484.503 94.7903 484.815 97.9293C485.192 101.716 485.915 105.586 486.614 107.554C487.668 110.526 489.109 111.843 492.695 113.116C497.286 114.743 504.023 115.747 514.193 116.317L516.672 116.457V122.31V128.164H501.428C484.852 128.164 483.327 128.081 479.463 126.971C476.862 126.223 473.508 124.645 471.301 123.131C466.933 120.134 464.429 116.491 463.669 112.029ZM836.116 115.063C835.102 112.881 835.178 110.287 835.106 85.3839L835.029 58.6654H875.381H915.734V97.2987V135.933H906.974H898.213V104.228V72.5232H877.48H856.745L856.599 73.4153C856.332 75.0556 856.138 87.0539 856.293 92.3653C856.571 101.901 857.689 107.739 859.728 110.301C862.29 113.522 870.967 115.515 885.937 116.321L888.531 116.46V122.322V128.185L872.105 128.109C856.379 128.036 855.59 128.014 853.602 127.59C845.918 125.956 839.593 121.761 836.86 116.491C836.562 115.916 836.317 115.498 836.116 115.063ZM759.66 135.092V96.9846V58.8756H768.535H777.411V96.9846V135.092H768.535H759.66ZM854.562 153.19V155.642H868.226V152.561H860.442L864.609 149.013C865.454 148.297 866.091 147.652 866.522 147.075C866.969 146.499 867.261 145.955 867.399 145.441C867.554 144.912 867.632 144.384 867.632 143.854C867.632 142.859 867.347 142.002 866.78 141.287C866.229 140.571 865.445 140.018 864.429 139.63C863.43 139.225 862.259 139.022 860.916 139.022C859.298 139.022 857.868 139.295 856.628 139.84C855.388 140.383 854.424 141.124 853.735 142.057L856.784 143.831C857.231 143.271 857.773 142.859 858.411 142.594C859.065 142.329 859.771 142.197 860.529 142.197C861.476 142.197 862.19 142.375 862.673 142.734C863.172 143.076 863.421 143.574 863.421 144.227C863.421 144.476 863.371 144.749 863.267 145.045C863.181 145.34 863.008 145.667 862.75 146.025C862.492 146.383 862.088 146.787 861.536 147.238L854.562 153.19ZM873.724 154.941C874.895 155.595 876.221 155.921 877.702 155.921C879.2 155.921 880.526 155.595 881.68 154.941C882.85 154.272 883.772 153.308 884.443 152.047C885.114 150.787 885.451 149.261 885.451 147.472C885.451 145.682 885.114 144.157 884.443 142.898C883.772 141.636 882.85 140.679 881.68 140.026C880.526 139.357 879.2 139.022 877.702 139.022C876.221 139.022 874.895 139.357 873.724 140.026C872.552 140.679 871.632 141.636 870.96 142.898C870.289 144.157 869.952 145.682 869.952 147.472C869.952 149.261 870.289 150.787 870.96 152.047C871.632 153.308 872.552 154.272 873.724 154.941ZM879.536 152.187C879.019 152.545 878.407 152.724 877.702 152.724C877.013 152.724 876.401 152.545 875.868 152.187C875.351 151.829 874.938 151.261 874.628 150.483C874.335 149.705 874.189 148.701 874.189 147.472C874.189 146.243 874.335 145.239 874.628 144.461C874.938 143.683 875.351 143.115 875.868 142.757C876.401 142.399 877.013 142.22 877.702 142.22C878.407 142.22 879.019 142.399 879.536 142.757C880.07 143.115 880.483 143.683 880.775 144.461C881.086 145.239 881.24 146.243 881.24 147.472C881.24 148.701 881.086 149.705 880.775 150.483C880.483 151.261 880.07 151.829 879.536 152.187ZM887.228 155.642V153.19L894.201 147.238C894.752 146.787 895.158 146.383 895.416 146.025C895.674 145.667 895.847 145.34 895.933 145.045C896.035 144.749 896.087 144.476 896.087 144.227C896.087 143.574 895.838 143.076 895.339 142.734C894.856 142.375 894.142 142.197 893.195 142.197C892.437 142.197 891.731 142.329 891.077 142.594C890.44 142.859 889.897 143.271 889.45 143.831L886.401 142.057C887.09 141.124 888.054 140.383 889.294 139.84C890.534 139.295 891.963 139.022 893.582 139.022C894.926 139.022 896.096 139.225 897.095 139.63C898.111 140.018 898.895 140.571 899.446 141.287C900.013 142.002 900.298 142.859 900.298 143.854C900.298 144.384 900.221 144.912 900.065 145.441C899.927 145.955 899.635 146.499 899.187 147.075C898.757 147.652 898.12 148.297 897.275 149.013L893.108 152.561H900.892V155.642H887.228ZM904.737 155.478C905.977 155.774 907.224 155.921 908.482 155.921C910.204 155.921 911.616 155.672 912.718 155.174C913.82 154.676 914.638 154.031 915.171 153.237C915.706 152.428 915.973 151.565 915.973 150.647C915.973 149.23 915.404 148.071 914.268 147.168C913.473 146.537 912.411 146.126 911.082 145.936L915.146 141.753V139.303H902.49V142.337H910.182L906.467 146.142V148.64H908.379C909.567 148.64 910.428 148.818 910.961 149.176C911.496 149.534 911.762 150.024 911.762 150.647C911.762 151.3 911.462 151.814 910.859 152.187C910.256 152.561 909.429 152.747 908.379 152.747C907.448 152.747 906.528 152.615 905.614 152.351C904.702 152.086 903.901 151.728 903.213 151.277L901.586 154.172C902.446 154.731 903.497 155.168 904.737 155.478Z" />
                  </mask>
                  <path fill-rule="evenodd" clip-rule="evenodd" d="M204.407 4.36494C208.678 2.43682 212.816 1.28088 217.832 0.616085C224.954 -0.328559 235.823 1.30717 242.556 4.33642C245.069 5.46725 247.376 7.46159 247.942 8.99336C248.717 11.0894 248.218 13.0369 246.568 14.3563C245.432 15.2655 242.827 16.4112 241.003 16.8041C238.429 17.3592 234.425 17.1102 223.887 15.7407C212.689 14.2843 207.741 14.635 201.861 17.3033C195.947 19.9864 191.561 24.7165 188.039 32.2063C187.595 33.1532 187.231 33.9653 187.231 34.0133C187.231 34.0613 228.221 34.0761 278.319 34.0476L369.407 33.995L370.262 31.7905C373.737 22.8112 380.709 14.4408 389.812 8.32289C397.489 3.16218 406.623 0.295105 415.378 0.295105C419.533 0.295105 426 1.32545 430.796 2.75097C437.412 4.71679 440.824 7.45701 440.817 10.7935C440.812 12.9718 439.456 14.571 436.539 15.8412C432.798 17.4689 430.197 17.4826 417.992 15.9337C410.075 14.9297 406.365 14.6886 403.355 14.9833C397.202 15.5876 392.703 17.462 388.531 21.1629C386.389 23.0614 384.912 24.785 383.311 27.2523C382.2 28.9668 380.323 32.6072 380.062 33.5575L379.913 34.099H435.728H491.543V32.3148V30.5306H503.531H515.519V32.3148V34.099H588.581H661.643L662.155 32.6826C664.593 25.9204 669.147 19.3239 675.167 13.8342C680.031 9.3989 683.987 6.73168 689.191 4.38321C696.686 0.999853 704.728 -0.306835 712.413 0.609252C721.093 1.64413 728.37 4.04966 731.226 6.82876C733.471 9.01504 733.744 11.9027 731.891 13.8742C730.891 14.9377 728.01 16.3335 725.858 16.7972C723.249 17.3604 719.29 17.1159 708.71 15.7407C697.53 14.2866 692.618 14.6327 686.694 17.2918C680.827 19.9247 676.383 24.7176 672.863 32.2063C672.419 33.1532 672.055 33.9653 672.055 34.0133C672.055 34.0601 715.057 34.099 767.613 34.099H863.172V32.3148V30.5306H875.16H887.148V32.3148V34.099H905.821H924.495V40.8177V47.5364L867.725 47.589L810.954 47.6427L810.896 95.9851L810.838 144.329L827.38 144.382L843.921 144.436L845.305 146.959C846.066 148.347 847.493 150.973 848.478 152.794L850.268 156.104L829.343 156.035C808.99 155.967 808.374 155.953 806.804 155.531C800.82 153.923 797.178 151.242 794.441 146.43L793.664 145.067L793.549 96.3541L793.434 47.6427H734.531H675.628L675.568 61.2389L675.509 74.8363L676.838 73.6267C679.704 71.0143 684.831 69.5408 693.956 68.7047C697.704 68.3609 711.299 68.3666 715.397 68.7138C727.013 69.6973 734.576 71.7328 739.374 75.1653C741.729 76.8512 743.646 79.5881 744.213 82.0748C744.374 82.783 744.436 87.4674 744.393 95.8412L744.329 108.533L743.697 110.084C741.355 115.843 734.868 124.04 730.148 127.204L728.717 128.164H716.61H704.503L707.356 125.48C711.718 121.377 716.092 115.948 718.392 111.784C718.946 110.781 719.334 110.099 719.606 109.382C720.259 107.652 720.238 105.712 720.238 98.5552V89.5999L718.175 88.1973C711.721 83.8076 708.602 82.7864 700.482 82.406C687.795 81.8109 678.66 84.2142 676.194 88.7958L675.628 89.8455L675.566 117.088L675.504 144.331H666.863H658.222V96.0331C658.222 57.5871 658.164 47.7135 657.934 47.6335C657.776 47.5787 651.006 47.5581 642.891 47.5878L628.137 47.6427L629.867 48.3623C635.278 50.6137 648.071 56.8584 648.244 57.3313C648.281 57.4306 644.289 61.1715 639.376 65.6446L630.443 73.7774L628.599 72.8122C625.441 71.1571 616.302 66.9433 612.921 65.5806C600.875 60.7283 592.158 58.8756 588.139 60.3114C586.466 60.9088 584.034 62.5971 582.705 64.0831C581.666 65.2459 575.689 73.8494 575.689 74.1829C575.689 74.2755 579.658 74.4068 584.507 74.4765C596.801 74.6524 602.962 75.1013 609.589 76.3052C619.633 78.1294 627.766 81.6361 634.313 86.967C638.937 90.7319 640.805 94.0479 640.783 98.4535C640.77 100.787 640.148 102.975 638.749 105.593C635.457 111.756 627.782 119.366 616.833 127.322L613.94 129.423H583.519C566.787 129.423 553.096 129.354 553.096 129.267C553.096 129.181 557.116 125.45 562.029 120.974L570.961 112.837H596.943C612.57 112.837 622.975 112.759 623.055 112.643C623.252 112.352 622.193 109.851 621.308 108.517C620.879 107.873 620.036 106.813 619.433 106.161C615.31 101.714 605.379 96.0423 598.557 94.2421C592.285 92.5858 580.921 91.6411 561.857 91.19C556.341 91.0597 551.801 90.9295 551.765 90.901C551.73 90.8724 552.158 89.6788 552.717 88.2475C556.891 77.5606 561.795 69.1719 566.882 64.0192C574.309 56.4951 585.013 50.7416 596.518 48.087C597.26 47.9168 597.925 47.7226 597.997 47.6575C598.07 47.5913 549.819 47.5376 490.775 47.5376H383.42V61.2264V74.914L383.961 74.2458C386.884 70.6385 395.002 68.7458 409.01 68.4043C420.831 68.1164 432.321 69.2804 439.301 71.4735C442.554 72.4958 443.335 72.8385 445.817 74.3326C448.866 76.167 450.693 78.303 451.72 81.2364C452.23 82.6904 452.236 82.8458 452.236 95.3044V107.902L451.578 109.688C449.436 115.498 442.329 124.481 437.439 127.558L436.476 128.164H424.368H412.26L414.501 126.117C419.662 121.405 425.383 113.997 427.227 109.642L427.914 108.021V98.7928V89.5645L425.712 88.0636C419.42 83.7744 416.314 82.7761 408.088 82.4003C395.719 81.8349 386.626 84.1685 384.036 88.5753L383.535 89.4252L383.475 116.878L383.414 144.331H374.655H365.9V96.0331C365.9 57.5871 365.84 47.7135 365.611 47.6335C365.452 47.5787 358.739 47.5581 350.692 47.5878L336.062 47.6427L342.394 50.5177C348.766 53.4133 355.775 56.9338 355.913 57.3096C355.953 57.4215 351.966 61.1624 347.053 65.624L338.119 73.7375L335.468 72.3873C328.832 69.0097 319.744 65.0598 314.028 63.07C306.895 60.5878 300.459 59.3759 297.429 59.9459C294.149 60.5638 290.602 63.3018 288.117 67.1352C287.381 68.2718 286.011 70.2947 285.072 71.6323C284.134 72.9687 283.367 74.1407 283.367 74.2378C283.367 74.3337 285.986 74.4125 289.187 74.4137C313.493 74.4148 326.487 76.9084 337.427 83.6728C340.345 85.4764 343.662 88.1104 345.141 89.7976C349.969 95.3066 349.647 101.778 344.171 109.267C340.357 114.485 333.212 121.038 323.993 127.776L321.751 129.415L291.416 129.419C274.732 129.422 261.016 129.364 260.936 129.292C260.857 129.22 264.802 125.488 269.701 120.998L278.611 112.837H304.734C326.074 112.837 330.857 112.787 330.857 112.563C330.857 111.83 329.774 109.517 328.795 108.159C326.673 105.215 323.997 102.969 318.955 99.9019C315.928 98.0606 310.104 95.3203 307.657 94.5859C303.047 93.2026 295.312 92.2671 283.25 91.6343C279.186 91.4207 264.703 91.0061 261.184 91.0026L259.406 91.0003L260.229 88.8483C264.033 78.8902 268.671 70.5563 273.225 65.4892C275.164 63.3327 279.686 59.4182 282.338 57.602C288.171 53.6052 294.755 50.6274 302.04 48.6901C303.625 48.2675 305.129 47.8426 305.382 47.7443C305.637 47.645 280.225 47.5821 248.439 47.6038L191.035 47.6427L190.977 66.0524C190.921 83.4512 190.94 84.4689 191.322 84.5763C191.874 84.7305 204.639 86.8848 209.478 87.6387C220.317 89.3281 228.681 89.5588 232.301 88.2692L232.994 88.0225L231.265 86.5364C225.275 81.3883 218.764 77.9284 210.568 75.5388C208.701 74.9939 207.09 74.4845 206.988 74.4068C206.815 74.2743 224.344 58.4393 224.846 58.2748C225.383 58.0989 235.494 62.6736 240.158 65.2037C247.735 69.3135 252.093 73.1058 252.942 76.3292C253.481 78.3784 252.828 80.8925 251.057 83.5757C250.087 85.0458 246.863 88.1904 245.006 89.4789C243.91 90.2385 238.217 94.37 234.2 97.3204C233.763 97.6403 233.897 97.7294 237.153 99.2737C242.427 101.775 245.489 103.711 248.447 106.416C251.176 108.912 252.181 110.318 252.813 112.531C253.72 115.703 252.701 119.682 250.041 123.37C248.683 125.249 244.495 129.082 241.942 130.78C233.572 136.348 225.958 139.173 211.669 142.015C209.323 142.482 207.223 142.901 207.004 142.947C206.69 143.013 206.652 142.957 206.826 142.684C206.948 142.493 211.018 138.728 215.87 134.317L224.694 126.297L228.613 125.851C230.768 125.605 232.616 125.33 232.718 125.239C232.95 125.034 231.279 120.304 230.103 117.833C227.718 112.822 224.249 109.039 220.417 107.267C218.76 106.502 214.917 105.346 212.44 104.867C210.022 104.401 191.442 102.489 191.114 102.674C191.007 102.734 190.92 112.131 190.92 123.557V144.331H182.16H173.4L173.342 95.9863L173.284 47.6427L100.491 47.589L27.6985 47.5364V52.8913V58.2451L49.5421 58.2565L71.3856 58.2679L65.1651 63.8204L58.9448 69.3741H43.3369H27.7289L27.656 89.8981C27.616 101.186 27.6622 110.845 27.7588 111.362C28.0402 112.867 29.18 114.835 30.3925 115.909C31.7701 117.131 34.5593 118.373 37.0353 118.869C38.4407 119.15 39.9224 119.237 43.2599 119.233C48.4793 119.229 50.0587 118.927 54.0952 117.16C57.885 115.502 61.2776 113.038 64.889 109.32L65.7561 108.428H68.8206C70.5061 108.428 71.9423 108.479 72.0122 108.543C72.3268 108.83 69.6158 114.35 67.7879 117.145C61.3101 127.049 52.5075 133.316 42.2683 135.315C37.3163 136.282 29.8787 136.057 25.1233 134.794C18.7978 133.118 13.0076 129.486 10.8668 125.854L10.0622 124.49L10.0021 86.0133L9.94212 47.5376H5.21838H0.494873V40.8188V34.099H5.22092H9.94696V23.4966V12.893H18.8227H27.6985V23.4966V34.099H68.5038H109.309V32.3148V30.5306H121.297H133.285V32.3148V34.099H155.052H176.82L177.45 32.3719C181.684 20.7986 192.191 9.87975 204.407 4.36494ZM761.78 10.1882C763.111 8.95569 764.203 8.31713 765.811 7.83396C767.602 7.29367 770.728 7.39539 772.628 8.05447C775.256 8.96599 777.45 11.0483 778.352 13.4881C778.761 14.5904 778.83 15.1855 778.758 16.956C778.658 19.4073 778.111 20.7175 776.485 22.4C770.668 28.4197 759.599 25.1197 759.032 17.197C758.827 14.3494 759.704 12.1129 761.78 10.1882ZM81.8749 113.591C81.426 111.973 81.414 111.232 81.414 85.2971V58.6654H121.643H161.873V97.2987V135.933H153.228H144.583L144.525 104.28L144.467 72.6283L123.679 72.5746L102.891 72.521L102.7 73.9396C102.595 74.7198 102.509 80.2712 102.509 86.276C102.508 95.5088 102.572 97.6643 102.922 100.239C103.745 106.294 104.947 109.76 106.712 111.173C108.555 112.645 113.035 114.148 117.947 114.939C122.159 115.617 130.785 116.406 133.996 116.406H134.668V122.286V128.164L119.28 128.162C102.928 128.161 101.675 128.1 97.7823 127.108C95.6613 126.567 92.3181 125.148 90.4618 124C85.8387 121.141 83.023 117.727 81.8749 113.591ZM463.669 112.029C463.497 111.021 463.418 102.313 463.418 84.6083V58.6654H503.761H544.105V97.2987V135.933H535.346H526.585V104.226V72.521L505.779 72.5746L484.973 72.6283L484.791 74.7278C484.486 78.2631 484.503 94.7903 484.815 97.9293C485.192 101.716 485.915 105.586 486.614 107.554C487.668 110.526 489.109 111.843 492.695 113.116C497.286 114.743 504.023 115.747 514.193 116.317L516.672 116.457V122.31V128.164H501.428C484.852 128.164 483.327 128.081 479.463 126.971C476.862 126.223 473.508 124.645 471.301 123.131C466.933 120.134 464.429 116.491 463.669 112.029ZM836.116 115.063C835.102 112.881 835.178 110.287 835.106 85.3839L835.029 58.6654H875.381H915.734V97.2987V135.933H906.974H898.213V104.228V72.5232H877.48H856.745L856.599 73.4153C856.332 75.0556 856.138 87.0539 856.293 92.3653C856.571 101.901 857.689 107.739 859.728 110.301C862.29 113.522 870.967 115.515 885.937 116.321L888.531 116.46V122.322V128.185L872.105 128.109C856.379 128.036 855.59 128.014 853.602 127.59C845.918 125.956 839.593 121.761 836.86 116.491C836.562 115.916 836.317 115.498 836.116 115.063ZM759.66 135.092V96.9846V58.8756H768.535H777.411V96.9846V135.092H768.535H759.66ZM854.562 153.19V155.642H868.226V152.561H860.442L864.609 149.013C865.454 148.297 866.091 147.652 866.522 147.075C866.969 146.499 867.261 145.955 867.399 145.441C867.554 144.912 867.632 144.384 867.632 143.854C867.632 142.859 867.347 142.002 866.78 141.287C866.229 140.571 865.445 140.018 864.429 139.63C863.43 139.225 862.259 139.022 860.916 139.022C859.298 139.022 857.868 139.295 856.628 139.84C855.388 140.383 854.424 141.124 853.735 142.057L856.784 143.831C857.231 143.271 857.773 142.859 858.411 142.594C859.065 142.329 859.771 142.197 860.529 142.197C861.476 142.197 862.19 142.375 862.673 142.734C863.172 143.076 863.421 143.574 863.421 144.227C863.421 144.476 863.371 144.749 863.267 145.045C863.181 145.34 863.008 145.667 862.75 146.025C862.492 146.383 862.088 146.787 861.536 147.238L854.562 153.19ZM873.724 154.941C874.895 155.595 876.221 155.921 877.702 155.921C879.2 155.921 880.526 155.595 881.68 154.941C882.85 154.272 883.772 153.308 884.443 152.047C885.114 150.787 885.451 149.261 885.451 147.472C885.451 145.682 885.114 144.157 884.443 142.898C883.772 141.636 882.85 140.679 881.68 140.026C880.526 139.357 879.2 139.022 877.702 139.022C876.221 139.022 874.895 139.357 873.724 140.026C872.552 140.679 871.632 141.636 870.96 142.898C870.289 144.157 869.952 145.682 869.952 147.472C869.952 149.261 870.289 150.787 870.96 152.047C871.632 153.308 872.552 154.272 873.724 154.941ZM879.536 152.187C879.019 152.545 878.407 152.724 877.702 152.724C877.013 152.724 876.401 152.545 875.868 152.187C875.351 151.829 874.938 151.261 874.628 150.483C874.335 149.705 874.189 148.701 874.189 147.472C874.189 146.243 874.335 145.239 874.628 144.461C874.938 143.683 875.351 143.115 875.868 142.757C876.401 142.399 877.013 142.22 877.702 142.22C878.407 142.22 879.019 142.399 879.536 142.757C880.07 143.115 880.483 143.683 880.775 144.461C881.086 145.239 881.24 146.243 881.24 147.472C881.24 148.701 881.086 149.705 880.775 150.483C880.483 151.261 880.07 151.829 879.536 152.187ZM887.228 155.642V153.19L894.201 147.238C894.752 146.787 895.158 146.383 895.416 146.025C895.674 145.667 895.847 145.34 895.933 145.045C896.035 144.749 896.087 144.476 896.087 144.227C896.087 143.574 895.838 143.076 895.339 142.734C894.856 142.375 894.142 142.197 893.195 142.197C892.437 142.197 891.731 142.329 891.077 142.594C890.44 142.859 889.897 143.271 889.45 143.831L886.401 142.057C887.09 141.124 888.054 140.383 889.294 139.84C890.534 139.295 891.963 139.022 893.582 139.022C894.926 139.022 896.096 139.225 897.095 139.63C898.111 140.018 898.895 140.571 899.446 141.287C900.013 142.002 900.298 142.859 900.298 143.854C900.298 144.384 900.221 144.912 900.065 145.441C899.927 145.955 899.635 146.499 899.187 147.075C898.757 147.652 898.12 148.297 897.275 149.013L893.108 152.561H900.892V155.642H887.228ZM904.737 155.478C905.977 155.774 907.224 155.921 908.482 155.921C910.204 155.921 911.616 155.672 912.718 155.174C913.82 154.676 914.638 154.031 915.171 153.237C915.706 152.428 915.973 151.565 915.973 150.647C915.973 149.23 915.404 148.071 914.268 147.168C913.473 146.537 912.411 146.126 911.082 145.936L915.146 141.753V139.303H902.49V142.337H910.182L906.467 146.142V148.64H908.379C909.567 148.64 910.428 148.818 910.961 149.176C911.496 149.534 911.762 150.024 911.762 150.647C911.762 151.3 911.462 151.814 910.859 152.187C910.256 152.561 909.429 152.747 908.379 152.747C907.448 152.747 906.528 152.615 905.614 152.351C904.702 152.086 903.901 151.728 903.213 151.277L901.586 154.172C902.446 154.731 903.497 155.168 904.737 155.478Z" fill="#F8F8F8" />
                  <path fill-rule="evenodd" clip-rule="evenodd" d="M204.407 4.36494C208.678 2.43682 212.816 1.28088 217.832 0.616085C224.954 -0.328559 235.823 1.30717 242.556 4.33642C245.069 5.46725 247.376 7.46159 247.942 8.99336C248.717 11.0894 248.218 13.0369 246.568 14.3563C245.432 15.2655 242.827 16.4112 241.003 16.8041C238.429 17.3592 234.425 17.1102 223.887 15.7407C212.689 14.2843 207.741 14.635 201.861 17.3033C195.947 19.9864 191.561 24.7165 188.039 32.2063C187.595 33.1532 187.231 33.9653 187.231 34.0133C187.231 34.0613 228.221 34.0761 278.319 34.0476L369.407 33.995L370.262 31.7905C373.737 22.8112 380.709 14.4408 389.812 8.32289C397.489 3.16218 406.623 0.295105 415.378 0.295105C419.533 0.295105 426 1.32545 430.796 2.75097C437.412 4.71679 440.824 7.45701 440.817 10.7935C440.812 12.9718 439.456 14.571 436.539 15.8412C432.798 17.4689 430.197 17.4826 417.992 15.9337C410.075 14.9297 406.365 14.6886 403.355 14.9833C397.202 15.5876 392.703 17.462 388.531 21.1629C386.389 23.0614 384.912 24.785 383.311 27.2523C382.2 28.9668 380.323 32.6072 380.062 33.5575L379.913 34.099H435.728H491.543V32.3148V30.5306H503.531H515.519V32.3148V34.099H588.581H661.643L662.155 32.6826C664.593 25.9204 669.147 19.3239 675.167 13.8342C680.031 9.3989 683.987 6.73168 689.191 4.38321C696.686 0.999853 704.728 -0.306835 712.413 0.609252C721.093 1.64413 728.37 4.04966 731.226 6.82876C733.471 9.01504 733.744 11.9027 731.891 13.8742C730.891 14.9377 728.01 16.3335 725.858 16.7972C723.249 17.3604 719.29 17.1159 708.71 15.7407C697.53 14.2866 692.618 14.6327 686.694 17.2918C680.827 19.9247 676.383 24.7176 672.863 32.2063C672.419 33.1532 672.055 33.9653 672.055 34.0133C672.055 34.0601 715.057 34.099 767.613 34.099H863.172V32.3148V30.5306H875.16H887.148V32.3148V34.099H905.821H924.495V40.8177V47.5364L867.725 47.589L810.954 47.6427L810.896 95.9851L810.838 144.329L827.38 144.382L843.921 144.436L845.305 146.959C846.066 148.347 847.493 150.973 848.478 152.794L850.268 156.104L829.343 156.035C808.99 155.967 808.374 155.953 806.804 155.531C800.82 153.923 797.178 151.242 794.441 146.43L793.664 145.067L793.549 96.3541L793.434 47.6427H734.531H675.628L675.568 61.2389L675.509 74.8363L676.838 73.6267C679.704 71.0143 684.831 69.5408 693.956 68.7047C697.704 68.3609 711.299 68.3666 715.397 68.7138C727.013 69.6973 734.576 71.7328 739.374 75.1653C741.729 76.8512 743.646 79.5881 744.213 82.0748C744.374 82.783 744.436 87.4674 744.393 95.8412L744.329 108.533L743.697 110.084C741.355 115.843 734.868 124.04 730.148 127.204L728.717 128.164H716.61H704.503L707.356 125.48C711.718 121.377 716.092 115.948 718.392 111.784C718.946 110.781 719.334 110.099 719.606 109.382C720.259 107.652 720.238 105.712 720.238 98.5552V89.5999L718.175 88.1973C711.721 83.8076 708.602 82.7864 700.482 82.406C687.795 81.8109 678.66 84.2142 676.194 88.7958L675.628 89.8455L675.566 117.088L675.504 144.331H666.863H658.222V96.0331C658.222 57.5871 658.164 47.7135 657.934 47.6335C657.776 47.5787 651.006 47.5581 642.891 47.5878L628.137 47.6427L629.867 48.3623C635.278 50.6137 648.071 56.8584 648.244 57.3313C648.281 57.4306 644.289 61.1715 639.376 65.6446L630.443 73.7774L628.599 72.8122C625.441 71.1571 616.302 66.9433 612.921 65.5806C600.875 60.7283 592.158 58.8756 588.139 60.3114C586.466 60.9088 584.034 62.5971 582.705 64.0831C581.666 65.2459 575.689 73.8494 575.689 74.1829C575.689 74.2755 579.658 74.4068 584.507 74.4765C596.801 74.6524 602.962 75.1013 609.589 76.3052C619.633 78.1294 627.766 81.6361 634.313 86.967C638.937 90.7319 640.805 94.0479 640.783 98.4535C640.77 100.787 640.148 102.975 638.749 105.593C635.457 111.756 627.782 119.366 616.833 127.322L613.94 129.423H583.519C566.787 129.423 553.096 129.354 553.096 129.267C553.096 129.181 557.116 125.45 562.029 120.974L570.961 112.837H596.943C612.57 112.837 622.975 112.759 623.055 112.643C623.252 112.352 622.193 109.851 621.308 108.517C620.879 107.873 620.036 106.813 619.433 106.161C615.31 101.714 605.379 96.0423 598.557 94.2421C592.285 92.5858 580.921 91.6411 561.857 91.19C556.341 91.0597 551.801 90.9295 551.765 90.901C551.73 90.8724 552.158 89.6788 552.717 88.2475C556.891 77.5606 561.795 69.1719 566.882 64.0192C574.309 56.4951 585.013 50.7416 596.518 48.087C597.26 47.9168 597.925 47.7226 597.997 47.6575C598.07 47.5913 549.819 47.5376 490.775 47.5376H383.42V61.2264V74.914L383.961 74.2458C386.884 70.6385 395.002 68.7458 409.01 68.4043C420.831 68.1164 432.321 69.2804 439.301 71.4735C442.554 72.4958 443.335 72.8385 445.817 74.3326C448.866 76.167 450.693 78.303 451.72 81.2364C452.23 82.6904 452.236 82.8458 452.236 95.3044V107.902L451.578 109.688C449.436 115.498 442.329 124.481 437.439 127.558L436.476 128.164H424.368H412.26L414.501 126.117C419.662 121.405 425.383 113.997 427.227 109.642L427.914 108.021V98.7928V89.5645L425.712 88.0636C419.42 83.7744 416.314 82.7761 408.088 82.4003C395.719 81.8349 386.626 84.1685 384.036 88.5753L383.535 89.4252L383.475 116.878L383.414 144.331H374.655H365.9V96.0331C365.9 57.5871 365.84 47.7135 365.611 47.6335C365.452 47.5787 358.739 47.5581 350.692 47.5878L336.062 47.6427L342.394 50.5177C348.766 53.4133 355.775 56.9338 355.913 57.3096C355.953 57.4215 351.966 61.1624 347.053 65.624L338.119 73.7375L335.468 72.3873C328.832 69.0097 319.744 65.0598 314.028 63.07C306.895 60.5878 300.459 59.3759 297.429 59.9459C294.149 60.5638 290.602 63.3018 288.117 67.1352C287.381 68.2718 286.011 70.2947 285.072 71.6323C284.134 72.9687 283.367 74.1407 283.367 74.2378C283.367 74.3337 285.986 74.4125 289.187 74.4137C313.493 74.4148 326.487 76.9084 337.427 83.6728C340.345 85.4764 343.662 88.1104 345.141 89.7976C349.969 95.3066 349.647 101.778 344.171 109.267C340.357 114.485 333.212 121.038 323.993 127.776L321.751 129.415L291.416 129.419C274.732 129.422 261.016 129.364 260.936 129.292C260.857 129.22 264.802 125.488 269.701 120.998L278.611 112.837H304.734C326.074 112.837 330.857 112.787 330.857 112.563C330.857 111.83 329.774 109.517 328.795 108.159C326.673 105.215 323.997 102.969 318.955 99.9019C315.928 98.0606 310.104 95.3203 307.657 94.5859C303.047 93.2026 295.312 92.2671 283.25 91.6343C279.186 91.4207 264.703 91.0061 261.184 91.0026L259.406 91.0003L260.229 88.8483C264.033 78.8902 268.671 70.5563 273.225 65.4892C275.164 63.3327 279.686 59.4182 282.338 57.602C288.171 53.6052 294.755 50.6274 302.04 48.6901C303.625 48.2675 305.129 47.8426 305.382 47.7443C305.637 47.645 280.225 47.5821 248.439 47.6038L191.035 47.6427L190.977 66.0524C190.921 83.4512 190.94 84.4689 191.322 84.5763C191.874 84.7305 204.639 86.8848 209.478 87.6387C220.317 89.3281 228.681 89.5588 232.301 88.2692L232.994 88.0225L231.265 86.5364C225.275 81.3883 218.764 77.9284 210.568 75.5388C208.701 74.9939 207.09 74.4845 206.988 74.4068C206.815 74.2743 224.344 58.4393 224.846 58.2748C225.383 58.0989 235.494 62.6736 240.158 65.2037C247.735 69.3135 252.093 73.1058 252.942 76.3292C253.481 78.3784 252.828 80.8925 251.057 83.5757C250.087 85.0458 246.863 88.1904 245.006 89.4789C243.91 90.2385 238.217 94.37 234.2 97.3204C233.763 97.6403 233.897 97.7294 237.153 99.2737C242.427 101.775 245.489 103.711 248.447 106.416C251.176 108.912 252.181 110.318 252.813 112.531C253.72 115.703 252.701 119.682 250.041 123.37C248.683 125.249 244.495 129.082 241.942 130.78C233.572 136.348 225.958 139.173 211.669 142.015C209.323 142.482 207.223 142.901 207.004 142.947C206.69 143.013 206.652 142.957 206.826 142.684C206.948 142.493 211.018 138.728 215.87 134.317L224.694 126.297L228.613 125.851C230.768 125.605 232.616 125.33 232.718 125.239C232.95 125.034 231.279 120.304 230.103 117.833C227.718 112.822 224.249 109.039 220.417 107.267C218.76 106.502 214.917 105.346 212.44 104.867C210.022 104.401 191.442 102.489 191.114 102.674C191.007 102.734 190.92 112.131 190.92 123.557V144.331H182.16H173.4L173.342 95.9863L173.284 47.6427L100.491 47.589L27.6985 47.5364V52.8913V58.2451L49.5421 58.2565L71.3856 58.2679L65.1651 63.8204L58.9448 69.3741H43.3369H27.7289L27.656 89.8981C27.616 101.186 27.6622 110.845 27.7588 111.362C28.0402 112.867 29.18 114.835 30.3925 115.909C31.7701 117.131 34.5593 118.373 37.0353 118.869C38.4407 119.15 39.9224 119.237 43.2599 119.233C48.4793 119.229 50.0587 118.927 54.0952 117.16C57.885 115.502 61.2776 113.038 64.889 109.32L65.7561 108.428H68.8206C70.5061 108.428 71.9423 108.479 72.0122 108.543C72.3268 108.83 69.6158 114.35 67.7879 117.145C61.3101 127.049 52.5075 133.316 42.2683 135.315C37.3163 136.282 29.8787 136.057 25.1233 134.794C18.7978 133.118 13.0076 129.486 10.8668 125.854L10.0622 124.49L10.0021 86.0133L9.94212 47.5376H5.21838H0.494873V40.8188V34.099H5.22092H9.94696V23.4966V12.893H18.8227H27.6985V23.4966V34.099H68.5038H109.309V32.3148V30.5306H121.297H133.285V32.3148V34.099H155.052H176.82L177.45 32.3719C181.684 20.7986 192.191 9.87975 204.407 4.36494ZM761.78 10.1882C763.111 8.95569 764.203 8.31713 765.811 7.83396C767.602 7.29367 770.728 7.39539 772.628 8.05447C775.256 8.96599 777.45 11.0483 778.352 13.4881C778.761 14.5904 778.83 15.1855 778.758 16.956C778.658 19.4073 778.111 20.7175 776.485 22.4C770.668 28.4197 759.599 25.1197 759.032 17.197C758.827 14.3494 759.704 12.1129 761.78 10.1882ZM81.8749 113.591C81.426 111.973 81.414 111.232 81.414 85.2971V58.6654H121.643H161.873V97.2987V135.933H153.228H144.583L144.525 104.28L144.467 72.6283L123.679 72.5746L102.891 72.521L102.7 73.9396C102.595 74.7198 102.509 80.2712 102.509 86.276C102.508 95.5088 102.572 97.6643 102.922 100.239C103.745 106.294 104.947 109.76 106.712 111.173C108.555 112.645 113.035 114.148 117.947 114.939C122.159 115.617 130.785 116.406 133.996 116.406H134.668V122.286V128.164L119.28 128.162C102.928 128.161 101.675 128.1 97.7823 127.108C95.6613 126.567 92.3181 125.148 90.4618 124C85.8387 121.141 83.023 117.727 81.8749 113.591ZM463.669 112.029C463.497 111.021 463.418 102.313 463.418 84.6083V58.6654H503.761H544.105V97.2987V135.933H535.346H526.585V104.226V72.521L505.779 72.5746L484.973 72.6283L484.791 74.7278C484.486 78.2631 484.503 94.7903 484.815 97.9293C485.192 101.716 485.915 105.586 486.614 107.554C487.668 110.526 489.109 111.843 492.695 113.116C497.286 114.743 504.023 115.747 514.193 116.317L516.672 116.457V122.31V128.164H501.428C484.852 128.164 483.327 128.081 479.463 126.971C476.862 126.223 473.508 124.645 471.301 123.131C466.933 120.134 464.429 116.491 463.669 112.029ZM836.116 115.063C835.102 112.881 835.178 110.287 835.106 85.3839L835.029 58.6654H875.381H915.734V97.2987V135.933H906.974H898.213V104.228V72.5232H877.48H856.745L856.599 73.4153C856.332 75.0556 856.138 87.0539 856.293 92.3653C856.571 101.901 857.689 107.739 859.728 110.301C862.29 113.522 870.967 115.515 885.937 116.321L888.531 116.46V122.322V128.185L872.105 128.109C856.379 128.036 855.59 128.014 853.602 127.59C845.918 125.956 839.593 121.761 836.86 116.491C836.562 115.916 836.317 115.498 836.116 115.063ZM759.66 135.092V96.9846V58.8756H768.535H777.411V96.9846V135.092H768.535H759.66ZM854.562 153.19V155.642H868.226V152.561H860.442L864.609 149.013C865.454 148.297 866.091 147.652 866.522 147.075C866.969 146.499 867.261 145.955 867.399 145.441C867.554 144.912 867.632 144.384 867.632 143.854C867.632 142.859 867.347 142.002 866.78 141.287C866.229 140.571 865.445 140.018 864.429 139.63C863.43 139.225 862.259 139.022 860.916 139.022C859.298 139.022 857.868 139.295 856.628 139.84C855.388 140.383 854.424 141.124 853.735 142.057L856.784 143.831C857.231 143.271 857.773 142.859 858.411 142.594C859.065 142.329 859.771 142.197 860.529 142.197C861.476 142.197 862.19 142.375 862.673 142.734C863.172 143.076 863.421 143.574 863.421 144.227C863.421 144.476 863.371 144.749 863.267 145.045C863.181 145.34 863.008 145.667 862.75 146.025C862.492 146.383 862.088 146.787 861.536 147.238L854.562 153.19ZM873.724 154.941C874.895 155.595 876.221 155.921 877.702 155.921C879.2 155.921 880.526 155.595 881.68 154.941C882.85 154.272 883.772 153.308 884.443 152.047C885.114 150.787 885.451 149.261 885.451 147.472C885.451 145.682 885.114 144.157 884.443 142.898C883.772 141.636 882.85 140.679 881.68 140.026C880.526 139.357 879.2 139.022 877.702 139.022C876.221 139.022 874.895 139.357 873.724 140.026C872.552 140.679 871.632 141.636 870.96 142.898C870.289 144.157 869.952 145.682 869.952 147.472C869.952 149.261 870.289 150.787 870.96 152.047C871.632 153.308 872.552 154.272 873.724 154.941ZM879.536 152.187C879.019 152.545 878.407 152.724 877.702 152.724C877.013 152.724 876.401 152.545 875.868 152.187C875.351 151.829 874.938 151.261 874.628 150.483C874.335 149.705 874.189 148.701 874.189 147.472C874.189 146.243 874.335 145.239 874.628 144.461C874.938 143.683 875.351 143.115 875.868 142.757C876.401 142.399 877.013 142.22 877.702 142.22C878.407 142.22 879.019 142.399 879.536 142.757C880.07 143.115 880.483 143.683 880.775 144.461C881.086 145.239 881.24 146.243 881.24 147.472C881.24 148.701 881.086 149.705 880.775 150.483C880.483 151.261 880.07 151.829 879.536 152.187ZM887.228 155.642V153.19L894.201 147.238C894.752 146.787 895.158 146.383 895.416 146.025C895.674 145.667 895.847 145.34 895.933 145.045C896.035 144.749 896.087 144.476 896.087 144.227C896.087 143.574 895.838 143.076 895.339 142.734C894.856 142.375 894.142 142.197 893.195 142.197C892.437 142.197 891.731 142.329 891.077 142.594C890.44 142.859 889.897 143.271 889.45 143.831L886.401 142.057C887.09 141.124 888.054 140.383 889.294 139.84C890.534 139.295 891.963 139.022 893.582 139.022C894.926 139.022 896.096 139.225 897.095 139.63C898.111 140.018 898.895 140.571 899.446 141.287C900.013 142.002 900.298 142.859 900.298 143.854C900.298 144.384 900.221 144.912 900.065 145.441C899.927 145.955 899.635 146.499 899.187 147.075C898.757 147.652 898.12 148.297 897.275 149.013L893.108 152.561H900.892V155.642H887.228ZM904.737 155.478C905.977 155.774 907.224 155.921 908.482 155.921C910.204 155.921 911.616 155.672 912.718 155.174C913.82 154.676 914.638 154.031 915.171 153.237C915.706 152.428 915.973 151.565 915.973 150.647C915.973 149.23 915.404 148.071 914.268 147.168C913.473 146.537 912.411 146.126 911.082 145.936L915.146 141.753V139.303H902.49V142.337H910.182L906.467 146.142V148.64H908.379C909.567 148.64 910.428 148.818 910.961 149.176C911.496 149.534 911.762 150.024 911.762 150.647C911.762 151.3 911.462 151.814 910.859 152.187C910.256 152.561 909.429 152.747 908.379 152.747C907.448 152.747 906.528 152.615 905.614 152.351C904.702 152.086 903.901 151.728 903.213 151.277L901.586 154.172C902.446 154.731 903.497 155.168 904.737 155.478Z" stroke="white" stroke-width="2" mask="url(#path-1-inside-1_4_41)" />
                  <path fill-rule="evenodd" clip-rule="evenodd" d="M204.407 4.36494C208.678 2.43682 212.816 1.28088 217.832 0.616085C224.954 -0.328559 235.823 1.30717 242.556 4.33642C245.069 5.46725 247.376 7.46159 247.942 8.99336C248.717 11.0894 248.218 13.0369 246.568 14.3563C245.432 15.2655 242.827 16.4112 241.003 16.8041C238.429 17.3592 234.425 17.1102 223.887 15.7407C212.689 14.2843 207.741 14.635 201.861 17.3033C195.947 19.9864 191.561 24.7165 188.039 32.2063C187.595 33.1532 187.231 33.9653 187.231 34.0133C187.231 34.0613 228.221 34.0761 278.319 34.0476L369.407 33.995L370.262 31.7905C373.737 22.8112 380.709 14.4408 389.812 8.32289C397.489 3.16218 406.623 0.295105 415.378 0.295105C419.533 0.295105 426 1.32545 430.796 2.75097C437.412 4.71679 440.824 7.45701 440.817 10.7935C440.812 12.9718 439.456 14.571 436.539 15.8412C432.798 17.4689 430.197 17.4826 417.992 15.9337C410.075 14.9297 406.365 14.6886 403.355 14.9833C397.202 15.5876 392.703 17.462 388.531 21.1629C386.389 23.0614 384.912 24.785 383.311 27.2523C382.2 28.9668 380.323 32.6072 380.062 33.5575L379.913 34.099H435.728H491.543V32.3148V30.5306H503.531H515.519V32.3148V34.099H588.581H661.643L662.155 32.6826C664.593 25.9204 669.147 19.3239 675.167 13.8342C680.031 9.3989 683.987 6.73168 689.191 4.38321C696.686 0.999853 704.728 -0.306835 712.413 0.609252C721.093 1.64413 728.37 4.04966 731.226 6.82876C733.471 9.01504 733.744 11.9027 731.891 13.8742C730.891 14.9377 728.01 16.3335 725.858 16.7972C723.249 17.3604 719.29 17.1159 708.71 15.7407C697.53 14.2866 692.618 14.6327 686.694 17.2918C680.827 19.9247 676.383 24.7176 672.863 32.2063C672.419 33.1532 672.055 33.9653 672.055 34.0133C672.055 34.0601 715.057 34.099 767.613 34.099H863.172V32.3148V30.5306H875.16H887.148V32.3148V34.099H905.821H924.495V40.8177V47.5364L867.725 47.589L810.954 47.6427L810.896 95.9851L810.838 144.329L827.38 144.382L843.921 144.436L845.305 146.959C846.066 148.347 847.493 150.973 848.478 152.794L850.268 156.104L829.343 156.035C808.99 155.967 808.374 155.953 806.804 155.531C800.82 153.923 797.178 151.242 794.441 146.43L793.664 145.067L793.549 96.3541L793.434 47.6427H734.531H675.628L675.568 61.2389L675.509 74.8363L676.838 73.6267C679.704 71.0143 684.831 69.5408 693.956 68.7047C697.704 68.3609 711.299 68.3666 715.397 68.7138C727.013 69.6973 734.576 71.7328 739.374 75.1653C741.729 76.8512 743.646 79.5881 744.213 82.0748C744.374 82.783 744.436 87.4674 744.393 95.8412L744.329 108.533L743.697 110.084C741.355 115.843 734.868 124.04 730.148 127.204L728.717 128.164H716.61H704.503L707.356 125.48C711.718 121.377 716.092 115.948 718.392 111.784C718.946 110.781 719.334 110.099 719.606 109.382C720.259 107.652 720.238 105.712 720.238 98.5552V89.5999L718.175 88.1973C711.721 83.8076 708.602 82.7864 700.482 82.406C687.795 81.8109 678.66 84.2142 676.194 88.7958L675.628 89.8455L675.566 117.088L675.504 144.331H666.863H658.222V96.0331C658.222 57.5871 658.164 47.7135 657.934 47.6335C657.776 47.5787 651.006 47.5581 642.891 47.5878L628.137 47.6427L629.867 48.3623C635.278 50.6137 648.071 56.8584 648.244 57.3313C648.281 57.4306 644.289 61.1715 639.376 65.6446L630.443 73.7774L628.599 72.8122C625.441 71.1571 616.302 66.9433 612.921 65.5806C600.875 60.7283 592.158 58.8756 588.139 60.3114C586.466 60.9088 584.034 62.5971 582.705 64.0831C581.666 65.2459 575.689 73.8494 575.689 74.1829C575.689 74.2755 579.658 74.4068 584.507 74.4765C596.801 74.6524 602.962 75.1013 609.589 76.3052C619.633 78.1294 627.766 81.6361 634.313 86.967C638.937 90.7319 640.805 94.0479 640.783 98.4535C640.77 100.787 640.148 102.975 638.749 105.593C635.457 111.756 627.782 119.366 616.833 127.322L613.94 129.423H583.519C566.787 129.423 553.096 129.354 553.096 129.267C553.096 129.181 557.116 125.45 562.029 120.974L570.961 112.837H596.943C612.57 112.837 622.975 112.759 623.055 112.643C623.252 112.352 622.193 109.851 621.308 108.517C620.879 107.873 620.036 106.813 619.433 106.161C615.31 101.714 605.379 96.0423 598.557 94.2421C592.285 92.5858 580.921 91.6411 561.857 91.19C556.341 91.0597 551.801 90.9295 551.765 90.901C551.73 90.8724 552.158 89.6788 552.717 88.2475C556.891 77.5606 561.795 69.1719 566.882 64.0192C574.309 56.4951 585.013 50.7416 596.518 48.087C597.26 47.9168 597.925 47.7226 597.997 47.6575C598.07 47.5913 549.819 47.5376 490.775 47.5376H383.42V61.2264V74.914L383.961 74.2458C386.884 70.6385 395.002 68.7458 409.01 68.4043C420.831 68.1164 432.321 69.2804 439.301 71.4735C442.554 72.4958 443.335 72.8385 445.817 74.3326C448.866 76.167 450.693 78.303 451.72 81.2364C452.23 82.6904 452.236 82.8458 452.236 95.3044V107.902L451.578 109.688C449.436 115.498 442.329 124.481 437.439 127.558L436.476 128.164H424.368H412.26L414.501 126.117C419.662 121.405 425.383 113.997 427.227 109.642L427.914 108.021V98.7928V89.5645L425.712 88.0636C419.42 83.7744 416.314 82.7761 408.088 82.4003C395.719 81.8349 386.626 84.1685 384.036 88.5753L383.535 89.4252L383.475 116.878L383.414 144.331H374.655H365.9V96.0331C365.9 57.5871 365.84 47.7135 365.611 47.6335C365.452 47.5787 358.739 47.5581 350.692 47.5878L336.062 47.6427L342.394 50.5177C348.766 53.4133 355.775 56.9338 355.913 57.3096C355.953 57.4215 351.966 61.1624 347.053 65.624L338.119 73.7375L335.468 72.3873C328.832 69.0097 319.744 65.0598 314.028 63.07C306.895 60.5878 300.459 59.3759 297.429 59.9459C294.149 60.5638 290.602 63.3018 288.117 67.1352C287.381 68.2718 286.011 70.2947 285.072 71.6323C284.134 72.9687 283.367 74.1407 283.367 74.2378C283.367 74.3337 285.986 74.4125 289.187 74.4137C313.493 74.4148 326.487 76.9084 337.427 83.6728C340.345 85.4764 343.662 88.1104 345.141 89.7976C349.969 95.3066 349.647 101.778 344.171 109.267C340.357 114.485 333.212 121.038 323.993 127.776L321.751 129.415L291.416 129.419C274.732 129.422 261.016 129.364 260.936 129.292C260.857 129.22 264.802 125.488 269.701 120.998L278.611 112.837H304.734C326.074 112.837 330.857 112.787 330.857 112.563C330.857 111.83 329.774 109.517 328.795 108.159C326.673 105.215 323.997 102.969 318.955 99.9019C315.928 98.0606 310.104 95.3203 307.657 94.5859C303.047 93.2026 295.312 92.2671 283.25 91.6343C279.186 91.4207 264.703 91.0061 261.184 91.0026L259.406 91.0003L260.229 88.8483C264.033 78.8902 268.671 70.5563 273.225 65.4892C275.164 63.3327 279.686 59.4182 282.338 57.602C288.171 53.6052 294.755 50.6274 302.04 48.6901C303.625 48.2675 305.129 47.8426 305.382 47.7443C305.637 47.645 280.225 47.5821 248.439 47.6038L191.035 47.6427L190.977 66.0524C190.921 83.4512 190.94 84.4689 191.322 84.5763C191.874 84.7305 204.639 86.8848 209.478 87.6387C220.317 89.3281 228.681 89.5588 232.301 88.2692L232.994 88.0225L231.265 86.5364C225.275 81.3883 218.764 77.9284 210.568 75.5388C208.701 74.9939 207.09 74.4845 206.988 74.4068C206.815 74.2743 224.344 58.4393 224.846 58.2748C225.383 58.0989 235.494 62.6736 240.158 65.2037C247.735 69.3135 252.093 73.1058 252.942 76.3292C253.481 78.3784 252.828 80.8925 251.057 83.5757C250.087 85.0458 246.863 88.1904 245.006 89.4789C243.91 90.2385 238.217 94.37 234.2 97.3204C233.763 97.6403 233.897 97.7294 237.153 99.2737C242.427 101.775 245.489 103.711 248.447 106.416C251.176 108.912 252.181 110.318 252.813 112.531C253.72 115.703 252.701 119.682 250.041 123.37C248.683 125.249 244.495 129.082 241.942 130.78C233.572 136.348 225.958 139.173 211.669 142.015C209.323 142.482 207.223 142.901 207.004 142.947C206.69 143.013 206.652 142.957 206.826 142.684C206.948 142.493 211.018 138.728 215.87 134.317L224.694 126.297L228.613 125.851C230.768 125.605 232.616 125.33 232.718 125.239C232.95 125.034 231.279 120.304 230.103 117.833C227.718 112.822 224.249 109.039 220.417 107.267C218.76 106.502 214.917 105.346 212.44 104.867C210.022 104.401 191.442 102.489 191.114 102.674C191.007 102.734 190.92 112.131 190.92 123.557V144.331H182.16H173.4L173.342 95.9863L173.284 47.6427L100.491 47.589L27.6985 47.5364V52.8913V58.2451L49.5421 58.2565L71.3856 58.2679L65.1651 63.8204L58.9448 69.3741H43.3369H27.7289L27.656 89.8981C27.616 101.186 27.6622 110.845 27.7588 111.362C28.0402 112.867 29.18 114.835 30.3925 115.909C31.7701 117.131 34.5593 118.373 37.0353 118.869C38.4407 119.15 39.9224 119.237 43.2599 119.233C48.4793 119.229 50.0587 118.927 54.0952 117.16C57.885 115.502 61.2776 113.038 64.889 109.32L65.7561 108.428H68.8206C70.5061 108.428 71.9423 108.479 72.0122 108.543C72.3268 108.83 69.6158 114.35 67.7879 117.145C61.3101 127.049 52.5075 133.316 42.2683 135.315C37.3163 136.282 29.8787 136.057 25.1233 134.794C18.7978 133.118 13.0076 129.486 10.8668 125.854L10.0622 124.49L10.0021 86.0133L9.94212 47.5376H5.21838H0.494873V40.8188V34.099H5.22092H9.94696V23.4966V12.893H18.8227H27.6985V23.4966V34.099H68.5038H109.309V32.3148V30.5306H121.297H133.285V32.3148V34.099H155.052H176.82L177.45 32.3719C181.684 20.7986 192.191 9.87975 204.407 4.36494ZM761.78 10.1882C763.111 8.95569 764.203 8.31713 765.811 7.83396C767.602 7.29367 770.728 7.39539 772.628 8.05447C775.256 8.96599 777.45 11.0483 778.352 13.4881C778.761 14.5904 778.83 15.1855 778.758 16.956C778.658 19.4073 778.111 20.7175 776.485 22.4C770.668 28.4197 759.599 25.1197 759.032 17.197C758.827 14.3494 759.704 12.1129 761.78 10.1882ZM81.8749 113.591C81.426 111.973 81.414 111.232 81.414 85.2971V58.6654H121.643H161.873V97.2987V135.933H153.228H144.583L144.525 104.28L144.467 72.6283L123.679 72.5746L102.891 72.521L102.7 73.9396C102.595 74.7198 102.509 80.2712 102.509 86.276C102.508 95.5088 102.572 97.6643 102.922 100.239C103.745 106.294 104.947 109.76 106.712 111.173C108.555 112.645 113.035 114.148 117.947 114.939C122.159 115.617 130.785 116.406 133.996 116.406H134.668V122.286V128.164L119.28 128.162C102.928 128.161 101.675 128.1 97.7823 127.108C95.6613 126.567 92.3181 125.148 90.4618 124C85.8387 121.141 83.023 117.727 81.8749 113.591ZM463.669 112.029C463.497 111.021 463.418 102.313 463.418 84.6083V58.6654H503.761H544.105V97.2987V135.933H535.346H526.585V104.226V72.521L505.779 72.5746L484.973 72.6283L484.791 74.7278C484.486 78.2631 484.503 94.7903 484.815 97.9293C485.192 101.716 485.915 105.586 486.614 107.554C487.668 110.526 489.109 111.843 492.695 113.116C497.286 114.743 504.023 115.747 514.193 116.317L516.672 116.457V122.31V128.164H501.428C484.852 128.164 483.327 128.081 479.463 126.971C476.862 126.223 473.508 124.645 471.301 123.131C466.933 120.134 464.429 116.491 463.669 112.029ZM836.116 115.063C835.102 112.881 835.178 110.287 835.106 85.3839L835.029 58.6654H875.381H915.734V97.2987V135.933H906.974H898.213V104.228V72.5232H877.48H856.745L856.599 73.4153C856.332 75.0556 856.138 87.0539 856.293 92.3653C856.571 101.901 857.689 107.739 859.728 110.301C862.29 113.522 870.967 115.515 885.937 116.321L888.531 116.46V122.322V128.185L872.105 128.109C856.379 128.036 855.59 128.014 853.602 127.59C845.918 125.956 839.593 121.761 836.86 116.491C836.562 115.916 836.317 115.498 836.116 115.063ZM759.66 135.092V96.9846V58.8756H768.535H777.411V96.9846V135.092H768.535H759.66ZM854.562 153.19V155.642H868.226V152.561H860.442L864.609 149.013C865.454 148.297 866.091 147.652 866.522 147.075C866.969 146.499 867.261 145.955 867.399 145.441C867.554 144.912 867.632 144.384 867.632 143.854C867.632 142.859 867.347 142.002 866.78 141.287C866.229 140.571 865.445 140.018 864.429 139.63C863.43 139.225 862.259 139.022 860.916 139.022C859.298 139.022 857.868 139.295 856.628 139.84C855.388 140.383 854.424 141.124 853.735 142.057L856.784 143.831C857.231 143.271 857.773 142.859 858.411 142.594C859.065 142.329 859.771 142.197 860.529 142.197C861.476 142.197 862.19 142.375 862.673 142.734C863.172 143.076 863.421 143.574 863.421 144.227C863.421 144.476 863.371 144.749 863.267 145.045C863.181 145.34 863.008 145.667 862.75 146.025C862.492 146.383 862.088 146.787 861.536 147.238L854.562 153.19ZM873.724 154.941C874.895 155.595 876.221 155.921 877.702 155.921C879.2 155.921 880.526 155.595 881.68 154.941C882.85 154.272 883.772 153.308 884.443 152.047C885.114 150.787 885.451 149.261 885.451 147.472C885.451 145.682 885.114 144.157 884.443 142.898C883.772 141.636 882.85 140.679 881.68 140.026C880.526 139.357 879.2 139.022 877.702 139.022C876.221 139.022 874.895 139.357 873.724 140.026C872.552 140.679 871.632 141.636 870.96 142.898C870.289 144.157 869.952 145.682 869.952 147.472C869.952 149.261 870.289 150.787 870.96 152.047C871.632 153.308 872.552 154.272 873.724 154.941ZM879.536 152.187C879.019 152.545 878.407 152.724 877.702 152.724C877.013 152.724 876.401 152.545 875.868 152.187C875.351 151.829 874.938 151.261 874.628 150.483C874.335 149.705 874.189 148.701 874.189 147.472C874.189 146.243 874.335 145.239 874.628 144.461C874.938 143.683 875.351 143.115 875.868 142.757C876.401 142.399 877.013 142.22 877.702 142.22C878.407 142.22 879.019 142.399 879.536 142.757C880.07 143.115 880.483 143.683 880.775 144.461C881.086 145.239 881.24 146.243 881.24 147.472C881.24 148.701 881.086 149.705 880.775 150.483C880.483 151.261 880.07 151.829 879.536 152.187ZM887.228 155.642V153.19L894.201 147.238C894.752 146.787 895.158 146.383 895.416 146.025C895.674 145.667 895.847 145.34 895.933 145.045C896.035 144.749 896.087 144.476 896.087 144.227C896.087 143.574 895.838 143.076 895.339 142.734C894.856 142.375 894.142 142.197 893.195 142.197C892.437 142.197 891.731 142.329 891.077 142.594C890.44 142.859 889.897 143.271 889.45 143.831L886.401 142.057C887.09 141.124 888.054 140.383 889.294 139.84C890.534 139.295 891.963 139.022 893.582 139.022C894.926 139.022 896.096 139.225 897.095 139.63C898.111 140.018 898.895 140.571 899.446 141.287C900.013 142.002 900.298 142.859 900.298 143.854C900.298 144.384 900.221 144.912 900.065 145.441C899.927 145.955 899.635 146.499 899.187 147.075C898.757 147.652 898.12 148.297 897.275 149.013L893.108 152.561H900.892V155.642H887.228ZM904.737 155.478C905.977 155.774 907.224 155.921 908.482 155.921C910.204 155.921 911.616 155.672 912.718 155.174C913.82 154.676 914.638 154.031 915.171 153.237C915.706 152.428 915.973 151.565 915.973 150.647C915.973 149.23 915.404 148.071 914.268 147.168C913.473 146.537 912.411 146.126 911.082 145.936L915.146 141.753V139.303H902.49V142.337H910.182L906.467 146.142V148.64H908.379C909.567 148.64 910.428 148.818 910.961 149.176C911.496 149.534 911.762 150.024 911.762 150.647C911.762 151.3 911.462 151.814 910.859 152.187C910.256 152.561 909.429 152.747 908.379 152.747C907.448 152.747 906.528 152.615 905.614 152.351C904.702 152.086 903.901 151.728 903.213 151.277L901.586 154.172C902.446 154.731 903.497 155.168 904.737 155.478Z" stroke="white" stroke-width="2" mask="url(#path-1-inside-1_4_41)" />
                </mask>
                <g mask="url(#mask0_4_41)">
                  <path fill-rule="evenodd" clip-rule="evenodd" d="M203.958 4.09737C208.229 2.16924 212.368 1.0133 217.383 0.348507C224.505 -0.596137 235.374 1.03959 242.108 4.06884C244.62 5.19968 246.927 7.19402 247.494 8.72578C248.268 10.8218 247.769 12.7694 246.12 14.0887C244.983 14.9979 242.378 16.1436 240.554 16.5365C237.981 17.0917 233.976 16.8426 223.438 15.4731C212.24 14.0167 207.293 14.3674 201.412 17.0357C195.498 19.7188 191.112 24.4489 187.59 31.9387C187.147 32.8856 186.783 33.6977 186.783 33.7457C186.783 33.7937 227.772 33.8085 277.871 33.78L368.958 33.7274L369.813 31.5229C373.288 22.5436 380.26 14.1732 389.364 8.05531C397.04 2.89461 406.174 0.0275269 414.93 0.0275269C419.085 0.0275269 425.551 1.05787 430.347 2.4834C436.963 4.44921 440.376 7.18944 440.368 10.526C440.363 12.7043 439.007 14.3034 436.091 15.5736C432.349 17.2013 429.748 17.215 417.544 15.6661C409.626 14.6621 405.916 14.4211 402.906 14.7158C396.753 15.32 392.254 17.1945 388.082 20.8954C385.941 22.7938 384.463 24.5175 382.863 26.9847C381.752 28.6992 379.875 32.3396 379.613 33.29L379.464 33.8314H491.095V30.263H515.071V33.8314H661.194L661.706 32.415C664.144 25.6529 668.699 19.0563 674.718 13.5667C679.582 9.13132 683.538 6.4641 688.742 4.11563C696.238 0.732275 704.279 -0.574413 711.965 0.341674C720.645 1.37655 727.922 3.78208 730.777 6.56119C733.022 8.74746 733.295 11.6351 731.442 13.6066C730.442 14.6701 727.562 16.0659 725.409 16.5297C722.8 17.0928 718.841 16.8484 708.261 15.4731C697.081 14.019 692.169 14.3651 686.246 17.0243C680.378 19.6572 675.934 24.4501 672.415 31.9387C671.97 32.8856 671.606 33.6977 671.606 33.7457C671.606 33.7926 714.608 33.8314 767.165 33.8314H862.723V30.263H886.699V33.8314H924.046V47.2689L810.505 47.3751L810.389 144.061L843.472 144.169L844.856 146.692C845.617 148.08 847.044 150.706 848.029 152.526L849.819 155.837L828.894 155.767C808.541 155.7 807.926 155.686 806.356 155.263C800.372 153.655 796.729 150.974 793.992 146.163L793.215 144.799L792.985 47.3751H675.179L675.06 74.5687L676.389 73.3591C679.256 70.7467 684.382 69.2732 693.507 68.4371C697.255 68.0933 710.85 68.099 714.948 68.4462C726.564 69.4297 734.127 71.4652 738.925 74.8977C741.28 76.5837 743.198 79.3205 743.764 81.8072C743.926 82.5154 743.988 87.1998 743.945 95.5736L743.88 108.265L743.248 109.816C740.906 115.576 734.419 123.772 729.699 126.937L728.268 127.896H704.054L706.907 125.213C711.27 121.11 715.643 115.681 717.944 111.516C718.497 110.513 718.885 109.832 719.157 109.114C719.811 107.384 719.789 105.445 719.789 98.2876V89.3324L717.726 87.9297C711.272 83.54 708.154 82.5188 700.034 82.1385C687.347 81.5433 678.212 83.9466 675.745 88.5282L675.179 89.578L675.055 144.063H657.774V95.7655C657.774 57.3196 657.715 47.4459 657.485 47.366C657.327 47.3111 650.557 47.2906 642.442 47.3203L627.689 47.3751L629.418 48.0947C634.829 50.3461 647.622 56.5908 647.795 57.0637C647.832 57.1631 643.84 60.904 638.927 65.377L629.994 73.5099L628.15 72.5447C624.992 70.8895 615.854 66.6758 612.472 65.313C600.426 60.4608 591.709 58.608 587.69 60.0438C586.018 60.6412 583.586 62.3295 582.256 63.8156C581.217 64.9784 575.241 73.5818 575.241 73.9154C575.241 74.0079 579.21 74.1392 584.058 74.2089C596.352 74.3848 602.513 74.8337 609.14 76.0377C619.184 77.8619 627.317 81.3686 633.865 86.6995C638.488 90.4643 640.357 93.7803 640.334 98.186C640.321 100.52 639.699 102.707 638.3 105.325C635.009 111.489 627.333 119.098 616.385 127.054L613.491 129.156H583.07C566.338 129.156 552.647 129.086 552.647 128.999C552.647 128.914 556.667 125.182 561.58 120.707L570.512 112.569H596.494C612.121 112.569 622.526 112.492 622.606 112.375C622.803 112.085 621.744 109.583 620.859 108.249C620.431 107.605 619.587 106.545 618.985 105.894C614.861 101.446 604.93 95.7747 598.108 93.9745C591.836 92.3182 580.472 91.3736 561.408 90.9224C555.892 90.7922 551.352 90.6619 551.316 90.6334C551.281 90.6048 551.71 89.4112 552.268 87.9799C556.442 77.293 561.346 68.9043 566.433 63.7516C573.86 56.2276 584.564 50.474 596.069 47.8194C596.811 47.6492 597.476 47.4551 597.548 47.3899C597.621 47.3237 549.37 47.27 490.326 47.27H382.971V74.6464L383.512 73.9782C386.435 70.3709 394.554 68.4782 408.562 68.1367C420.383 67.8488 431.873 69.0128 438.853 71.2059C442.105 72.2283 442.886 72.5709 445.369 74.065C448.417 75.8995 450.244 78.0355 451.272 80.9688C451.781 82.4229 451.787 82.5782 451.787 95.0368V107.635L451.129 109.42C448.988 115.231 441.88 124.213 436.991 127.291L436.027 127.896H411.811L414.052 125.849C419.214 121.137 424.934 113.73 426.779 109.374L427.465 107.753V89.297L425.263 87.796C418.971 83.5069 415.865 82.5085 407.639 82.1327C395.27 81.5673 386.177 83.901 383.587 88.3078L383.086 89.1576L382.965 144.063H365.451V95.7655C365.451 57.3196 365.391 47.4459 365.163 47.366C365.003 47.3111 358.29 47.2906 350.243 47.3203L335.614 47.3751L341.945 50.2501C348.317 53.1458 355.326 56.6662 355.464 57.042C355.504 57.1539 351.518 60.8948 346.604 65.3565L337.67 73.4699L335.02 72.1197C328.383 68.7421 319.295 64.7922 313.579 62.8024C306.446 60.3203 300.01 59.1083 296.98 59.6783C293.7 60.2963 290.153 63.0343 287.668 66.8677C286.932 68.0042 285.562 70.0271 284.623 71.3647C283.685 72.7011 282.918 73.8731 282.918 73.9702C282.918 74.0661 285.537 74.145 288.739 74.1461C313.044 74.1472 326.039 76.6408 336.979 83.4052C339.896 85.2088 343.213 87.8429 344.692 89.53C349.52 95.0391 349.198 101.51 343.722 109C339.909 114.218 332.763 120.771 323.545 127.509L321.302 129.148L290.967 129.151C274.283 129.155 260.567 129.097 260.488 129.025C260.408 128.953 264.353 125.221 269.252 120.731L278.163 112.569H304.285C325.625 112.569 330.408 112.519 330.408 112.295C330.408 111.563 329.325 109.25 328.347 107.892C326.224 104.947 323.549 102.701 318.506 99.6344C315.479 97.793 309.656 95.0528 307.209 94.3183C302.599 92.935 294.863 91.9995 282.802 91.3667C278.738 91.1531 264.255 90.7385 260.735 90.7351L258.957 90.7328L259.78 88.5808C263.585 78.6226 268.222 70.2887 272.777 65.2217C274.716 63.0651 279.237 59.1506 281.889 57.3344C287.722 53.3377 294.307 50.3598 301.591 48.4225C303.176 47.9999 304.68 47.575 304.933 47.4768C305.189 47.3774 279.777 47.3146 247.99 47.3363L190.586 47.3751L190.528 65.7848C190.472 83.1836 190.491 84.2014 190.873 84.3087C191.425 84.4629 204.191 86.6172 209.029 87.3711C219.868 89.0605 228.232 89.2912 231.853 88.0016L232.545 87.7549L230.816 86.2688C224.826 81.1207 218.315 77.6608 210.119 75.2712C208.252 74.7264 206.642 74.2169 206.539 74.1393C206.366 74.0068 223.896 58.1717 224.397 58.0072C224.935 57.8313 235.046 62.406 239.71 64.9361C247.286 69.0459 251.645 72.8382 252.493 76.0617C253.033 78.1109 252.379 80.625 250.608 83.3081C249.639 84.7782 246.414 87.9228 244.557 89.2113C243.461 89.9709 237.768 94.1024 233.751 97.0529C233.314 97.3727 233.448 97.4618 236.704 99.0061C241.979 101.508 245.04 103.444 247.998 106.149C250.727 108.644 251.732 110.051 252.364 112.263C253.271 115.435 252.253 119.415 249.592 123.102C248.234 124.981 244.047 128.814 241.493 130.513C233.123 136.08 225.51 138.905 211.22 141.747C208.874 142.214 206.774 142.633 206.556 142.679C206.241 142.745 206.203 142.689 206.377 142.416C206.499 142.226 210.569 138.461 215.422 134.049L224.246 126.03L228.164 125.583C230.319 125.337 232.167 125.062 232.27 124.972C232.501 124.766 230.83 120.036 229.654 117.565C227.269 112.554 223.801 108.771 219.968 107C218.311 106.234 214.468 105.078 211.991 104.6C209.573 104.134 190.993 102.222 190.666 102.407C190.558 102.466 190.471 111.863 190.471 123.289V144.063H172.952L172.835 47.3751L27.2498 47.2689V57.9775L70.9369 58.0003L58.496 69.1065H27.2801L27.2073 89.6305C27.1672 100.918 27.2135 110.577 27.3101 111.095C27.5915 112.599 28.7312 114.567 29.9438 115.642C31.3213 116.863 34.1105 118.106 36.5866 118.601C37.992 118.882 39.4736 118.969 42.8112 118.966C48.0306 118.961 49.61 118.66 53.6465 116.893C57.4363 115.234 60.8289 112.77 64.4402 109.052L65.3073 108.16H68.3718C70.0574 108.16 71.4936 108.212 71.5635 108.276C71.8781 108.562 69.167 114.083 67.3391 116.878C60.8614 126.781 52.0587 133.049 41.8195 135.048C36.8676 136.014 29.43 135.789 24.6746 134.527C18.3491 132.85 12.5589 129.219 10.4181 125.586L9.61351 124.223L9.49339 47.27H0.0461426V33.8314H9.49823V12.6254H27.2498V33.8314H108.86V30.263H132.837V33.8314H176.371L177.002 32.1043C181.235 20.531 191.743 9.61217 203.958 4.09737ZM761.331 9.9206C762.662 8.68811 763.754 8.04955 765.362 7.56638C767.153 7.02609 770.279 7.12781 772.179 7.78689C774.807 8.69841 777.001 10.7807 777.904 13.2206C778.312 14.3228 778.381 14.918 778.309 16.6884C778.21 19.1397 777.662 20.4499 776.037 22.1324C770.22 28.1521 759.151 24.8521 758.583 16.9295C758.378 14.0818 759.256 11.8453 761.331 9.9206ZM81.4261 113.323C80.9773 111.706 80.9653 110.964 80.9653 85.0295V58.3978H161.424V135.666H144.135L144.018 72.3608L102.442 72.2534L102.251 73.6721C102.146 74.4522 102.06 80.0036 102.06 86.0084C102.06 95.2413 102.123 97.3967 102.474 99.9713C103.297 106.026 104.498 109.492 106.264 110.905C108.106 112.377 112.586 113.881 117.498 114.671C121.71 115.349 130.336 116.139 133.547 116.139H134.22V127.896L118.831 127.895C102.479 127.894 101.226 127.832 97.3336 126.841C95.2126 126.299 91.8694 124.88 90.013 123.732C85.39 120.873 82.5743 117.459 81.4261 113.323ZM463.22 111.762C463.048 110.753 462.969 102.046 462.969 84.3407V58.3978H543.656V135.666H526.136V72.2534L484.524 72.3608L484.342 74.4602C484.038 77.9955 484.054 94.5228 484.366 97.6617C484.743 101.448 485.466 105.318 486.165 107.286C487.219 110.258 488.66 111.575 492.246 112.848C496.837 114.476 503.574 115.48 513.745 116.05L516.223 116.189V127.896H500.979C484.403 127.896 482.879 127.814 479.014 126.703C476.413 125.955 473.06 124.378 470.853 122.863C466.484 119.866 463.98 116.223 463.22 111.762ZM835.667 114.795C834.653 112.614 834.729 110.019 834.657 85.1163L834.58 58.3978H915.285V135.666H897.765V72.2557H856.296L856.15 73.1478C855.884 74.788 855.689 86.7863 855.845 92.0978C856.123 101.633 857.24 107.471 859.279 110.033C861.841 113.255 870.519 115.248 885.488 116.053L888.082 116.192V127.918L871.656 127.841C855.93 127.768 855.142 127.746 853.153 127.323C845.469 125.688 839.144 121.494 836.411 116.223C836.113 115.649 835.868 115.231 835.667 114.795ZM759.211 134.825V58.608H776.962V134.825H759.211ZM854.113 152.923V155.374H867.777V152.293H859.993L864.161 148.746C865.005 148.029 865.642 147.384 866.073 146.807C866.52 146.231 866.813 145.688 866.95 145.174C867.106 144.645 867.183 144.116 867.183 143.586C867.183 142.591 866.898 141.734 866.331 141.019C865.78 140.303 864.996 139.75 863.98 139.362C862.981 138.958 861.811 138.754 860.467 138.754C858.849 138.754 857.42 139.027 856.18 139.572C854.94 140.116 853.975 140.856 853.286 141.789L856.335 143.563C856.782 143.003 857.325 142.591 857.962 142.326C858.617 142.061 859.322 141.93 860.08 141.93C861.027 141.93 861.741 142.108 862.224 142.467C862.723 142.808 862.972 143.306 862.972 143.96C862.972 144.209 862.922 144.482 862.818 144.777C862.732 145.072 862.559 145.4 862.301 145.757C862.043 146.115 861.639 146.519 861.088 146.971L854.113 152.923ZM873.275 154.674C874.446 155.327 875.772 155.654 877.253 155.654C878.751 155.654 880.077 155.327 881.231 154.674C882.402 154.004 883.323 153.04 883.994 151.779C884.666 150.519 885.002 148.993 885.002 147.205C885.002 145.415 884.666 143.89 883.994 142.63C883.323 141.369 882.402 140.412 881.231 139.758C880.077 139.089 878.751 138.754 877.253 138.754C875.772 138.754 874.446 139.089 873.275 139.758C872.104 140.412 871.183 141.369 870.511 142.63C869.84 143.89 869.504 145.415 869.504 147.205C869.504 148.993 869.84 150.519 870.511 151.779C871.183 153.04 872.104 154.004 873.275 154.674ZM879.087 151.92C878.57 152.277 877.959 152.457 877.253 152.457C876.564 152.457 875.953 152.277 875.419 151.92C874.902 151.561 874.489 150.994 874.179 150.216C873.886 149.438 873.741 148.434 873.741 147.205C873.741 145.976 873.886 144.972 874.179 144.194C874.489 143.416 874.902 142.847 875.419 142.489C875.953 142.132 876.564 141.953 877.253 141.953C877.959 141.953 878.57 142.132 879.087 142.489C879.621 142.847 880.034 143.416 880.326 144.194C880.637 144.972 880.791 145.976 880.791 147.205C880.791 148.434 880.637 149.438 880.326 150.216C880.034 150.994 879.621 151.561 879.087 151.92ZM886.779 155.374V152.923L893.753 146.971C894.304 146.519 894.709 146.115 894.967 145.757C895.225 145.4 895.398 145.072 895.484 144.777C895.587 144.482 895.638 144.209 895.638 143.96C895.638 143.306 895.39 142.808 894.89 142.467C894.407 142.108 893.693 141.93 892.746 141.93C891.988 141.93 891.283 142.061 890.628 142.326C889.991 142.591 889.449 143.003 889.001 143.563L885.952 141.789C886.641 140.856 887.606 140.116 888.846 139.572C890.086 139.027 891.514 138.754 893.133 138.754C894.477 138.754 895.647 138.958 896.646 139.362C897.662 139.75 898.446 140.303 898.997 141.019C899.565 141.734 899.849 142.591 899.849 143.586C899.849 144.116 899.772 144.645 899.616 145.174C899.479 145.688 899.187 146.231 898.738 146.807C898.308 147.384 897.671 148.029 896.827 148.746L892.659 152.293H900.443V155.374H886.779ZM904.288 155.211C905.528 155.507 906.776 155.654 908.033 155.654C909.755 155.654 911.167 155.405 912.269 154.907C913.371 154.409 914.189 153.763 914.723 152.97C915.257 152.161 915.524 151.297 915.524 150.379C915.524 148.963 914.955 147.803 913.819 146.901C913.024 146.269 911.962 145.858 910.634 145.668L914.697 141.485V139.035H902.041V142.069H909.734L906.019 145.874V148.372H907.93C909.118 148.372 909.979 148.55 910.512 148.909C911.047 149.266 911.314 149.756 911.314 150.379C911.314 151.032 911.013 151.546 910.41 151.92C909.807 152.293 908.98 152.48 907.93 152.48C907 152.48 906.079 152.347 905.165 152.083C904.253 151.818 903.453 151.461 902.764 151.01L901.137 153.904C901.998 154.464 903.048 154.9 904.288 155.211Z" fill="#F8F8F8" />

                </g>
              </g>
              <defs>
                <pattern id="pattern0" patternContentUnits="objectBoundingBox" width="1" height="1">
                  <use xlink:href="#image0_4_41" transform="matrix(0.0017161 0 0 0.000763359 -0.183866 0)" />
                </pattern>
                <pattern id="pattern1" patternContentUnits="objectBoundingBox" width="1" height="1">
                  <use xlink:href="#image1_4_41" transform="matrix(0.0017161 0 0 0.000763359 -0.183866 0)" />
                </pattern>
                <pattern id="pattern2" patternContentUnits="objectBoundingBox" width="1" height="1">
                  <use xlink:href="#image2_4_41" transform="matrix(0.0017161 0 0 0.000763359 -0.183866 0)" />
                </pattern>
                <clipPath id="clip0_4_41">
                  <rect width="924" height="155.809" fill="white" transform="translate(0.494873 0.295105)" />
                </clipPath>
              
              </defs>
            </svg>
          
